<mxfile host="Electron" agent="Mozilla/5.0 (X11; Linux x86_64) AppleWebKit/537.36 (KHTML, like Gecko) draw.io/26.2.2 Chrome/134.0.6998.178 Electron/35.1.2 Safari/537.36" version="26.2.2">
  <diagram name="Page-1" id="JVElC8gXWAFikW7G2Key">
    <mxGraphModel dx="3509" dy="2721" grid="1" gridSize="10" guides="1" tooltips="1" connect="1" arrows="1" fold="1" page="1" pageScale="1" pageWidth="1100" pageHeight="850" math="0" shadow="0">
      <root>
        <mxCell id="0" />
        <mxCell id="1" parent="0" />
        <mxCell id="Yv6gaA2NmNVzVcbL0BUT-126" value="" style="rounded=1;whiteSpace=wrap;html=1;fillColor=#d0cee2;strokeColor=#56517e;labelBackgroundColor=light-dark(#FAD7AC,#FAD7AC);" vertex="1" parent="1">
          <mxGeometry x="-1120" y="-1658" width="610" height="568" as="geometry" />
        </mxCell>
        <mxCell id="Yv6gaA2NmNVzVcbL0BUT-48" value="" style="rounded=1;whiteSpace=wrap;html=1;fillColor=#b1ddf0;strokeColor=#10739e;" vertex="1" parent="1">
          <mxGeometry x="-1972.5" y="-1340" width="750" height="310" as="geometry" />
        </mxCell>
        <mxCell id="Yv6gaA2NmNVzVcbL0BUT-18" value="" style="rounded=1;whiteSpace=wrap;html=1;fillColor=#D5E8D4;strokeColor=#82b366;" vertex="1" parent="1">
          <mxGeometry x="-2190" y="-1660" width="380" height="310" as="geometry" />
        </mxCell>
        <mxCell id="Yv6gaA2NmNVzVcbL0BUT-28" value="&lt;font style=&quot;font-size: 24px;&quot;&gt;&lt;b style=&quot;&quot;&gt;&lt;i style=&quot;&quot;&gt;OAuth2&lt;/i&gt;&lt;/b&gt;&lt;/font&gt;" style="text;html=1;align=center;verticalAlign=middle;whiteSpace=wrap;rounded=0;" vertex="1" parent="1">
          <mxGeometry x="-2030" y="-1690" width="60" height="30" as="geometry" />
        </mxCell>
        <mxCell id="Yv6gaA2NmNVzVcbL0BUT-31" style="edgeStyle=orthogonalEdgeStyle;rounded=0;orthogonalLoop=1;jettySize=auto;html=1;flowAnimation=1;" edge="1" parent="1" source="Yv6gaA2NmNVzVcbL0BUT-38" target="Yv6gaA2NmNVzVcbL0BUT-17">
          <mxGeometry relative="1" as="geometry">
            <Array as="points">
              <mxPoint x="-1990" y="-1546" />
              <mxPoint x="-1990" y="-1546" />
            </Array>
          </mxGeometry>
        </mxCell>
        <mxCell id="Yv6gaA2NmNVzVcbL0BUT-35" value="" style="group" vertex="1" connectable="0" parent="1">
          <mxGeometry x="-1990" y="-1650" width="118.66" height="128" as="geometry" />
        </mxCell>
        <mxCell id="Yv6gaA2NmNVzVcbL0BUT-17" value="" style="sketch=0;points=[[0,0,0],[0.25,0,0],[0.5,0,0],[0.75,0,0],[1,0,0],[0,1,0],[0.25,1,0],[0.5,1,0],[0.75,1,0],[1,1,0],[0,0.25,0],[0,0.5,0],[0,0.75,0],[1,0.25,0],[1,0.5,0],[1,0.75,0]];outlineConnect=0;dashed=0;verticalLabelPosition=bottom;verticalAlign=top;align=center;html=1;fontSize=12;fontStyle=0;aspect=fixed;shape=mxgraph.aws4.resourceIcon;resIcon=mxgraph.aws4.api_gateway;fillColor=#D5E8D4;strokeColor=#000000;" vertex="1" parent="Yv6gaA2NmNVzVcbL0BUT-35">
          <mxGeometry x="21" y="80" width="48" height="48" as="geometry" />
        </mxCell>
        <mxCell id="Yv6gaA2NmNVzVcbL0BUT-20" value="" style="group" vertex="1" connectable="0" parent="Yv6gaA2NmNVzVcbL0BUT-35">
          <mxGeometry y="10" width="118.66" height="86.69999999999999" as="geometry" />
        </mxCell>
        <mxCell id="Yv6gaA2NmNVzVcbL0BUT-22" value="" style="group" vertex="1" connectable="0" parent="Yv6gaA2NmNVzVcbL0BUT-20">
          <mxGeometry width="118.66" height="86.69999999999999" as="geometry" />
        </mxCell>
        <mxCell id="Yv6gaA2NmNVzVcbL0BUT-64" value="" style="group" vertex="1" connectable="0" parent="Yv6gaA2NmNVzVcbL0BUT-22">
          <mxGeometry x="-16.85" y="-8.72" width="123.70999999999998" height="95.41999999999999" as="geometry" />
        </mxCell>
        <mxCell id="Yv6gaA2NmNVzVcbL0BUT-63" value="" style="html=1;verticalLabelPosition=bottom;align=center;labelBackgroundColor=#ffffff;verticalAlign=top;strokeWidth=2;strokeColor=#000000;shadow=0;dashed=0;shape=mxgraph.ios7.icons.cloud;fontFamily=Helvetica;fontSize=11;fontColor=default;aspect=fixed;" vertex="1" parent="Yv6gaA2NmNVzVcbL0BUT-64">
          <mxGeometry width="123.71" height="74.15" as="geometry" />
        </mxCell>
        <mxCell id="Yv6gaA2NmNVzVcbL0BUT-6" value="" style="shape=image;imageAspect=0;aspect=fixed;verticalLabelPosition=bottom;verticalAlign=top;image=data:image/png,UklGRtJfAABXRUJQVlA4TMVfAAAv38F3ABULgrZts/DH3S3VDyAiFLZt22Snu3X6xLxl5m/mYBts55N7EtTebaDYL+/WSTepRAoewErOdn0KmBZUfUEWokErlSK5ITFFRFFp6haI4RzrrfsVwxwym5xoiMLP4y9v/8nXQgP1/+vnNNZvoVDDDsQ94/Z3H5ckxD3BXTJx4o6TAAmEuGDB48Tdk4mThLi768wkM5lJMum5lCbf7+cn/5kr9TZNkRLqLd0uZWfDZXNZ380aJQ1Wd02zs3UvXBZZmk2hHOi5W8XSbLbQ1eoaYfZLWTduJZU0xXap3uppZ0NtFcn1LQCAIkmSJMn/f0o9NSZEJESEuxspMxuDmjKJqLBYEAAwbSNZa8RmdmIHzbJkjgNtyu10YGd2j/n6Twu2bbdtszYYQ8W0wV4AEJTz5fv/f2VOs/1j6/wH3N3Ps0pTXKunu7u7u7v7lrvLnrtvufue+3luup9nZa11rOOYbOLpNAQmqeBeOJCU4m7TME1IKe4w5zC4S9BHJ4ZTi0BCGhzSoPF0xXA5cyZBQhiCTnCHQZJUE4IDAQDMZP9/UDan883MyzUjwJIk27Qt69rHuLY2FvY+erZ/2X9ZkGxLbdMjqsgesJEisdrOl9FpfxePMjod3AcdNum/Y4p33LsjUlvu4lG848Gdklrh4e0u/+IXhzvJA8udFKe7s8/xjwekhAk5VIZZEvxULrbMFLinwN2+u5kCjxR4Wlg8LDlOS3dDgKcIfOOaRaGd5XpxahAnRtmBVxzuBRoHU58ZpslSw2gQ8gSNvy3WK0hSReJ9V0HgoowVJGxXrORGWjZkbDw56QY3duOvVi4jXTemn4l+VC8k3yhwpsDDbfDVXynfr5NmBmly+L08dAW58pMzQbM2ox05cRDoDmBxpw1T0EVCJwEHCTRAoJ4Md+OkPcdtGGnBcBNOGnHcQOJaApWgbEekbz7a6zXB8rdIucu+T32c87PLtP37xxnlB3WDf0zQ4zCmLtMOsTq/GmX9JboDWGDkKoGDRH056sZxB4FbC9xSovoCF1vVLJMd7x2GCfa+mgsFjhS4+X03Wnn+ZXVCPXavJcc56ey0oGSEWhCIhko4SMBeAnWVqJOEzQQutmqb9+4qt7V+1JzzcH9lc3+jIsWZEA8H/6820eK0oWQkWNwBLAAbqqCDhP0l7KNgO4FKIy1960VPdxR4ocC82HLSygujPOEfEw9RukkesYyqYZXAN0wBJwUcJXAAoBFluTtn5dOGAl8o0N12vfzkkR4evCIJcm1yYoPQ1JnDFXBVwFmB1oxt2zsrpFsKvFLg6Pfd6seZx4ZOmq/YB00wI/TmLEH9Vd2sCnSTngLtzwY7c4MwM0pTfpF4VAS6NxmIThhQX4oLj6btM+LHqU5aaOXVUwyj9DiPiJ+Rxclui0GYkbNAlRc9VRtEmwPj504vLjSOlUGYHsexBMUBJo6nH2Vh6qg60ghjGiZBJahvPtvrQjvEe62blMFP/H/xipRTqcH0ozR6HzYlCmFSX6uItKzISAhtm/sm+KnWLEpechjVmc79Ty/OVhj9doQShtWb47KrlgNrtpMrsrIAz+ZH+EVyoUehv4rSho0QI4zLTYHWlJYkSiZkRH7EC4snjWPJyxNOJCgSyDibYZiGeK3LQ50wsUEc1SN0T07jdYG/cvLV9PflQmowXpYK7WwHaBCG1pbRqpxmhobxJvvU3/KLdN9nOve82RpHng6ZTgISptZPoEaM5Cfqcvf4U8/k58ls9376UR6xXtXECmFuThJ24KgcVWJX4aL0OfBNPNCdj5+nWjlPj6yrCIN7T2+J7ChL1ga3Qw8BH9KdP2IYpCa3fXGijFQLwuRGqIW9BE0YTdkEnwp8q933e6MX52Ff61qUEmZ3kZMC7RhJ9gqPf6Z7niBPnhTisqtEFDcFCMMbDkBHRlYM9xRotfLSPT/oR7nGUWTsnf4CE8bXmtAY3oEC3ZW8JOUegiKlLe4d4cXp0t1Igbe072UbQt3UgvEjLQlb/RY/WzcpjKKUc6jReHkW6C4pMN0Q4q8i9iW+Y8meq83rIH0dbt36Ow7OroNdAWrVkNaGkq4cDwXARS1cAJjiCsAwAIYD4HUHtWDOA6Y1sbpmvZReE5204sXZXG6hXvuMfpRrFtUdC3qp/b/aA/xU/e3Q9Vb8kQKPFLgdT4GRAsVjDYMu7D6J94jSN36+wfp0S0b6KmgPoIOCQyQYqsBwBRgxMkSi4qu+zuCLk1Q7q/hpOtfjEC/PDNPs1b8S4Nne59kUOFHgPuhljhgmycsw72hXXpXOEvZWsJ+E9hIOlWAkALSP9GZoZ6SvOoS6CX+1IE/nejTiF6lRmj0p2Llecjw9mwK9xnGMkW03ar1CUG8iSGeJukvcXyAXBWgeaUFozlUPX64D3dtnzvWY9EzdpPgNCrzcHOQ6rXjdpO+dUlTZW+B2AvfgeIiEdA6uCtYiLD00NYv2y1xBmCf0N1cNxUvTzwd8NBR4osBn6HifqvX3wGo9gZsx8o/DJKBvpC/H5RlbrVxR4NUoyjiCeyVBlhgGWfATf8JjQwf7jUa3KGW1GWlJib1AtI20IGQnqoks/s9jOYF7prH/FOQqFpIvfLdauwpzrHppzuoT1ocjup7Sqktpyt6jwPvjH+3hiR8nOmnpux6Dn5ror2gTZO5O1KpY7cUQPSPdBS5OFNPP3O+7e+GjPT4J0sQgzF6nndVhbpuUyMqL9QpIG8gxHYOLAvdO07sU+Hg82wnzlDmpu1sBwc61ZiGWvW+SrFaOxbRD2ggFaXhCa6CAxVdVtc1edzjLuZsSZKmRn91DP+Lh6jghcnaYrI6U0PB8VlPK4jbh7eE9L8mmspp7qrMMg/ztIjsL20RJh6Ay1F0kAB8ZomCeyfJdn3STcqqHKX6SGYSFblK9JVSxyzM4/QQGH6mD1Iv9lf1DPU4jwizlx5l+VCw+nylwjXePWlA2AgDoJzuSNGHwk/w/Uz1SnXWPc8Lv0uqr5qwA8Cd2Gx2Tx16zqAVpOtVD1av/VuB0hSZziAIuCoIOzVa21hBoZ+LfPVSmTjUM82fz3XaPxeyroLOCkMOlW8yOaXHQLPhUD1b/vpB8NfvIC0K9u0TOEgAOwwAssugrD0HAR3eWR2vEIMxvgx8jnbeFV62jwIDfML0hZclmJ9C958WZR2u4/NWLLbcVXnFhorUXZLgEYMOcThxngqZhUN/IOsI8Y24cc0SQpzefadsFxanameM5YCP9BdwZGTbn3SNZxx2YIMseGeB5TD65pbDaXyCwYbCE5bG6fLsKfGsFecauc50oSxkd5xwRpFmQayNwePrVLL+q46CGtzeidN0hDHzr3jWNTfm4E/vf/l+DZZJshY3GqwI1uKnF2PW6IOilFSQZm851Pu7GeF72oBWa5fbI7MsJ1Eg/AVPX/jFP9vGAJUrTG/luGXv0yiMNanBViwy1933qVZhmPh6xBFGmF5eqY7Lx5HSiFGi4ZPvWucBDxmcyz8u1M24ZJSWQPlxBoJE9R4MCnB9kHrORCf9Ogac45eo6oKEuUm6HHg3CwseDVtCLDPg4l8XqQTBDQ6xYnQ6PEGaZB23gRTkFnlJUQReBvUCGFpRGreKfF6apB22Y/E6+29Yk1FFCkD1ryaht72scJRsGUZaxKI46YuTnFHjJMVndOQIZbcdxgsH7pQNZwJ3a1ftHj/bNGXaVAGJow3GiyQt+aoVpxvhz3Vh3a1p5zfNkaaL25wjiicrWHCcZ3X0Gj1qGQamdyW1mqz0nIMPveuAGfpBrFjJ+F9Rn9JUAwzMv0zg2HrdBGGdauYhZr97sIBDEntn2wXOFWe5hG0Rppptwm3KXazF7CQwwtGQ02jt+LqOJ05Sd0ZQwyQRJtk+8qJhT/t9159Img7AUO3mawevIMMD971+3PibvYTQ111hBnBn5+VsC3xpfzbT/qRS4p8CJAv2lFPi6xPS22PJ+0q3JN4HTljy+TZtWPRwcGoZ2SLw0y+nX4/uRuM95gZ8ZhNWqddSUUYiHSG+Hnu/D4HOdOMtYG/5EcXquVs4/T4Gnl1Dg6P91C/tbFu+8zlR5O/R2idmss6qtCO0pkJMCLmqxr1wAqF3pIM05M+ey9ybOJJXxh52drWGHpcY9gjGefv2osj7uq62KF8CTHBTgDD78H612EmW5KM4EfsHziol+3xMFXvajwGvI72WyW7R959otag+GQR5/FuXWS1tr8Bxlp96FdmGH0mpZS+KXOM2M/DLAcyo0Gm4KADxNuZ8ozUdzrnOveKEgzP/+yisNg4rnlSZZuu59k6txay7aQIYIeOfkOr1gggqVpk+f2rFeSdwShjkFrpuVwTAFCHbbd84i7EUY54925zRTGOV/rxdznleZXJLwfbxav0zf+kVHqyuhhMb0tJf/d8K8Vp5TK1uUxCsKvNnm2yEA4u/Z5nXwy8Ikd884XODnH9JNalWcRutWCRd3q9EuPZs9GSEMqEeQfpMKw65hS88seD1EBHh2Nn9XQxTEnxcsdeP/8wvdLQRBPlHj2FqfDrajvwUy91iMJlhZwJzVR4eVNXpe7tw3jpYeXmh2SYw6+l29BcSfmzNRFwQ7d4e7S9z0IV/N2TxIE4xebqKVRlpHQucQhuUzwqRdTZfqnhg9GuukdfTTti3HBLeOAsfqw2Dn1h1yfWDkF37fE98VsZrljlQpt6rtCSUMrahHtSN3pbK3VVZcZpF2JlZ4xy05cQMA9w5EI0ZXbFYfdW98v3ZW+64vUW7b7KtejigtCBupAGFwTis2N9eMXzQEk9vXV2tWjSjFnadzQYVVDXHaGwalewLfzwM8R4OwSdwFe1K1EWP2AhLs6+Pu26H2EdvwuGnlcpVuVY8y3OEzuyBDaFenuRvuhf39UsPV5KvYZrbtKP34Zwkrks3ktQquM9UCh5n1jTW6EHvoL+FW0Ap27l/IOOIs545g/d5t16eQTroLNFpzdP0cwpp8FscVGeeywmEUYOjEcbLFC3rpmIeL4wUlBd5D7IpiUOsu0WcIy1oyTzY78RAh5R2ulTev+B7mns3Zi7BV+uVHEc916hQ/KCjwJrT7l/ZXcKiChIXVVG7E3eIipDpxmt/n3E/jrhukCDTMipTnlVPVeoK4oMCHkT8Wh7q9guMIS1NdkStJjlVCihNlhU4qV3iv23KCu3afjKOrH0lRkqtxwrRYpj1R4PdCs/FuN7UgLE5kPb7m2CZU37QzGf20w30EzV6gdfrwXura5cKgCHLtKPA1a+MOEpCwvjqGPbZldKH29vVQ34orCF7NkWJ+Oxj5FaNI0ox7AicIS4OQ60ciXRN054RwQlPam650ElLa0SG/iyEAEbx2H+z7COOCUbgycZT9vTxK47VhA6wQzugLZe+Bt0TB2k0dOovKAj662NkW9wGD5FUY+NZjnOvUFr5b8Lxq1WZZGBlOEhEOqcGG3K0mzaKyheTbZmUwHY+TQKabwjAoP6FeEyeZVi6Xve6zQKs9oYRjKuo/7eqO3DaLwm4uNJqYQ12kBbofhWGuVj3FX3lKMbuVkDZSAsI5KSs95u1fKiorUEgU5EGuYzWsEbzyjvYy7fVy9UmcZm9YNk7yrVpPihlyt9lVgQWOAjoIuE87wkaoEiz6Sd32O8DcXGGLFhQuK59vRgnma0XEr5dHM4YkzTmsgxL4xdLdfdrJrbEq9D7z+NmBAnXnpD0jLRlpykhjThoIUl9iO0nKU1aKKCWJsjPUd4DGjouxvJLysqPGmhrkqFU5e4spAhm1ay0/U/Yf/w4ver8sTRtJkn1p9XeEOcN9M0pNPwu+WzAG19VJsee7Yq0rI4SuRijQj6N2hOxFmR1j1SQpSpVc0Nhw8OKWq5iXXSg7k+q13/eVAt8o8EGBr7fiH4vSN9/12e973qc1O9P1yGFV/PSiGZt1WiL59K89X7YuVJNQ1Q+bVvlk2pn0oStxnBv5PG3v4S0yMxyA4qu2+Px8Od6ZTl0QJYWv5hKrWlbDzFkCQovBErUhtDZRyjMlP1W2WqyETRj5tJPq/Lbr6+3Qc8DH9A39qH7KMaIwFye5JMl9RpNGkhWlK+hsmCw7taWpVfXCbZf0v4CiS8KTXvnVf/OhKaFfSO0i12J9jeA0UMINei/QffBRf/HdMuDjfE1bRo4n8IZK1AKziquan2pZiJGgCyKc9wZh46u5Br30enH9OVGUT/bBTuOUgDWD+tZ2GVyow8eKfhFfKu6c2jCSGdqB7qfP+dDUa0O+9qWwhrXY6kVNKbH8kX9O7dFJxdlFVn2QhAS8vgzXhOquq74FMWN1YYg81Sz6QPfx5M+9FPhSOkDnuHlGgtGe7sUJ8gZKVHjVVdvq6z40dfJydVyfUbzXTCxO1EXpF3GaqzeXX7JSubbDynsIsF4Ul4V6VmQmXtwor43AqYNchy8J/PJymia0/spjPb245jrBBHGuanHLiu848G0QpwU9JusmMkEb4q1ZoLvAqVsv2LlTa0RxEeB5TNIH13kRUIMFqrjom87uGlMY4r43CIVuIlAuL6D/mA7pdIazQysiXpt1XZIu+Nt/o2kqddImy2TjrRukLmUyrRYEpRojDIugl3Gzzn83gX1Zoy1aL2Ybmd2SBYYBF7rFgT4MKEmONmHGTeqzBGnv3rT1At+mj9K0B3pxU5poWAsDOEm4C9ZuTV7V2P4vOd5ydS7sjasCvR25OHzpJCOfC71CnBQ+jEl9bliblfoqmgRlnz38czQdviJLNmeY4NSCsjWf0VfVlS+JrKriZBBAfRhOeV5T4O42+PkkkV9M8GFY6g5tJi8tpUQQduK7v0TTbdcYcfJ4glMFpuhH7f9TS64+1eKYNEMqgXLRcABaYBr/uqbAo8axYeztW5fN1fmpQtFd0PJfeJ9Kz/Qvwl5zjg7W9V9fjjMstmbRTqadJC04KHFcaGftqk3UkVKwG1ROCtQnSpxHTIFP7UxczehTeM3GDzpMvlx154gIop70Gu2seSktk0aBLzUJw5quWyI/NjyvUj9EUalxHJIPfi+OCQw3ABwlqEdY/HK1kPyuk8oJYxmeunk44ctf2KsxQdMx01/yf8dSEN+rxGbflSOsDXHNhUwjX5wzFih00iTnnERBoZt0GSbnegLDQcDGlG7c+/7Kuxn7GmP+yIaa2bwImq6/u07ai8KCS0FBrn2qcom1nuqWmK7RrgyDeizNcQ6hV96wzWzZSwj0gHNTRrMvtn7U738OWw6L7omzynWEBEk/9xTtrN+dHymYLGmcP7bcqhGcdoGGIszFfgE3AZxI4JQSo86LzEECEBCtGS1ANJt/c3/l/P/ZdHDsrGQe/2yCpE/mgtZe6rk5BVN1qcbx1IkSHL0ZPtbI52eokV4lNut80HRQEOYKtgJlaz7ixZanV7HuEFk0c3lpNKOyNlTMEc2iif9YjZCAYFQSaqoiFXmF+iD0SolRf9ZeIZCn8+titunsBHhevsTGA2WlN9fQiSAojqwlFT9Igc9Si461zQDrvKPXzqMLF+3bY0DGuzO6O9bCZYeAj0kS5ew8WIInZ/QoiGQ0F7S0s/7/w+O7VYgg7UwpwcgOqaeKg0JNEIfFDU85CmIR0VpYST16hoHguyV7D5kA2ye8Qy8fFL/gKTf8FDhJXOhH9Sajh7Wo21rXzcnqwb9oFv3dIf6gPhznQ0ak11Y/Eqw+F51hKmloj2L07lfDX7CJ7MIsTytBjWDUCjMKPKoFkiTXSZvkg389wbc3YUn7QOblN0uSgt2HTr1QBXborYzi+XeK3rtwMvifYOTzuEPQj2GC0Ypm8iU6SZOCM9KL5apNdAzA1raVXrWw5wPPq0VeOXNUsXTksF3Y+QbhqtB0Al0PRlap4kPhL5HEZrUDNHG0wYwCD2rA2yyLrBNhBNsggTJ3rnbW8V0uiUv6p08aF9+eSXsLU87NKSHQ3WhZpG8Dnxwjv16pjpsghWC0mnM4fyZ8XEPgVCKr/guCrQMnEQ7FkuNNHJQ0npokUSH2S6FdvekDh+zTB/b1+97ysAeL3FIcljSeRsdmjVsGwVqsL70J/KAJcj1mRuZvYehECQXe/3wmtycKyqW7W6XRILiGq0U9wpZp386na5r+/Ice9kjDQEr10vSYhXjtw7eb6EO0/LRct1vFaVZx2lXaepm2WSaul7HblW27Wm1YLjcuI7Xr0O+d5TVR+IXAqfUjecibnk7XtJjmEwYR2G759GnQ0yJ0Spswq4A0nLmwU94jrbzlduKoDHYec7cuwTVEwuLIoMBXYVDOpMXTH6adtXxX2FySFbooPvQ2mtxfLTGZ9ZHWhVJnDkd5764PJS1WpfJi7DLamQY3OXTXnMKI5VapFVp59zaRU0qSkpbpKdXjXB6B7ZVBrkdxXEJPS9DLmAHZAzgi6LWnZBH2TRIWXO6swLfjZp1PcA0UKFvr0HPBePBbNI69/FCtUMWpsZ1zsUrNRmvMXCUkqPWhuPai7TJZ6bEZewxCnQ7aWX+oyCvpuDHgkbikgMC2aevdCH2KPU2m1aWxOgedk4JpqlCzaLlcsPOQtAuwZ+HrK1HSR0SBz5k0JHJLrbzlec3KVbwlNvNDvQFSnSUiuHUipCzUc2EjyeRZ+pnGcXjLwTRMV+P2R0Nv7Je0DYJcR+gp+aGUo/88jPlj9qb0ozdxtwtXecbYr8TcReC1L1s/1YmGG3JvCnYeLb18g9nJj/WGWBkqAIGpMyXlVjXHaqzyjvXi7lAajreqQWMIZNetVK71YgF9OaeTDiWxirFApb2EKauldtZwtjeZfpZ2WMWd8aYlw2vcN4d9G35agp+GcMdDVmRVpUoPhkE3kbIxZQWwlqBb6kfdoeDfsC1TjsSwmy3ZrYpiX0Pv+aFxm2UHjjFmTa1NmJ/q/mCaSJOS9R0c+HYusuqYS0dc9oerlus/kUbF5RDJ4mKUV6CPDRFmuaHZkNFjCXDDJGjHaGmiJqyXwU/Tgm9D3wPPcJdo+o2m40OgcgGg0GoEuZ5+F9YL/ZWXIljD2Eii3hLFfUfn08ST9f1R1sUeJCHmri5lq71jnldLo9ITtpnn6ybDNpPbjJPnExoaIUEnTkphNUax/8GDPWHTuh6XdztPP990neCmZaBCmaHtrzwDH7FGfr3yY9OJY4gP/6A8UZeYnr/tycVlsH1HbRnF3a1Sx4aBOMETljgoz7W9bPZmZABHhKZcFOwk8G6LSYFfBmHtCVsj2ztfpnMgb20YtX1Hh8KSxmWA5/n9ENsf/fBKly3f5Vzs9Yq9+HTZ04RbC1mPsXsb+eJAT1g6aRPg+VAM6X0EIjQ2RMJWgqxd7M6VhCXwCaFIIlsfKJrbn/F6T9BS3iJYd5cI47ZJAaz7au442Lf9v667rbqQQGnK6Orv2DAQwDtJVFLgM8F1fZSLgoTe+gq0JzQWFr/eBjzYxtGB3P7wpoCPy7dBKRiHS0VVQWhifLkRY1b/liKn4l7BT3260cVc6cP++/G8Gvirb6LAr0LQHCgRA9Yi3pLTaF7mpzq/HvY3jFGG/HM6MZJi9DWOvSdoyax/lH0VRNefoyyz9U+c68Gho6zGqmLe317jvjEIJfBuhkzrGhE6jjCh3hxt3voU+PajsEPxHGMIVNWxGjrKHuwJ2mX5Zwvjgq8aY1r5URoWHOuEQPdzvlXHezsqD1rnvNFNGtg/SBoUiy1Pa122nTkhDMlZwsLQoMDvbwL9ZCPH+kdDuehbgW+nE0CJ7FJ+aIcogK4dpQ81CAXHmp1qdHtSgvdYd7J77K+cYS+fxVapnfWZB3eAwIQ5fcTiZwl7Z1DBOFRKLyAwdaUk6ejrxY0naAuLL4VnC2ODPYsx5vd9fT23fi7M+VAJaXg3obO1zrnAE6HUy50Ww1EgwqQaULbcbStw+H94QtajJI/AVBlqtzwYlMgplbvOWQGM9alGv+7fx6X+Q+DUWRcLa2WH40pAnQIfwDuzNCuAdBcBCbNqSui6dcR3a9ghR0Oof3HslwVaHwKehhpIw5hzZmtoauUdl5q4Wh3hraq0HlHPPQGU0OYWRZYf6UMFJEyrCWGx6uh9vw16E6ZHfwJTW8JWraOJoPhuFeUjx/iwFFGVu0ril/BkccnaJE6lCMsi0MCbCchX8ybyqsmQiSxukWd33DFvWLuKJ4L+hj34aUoZAlPhxVAEhcQtYX9pSRR0rSmL24eGgeBOPE8kaFZOEuKYFmmXG4RyMiSxy8VmvRM0h0pImFgjosS47ifKonIyYMXDJFDHFIpXrz4COgl6cZPoHGPMYp9zNQ3CVhpXk6GTJSVbk3gVz2sarirWDLhHLt3dg06CNKp00i7bZDtwRJhZnVVR7mqhwydDdnbO6QSieqvKd+WlkA58WX9OCHLlkR76kogczpU0i36DOiA4yiBNJ+0lQQUq+GlI+l7155gwtUpYo8CPy30A26n/PwJT2mp5tQ9k/l+n7VoXXR+GEi2+Qdj4cGOSuKLAzx6MYC0dEe6c/LQPpImmn013hhn8eng7zhYFvvtAVqCXMozujPzcv0ESOHWYPHWRkCCXY7GEtjgQmjwuWFrAxzFb42Et25SsCz908RTAXkqBPzWhjDA4RwGTltF1kNR3pTKfPYEoc+0FfMygF0FGvqw66+gqQyPM4yCyOSeS+sVSw+c0nDNrPmQo3ELqllMgvazoYhBG141j1bb53BTAHIY3hFlHeezS3YckKKfANXliim6JzpFD2zl87hQu7Db4rfBkYT0mGfm5++kpkLSzNvk9cpSIMLv6lP2e5xTACrBeBKICo317+DwFMJFVRXxvO2FGkMs0uCKrlkUFBxK7pUzrcWbEfWjq0TfyhTwqIEm8Uj+auwlMGM5JwRy96688QXIuEpICZjPduX8KSBqUCqPMNzroqsym1SWVOCUH+vuSs4Exp+ZIBXbHOt8VUr+E/Vy5VR9HmF5Pgaz+FUK7mgJY62qLIDYT8nrl308B7OcSz97x6DMgLt9FH+I+Ird6noMEBF1dokTIkgdPgaQfiXjn7QCJCOO5KVCHKr83eQpgyW7mrmFeH33q8y6B/DBSua0DNYJcuvdyojcseVyysYXF9wpQH4exFqLNJi/oZQKdAKlfBXzc2nFEWND1G7xD7aybAtkVtvbZcfCLpgWxqub+C8lvgF5/cs7ZQld1Nn76RK7z02E+yv4KEnQVqBr0cr0Ykjwqg16OeUfHQSDChloKItUbiVtBHhYDbdIQ8PYL9a0U2vUZcOlHbTLoDeIImbOAcrcSW/wMbmuen+q++KJjvOp3G0rXvq1/DnQKRBYPE+TtBCGscFWu2Ql+mkAPjCKJjoc483ixxfD7vpsH5z/DXw6VoE6Qi3fbfozjXBnGzntIiDFDTkGsL909wp5Ag5+Ouy/GYIkIO2rGSaggvxL04Ehqr0uA6ypxaCMHnICLjfx2O2Si27N3lu5uHOejuy7Wf2LMhhvyV/kqUM+Idjy04oSwxCCB8iyWVj7Og9Q8nw7ExSHsvFiB7qcz4NKPmtSL14sRZH0ZocA7txE73PJH2ZpjjDXR5pidwLcZ9leN47QDNB0EImypIaVhk1RsVqAHSHJLLwLcI80+uNjlcMQmj3g+VFs1gpxU78VOxWk0jkPW0UFfasUNgMaUGgbjiaDEVvVPDRgjrNGfo8yLrVmMoFobZmsM/hxgm8nVOI6AHxr53R5YQ7fla6WV91xGGlRCu7VjbA4yRwk26XzNYoCdgu9mWpy+AhP2VImoZl/VpbCHyLpe4K/pX/uJnzoDrF/ebHH6cIKsAdIp8JXLGIRNsmaJPnO0V33Mgl4u0rCCPYHKD6IsUQmLPCl5H0wBFWC0SURA++Y9ACfgGcvfdw2Igr6szSLs1zncRRZXQa7nYkQbpiAyJwUSPiP9qIGdAp4n4tRRS8LYxE2CnVddP+ongx4ms5LOAXbjtKCX0wvByMLSMOjLMJUgt1qYTOQuz4hx2TemDP1ncNIIK7eHX2RRCUsrH/Ji4+2ETVVftYiX5CdADUy33ICA1oiyaMcD4B7fPycy7QVCtmPtBrrPkORxxbIemAOZl6KvWirhNdaPWtgJkPjc4lCWWTXCKn0ZTgddvbg9A/YXo1Bg9hxlX60HwpkYq4xbUoasDWUU+OAs0pBL9aY8UQmwFkShwO+yqIJ1im0TtcAKYVfbrYZB2L9wJmQeNeMQ4MoRVWR1N82E6q3yQ1ObMWTOCviu326aCZciKtkV3xWxq/iu4BKdtlOAp+C3MhNzhAQsU2HRw55SsVPPBO1aJgrBtcQsdh3zPDkTLL/v+z2Jivy2eN+zVpJ8nasEuZ52pBr607J9GKHAV3lUwZL7pfxQ7w5NwjIdMLPtVwJHjAFtW48s4OuN8xIj2HkeA5Ze3G7W+T0ZQX4GbNsmCHaexnBTUrcK4eTlV50AS1Osp46BJTZ5tMeuJtQJ28qAbf2oGwObcCMBrgLS3nEUGLHFI7pZc0qRbwM3wZQC3zkKz5Pr9WF7ytDXj/HD86CvYBIMYTdKWWfb2ZFptTwoYfnl0AR2t099He7v7v/1UJ8TgpqjAgvJP53NSRRheXgebBBkhTrHd303Bth9068WYZ1ys7HsJZXa1RjYSm4lwP3i4V5joPL/uhRAupOAqBwVXDHMnsFJblg2T8tAA12MJHkGMHlYSgyRe7HZpzVWVmpikVUDq8IFV2bRQ2XZDWAMwiZdterJMfLchltWS5204ySnxBmWHSlD39Sqr8icCpjMrazSvMhssc9gDmPP4SnAZqyWAutAmO2whJuCp0Xy8vYcI698piw0lhyfOeljntdsCe05yDLWvtAW8rACJjF45NfODuqEfaVavHsB09IZBL5yY3PkzAD78IhA97umHBPU2glCgd+8OIjMq8yDosBsoS+2uXyz+dIYYF9auY3bYoWFthx8sSm+DX3Y9KxIQMs/W+Ze8fAxUP1OGawiP/jbRyH5oZV6FRhFVLEosVnHrDdNkYKs0mxanTKpzT2BO8V2Cu0ZYqHteld5qM6GvpUT/+PJCFiTVY1Rb54GRjfptmiDAQKh6i/ROvlO4NQchO82iaYAff3t6UdPZEl5xKHNSIQ8wkKFBts0Lh/uCdu2PZAUA3ORMOEcngJ2dAvtevXjvofAqBwkzNQEOmnvyTmdcEjm3iOoelGy1hAJHAl/Ek0ze2xUdTZsLpnUrj2Bi5dCjYC29eAfIg85FJnPDYNjZ4lRuUhQAuq+mgfuIXO4ZZ6XmSxk5RYz9CWVWhyaIqwETrPR6LNRXaiHuidSk0NraFMMWKnJtsiLb3pCRYFfe3OK/FO0aCbIAu5xUqRm15NRZNmgLbSbl0I7UGKITL3PRq2REq48SIwaWiN7EbAulEWsdm8D87oiizkbVSeJddKLLOCcQ2jLNdsY/TndJHNwLxquYrbufTZqtyrh33twmRNuL05Au+95YPTibrNqaS8hqm4CR7FysVlzDXnEz9u8WiKrBbXoj91J6spJzzoAWfp3eN50KEJbrBSn/SRC1VvgxI81z5NcQ+5XIksUG2xku0NDqkt5UKkrv/2RuyKbILLEf0CR+ZXAmfpIiDyvf/be1cpHriGz+IJumCH/rPq2xJZ2NnqqK54Tnjkb1f9c8JueUFHgS2eJkI+tEkj3XT9wjQUWcUlQtVxZ7CYSOBKePOQSQ3Klu//lRwhoz18A5jb4swrSkJfhbcgIBX5BUYYVa+K7TdzTDlklpIWJc5nFvcFThFyqC1b+ttar8h4aSG0eOsnHIItz3t0LTLDzvH3nIi/k2VLioJe7EziGxnHKU4XIChDdMBime8MncJr1R4+Nai56yEsqMzkNp/8XFiA6srzv4He8oTLym7T3CHkjh9twYv2P+KY3t3Qr/qPWbKIaImC21ZzgTQO+26ZePDaqPBk2p0xucW/4Jpz8ClA1J3MR9h3MSctbGfIqcDpysmq2P4ljUOB9IMOo2mK6XrO6Oy1XMutBfw4bH/c2i0q5y2lw9wceDqo/IxT4ACN3K4EzOyiAqjvDyV/RvbiFwq8o8AdBVQcrUfJUanA6nLfOuOpHMQvl6VzFvj6SBg884RUEtNPBJuJiCvzeT0LkTdLK1Hl6cc8tTgr/fzX6mj7EZnskHd62QrNpsSostPngi015MR3npm88Atj1cJfqFPjRitI5qD/fvXyzFfw0cwvDoE193CDPsFmAaEEvZ286yAwe7ppUng0WSjH7s73p6KT8RFMFleq4GQNmiem1MjRQl4F0laAkVv2+b9wi6GXeqfJQ9eM48+zoJgMtPmzhlvknm33sGbIdw/NoOXxOzwVt4I1H8jcuBb7IAw4l6OW0S+fcTBCz4+T71C9ucW6dWUN+LaHE1epCWlz8X54SYp+mSFu+2kiMmo4rQ6HdZR3d7gIDn8NhWkFoLjF9E9oCyG9u8Vx+FlVDQYJertM5BQW+9qQYeeX70bNkgTctGQbdhsgdJiHrlJytkEUuszkN9y5CpXmZxXSSgIA3VIKmlET8q9RJBxh8VyY+bVwBQNWYUfmhk/schjLko47BlEH1WOQl6WtTZryRco/T4zzbbtUOM9bJvdhSXSqCCn4X4ZI0XpXjCVZdOI532V4Jc9kTbVu6qgXySo5C/uCPAcKSZH5tEF4JquqC+isflQGfR0sysw5/zCpAg23uIBebrrZBOMyDdtcQcdkBM4JbD4ZTlBHIIHO5Yj+4AICqJaXLZckCLvG2yP9fI68nYU+i+X/d5tFDEXCR1e28mmzTamVrN7HIkvOAkxl1sPO1FWIEv66MxLttJszDT+HzZdpPFwVQtaNk3fvu++dxSBcmKnbI6xzMM9ta+XEeTenFY/rVGSwQy5RczJBhIXNqYE+gwK96k04gasfoSkUicJp5+FHgfSgAqDowmvC1PpSJ5G4t1YXEEGJTHjJO4XEa6KRj5nKJvIFHm3ShJ13+cJXnrsGqsUwebOpH4xGwjgh2PmcvQwJTbaJY69UH8FHgezeGUfWgZOMm9GQcRchFVmMYDBZOFflxWKHertquY7534S6paiv4bneIIqihBTufdmp9VB0oif9cH0oXuV8rd7LYqrNLZ0qTDiHP66AvJ1cukkugflaouyCT5/VPwEaB39oSiqonJ+m74HKm+UPDYFz9vd5itT9Za9Gbr2qHlTVGWsXF3GmyNpy96M+90G6lpgDmu34sNdmoWlG6YpH84Ty60kmnbVbbQWJWqbRqE2VWDXyqD3q5a4UZgaoNpQnqaDa2RdiPmrOOaoDAOWdHO5sYRi8eY9z2uaHdFKmjWPex3aptObk2RSE25RGgTq8HNVTNGA1nlFJb0HcqX+m23wsrbDJMwe2xqZtMR8B6/OZVCPhD9ymKddVWfBXXkuNbpdlEXgNQ3sXWLGYYqqBCb7RXZFr5nGwIRvNyqYM4LoH1KJdEYogjIFHgZ2tMUTXmzOSrkbucNkq/0o+molhzU4BFWhEat47OmwdK7tV68ak9JQROB0oT9cvZuALdr/lbF5WTgLsjPcj1AgQqvXhI1QejvfpxA6A2VsKnqVSvJwFGgW+9OELVUFDt7PziSbQ1I10f/DGLlMaaTGt+f7TnOkiGQZfuFYG+mYQdkSXVmydgCnaed2085KWnCq/aPZiE57XxqqgloQhrgquyaiKrVTgcEAW+IK8osIEgy7SvKr+izzMfXo2q7NGL4wyTe/kk2BZbvtQlyo9DskN6zMce9/ypkw7I9wCGS1CMqAEfd5NAUgUcszuhcCrlrqmBVZSH+KZnrgPtbAREgQ8XtUBVW9BF6Y9JNHbF1pPDnhXX2hFm9cHlFof1KYufsrdEBJKDQKkXbzYm/ajL9FoR1Cpytkz7DASmx28zuvcjKA3geKnh2xO8oFL6/NGoRkjwCF/NsxeNyc3a6l++F6Vs0Y+jzKOrH42o5zrwO9nUjxh4s3uyL47EkEq/wrT1a4msqqBLDa/MoXBq1batSxlBa+Pb+nIwCq/WSW+oD+4Nk6A00fyVD3TyujZr7w7giCUaUmbxsz7OC7bAt2vh2RwqAawik2UdlQqbe2F1WNrLBt1Sw5sXYxI4bZIy7sQoojaEHQJHO7uhclWwNNb8v260klu1yZdsxBg7Zu/rx3Gmzr/WCxgF/mjM6SXAC7xGe+5lmsBzaKJsj26p4Z05tPLjDtByEAh1VeCLsL8oPU43R4F2Wazgp5MXrRn5Xdoq6icRG4xUi/qUCZz+V4AdsUz70VEiAqsdVlZpNj+Hab3swAK+mpeKghHUIv03/wAYjeMjqq/lm23NYqbX9YFvNzuiHk8DfQSKd93O9gKm8GuD8NxZIGAOHMWeVr9A13+WmD5gqEIO0vs+hOymQ6HI7dryR+cCADN5SQwR5ncxUEL8XVkWGkt3LyqfQ5PZIvQfdVeBgTlyHGda0qUaZz5XMF+ifH/oGKDkTo1DieIC3y7Z6vBCxusi8DLtt98HmPrRkVmCBjT+hzm8cv5JTDXv9L2pwnQOAsbN94eNAe+tJl99F4GAOQj8e7+ANxkZhkN8txKSaLZecYCD8y1KVCc1avNf40CBmO3HSy7mwuLXGHhHaBxvnSQG1oPStfpIbDaYHuat6ex34eDskRLlaRbHTR6Ri4KM1oZRCvz94DE0dHpbgYA1XdXlq51UF9z1n88dBkXhc5zHVZSojwK/SkGTyfpyHPa3+m1j6PCKylj7LKyKsxnukh2HJ1MAxVRhDdJSwwe6rV8r/WgAu6hcaviB/rjouRg4eEIzwpjLWcA0j/gzY2ihm4zZ2sBRIlg7zo7xpj4bz7UNSk4Dy7RvFbmCLNMr0o9GT6go8B39eY1F6c/MGDQn/IZ3ZJSxcxPsOjmLsF+e0O2bxJArR9kbQLkBmAE6fLcfg+eEGeDrNY7CR4DnQzGqDZcAVfYy1EmPYCjwDf15SV/NWyRNYGD6JxI8N90YYabLyq66YTApXOFJT8qgDnJ9bC8IqPaE2faxyGo98ToPfL1kxrqZkWQccJCCXO8KY/3tqHZtvOCnM5gFvThGnq9AO7tqZcYgpVdLjGbjbtmdEUaqitUQQSXTpCddBbled5sc0NuaxaFp7XKFIzCdDrxdgXGqy++u8KFxPO+ODCeJUOVv3WDn8wyoKPB7a8JQNWHU9LONwIQ5DilsodiLrQavDyMMVJuoUS/Jczxn0JOnp1SX4bfcXkHIe91bLN786bgnUuDtghqMvFJ4gY9/33a27TlCXheGn+oRzG3wd/T5+iLo5d5IYmGGQq/N4yrr4PakhHHsiLrSfS/VG2Ofz6Ct6Z8oM5uAbzmvFtaiXZKJMzC7+PVuCfB2fRPOM8cmvXjKOTsDBEZVc9aXHN/BBHjeI8+X24qyVbKDlzkeKbTaxOIZe78HJQz7HVWIttz98LXpM2hsYpgP7iQhmO9kmR2+22OffFNCbJd7LdPiw8jv03dhT05QtaXsuWA0i3nnxkeeazHhY21jjkkKo1bpddpm1ZkSJnGVsMyqRzylz5k/g9a08nnbJgBTg6oh3VJuCPyr1B/UXeDt6qf74YPvdhs3y/ei+goFfoLRj4YszxB5uZhN23AXhua4pLTr59jetmczxxCB9lhsc6ueSPNuhtKtA90f264KkIckesdCu52BLTXwk5KRE3zRMA5qkKas91x3pATVUAAo8AlGaDdJ8h36cm3XtKw5Nqk8LjYbq39FXawyZTaSARxnqJcG4XjuDNr7gEyb5sA85Zx3cnSTo8qv8YUT3rKAytVlD6Tx8Rzb67YdpcjvvTTg403l1d5APSvK9xr5oYtiWNvkjE/Gfv0sCvx118F1kpAR2lAW5vdGszip3NqbARkGw1peDsFFgmJI91O9HQRwdrFqA3xEjbbhgcLHs1ZMs5aMIW/4uPHmeD4UpVvzvAtBrbpgQa4P+3kzqOlLTB/rRmkPgS+i3XFloHl7+PvPeTMiVSAMg3GzZ4xvmAKVsR7s/KR0a2/4TFVqg2p0YTVnbFJYIvTPuimjyG/ZNfqGfw3sPE2BX16oalPF7KNRusKbUc0N8PxSDRmDFaTXcAV6SZz8vKPAn5W+YMpBcKLA6TPX4VAFMQ2VsCrWAjzfQM6Va/OBHxfiwKk4Hh9KTyh3fWNGUQ1Ti6TH3Se8oToE+X5xY6LETDOZLpnl2v1Pj18cugnsLCF9LhkkYTlo+Km+6Uej0hcXezMlpSP47pihCfsJ5AYAjv4CF4bW4vNvCk94Q5jV/s//GvBxXTonw+j+Viu/OxP5km3LZ/RCMLeH32ovBqp2lCV5xyKrZcxp/1lTjPxBOzvpJiexOZh+NsvaVUi7Cvm93bNzHQSky2fbEZYiP4isMVxcWPwUxpvGMDhqFhf9aJom1eVjrvVmQEcahFPCat2EKMchGy5BB042rVdLdx9Ak1bPTQb8krKJnjM+3Q79sOMUeWMMdum9Xwfz6zvVAar+DGeeve8y4gj82lla+UW1bZc/ponqOMPsbUeM/FQrivWSq1EeGVWQUQXqFZHeCit0cRSoOtIrIf1PvlFqNUogvRDRd6F6VmSn7cO1HrswdvWXOukstDsGXO7uZ+QPod0q/2J24uTtaC992IPhikSz+bv99/2gjrC3PMNQUHWzOmMk4OOhFNYegTrjdWVo+K5f4K6Q0xy3yOtFLEj0D9F/VSA2W83izHePq58PGUevENEqEbX+qrbFrC/D4whTGixQF0r3XpUaWCtL1e2hlbyKQm95gOcTz+vllvSmO5kmddLzOvddSay3ZvTho/9D/rYmU5I8NrdDv8kN4Q3VEeDHRXxfObjc/honWvlpp8V+OKI5rSijwJ/AyHQZ6b9rglpFosq0/kh6yTWhnc360dn2tt8FmnaMNcOsDyNuEhDmNUSgDpTVp0pFpmxSL0P/EAGejwKnU3qC7j9RbDZPXfWc5INmDaq0IOyHrrnTY2ogx20oq0dZwdVI8Nho5dep3nCZBwMf1/SNqXd1J8eJYTBm6oK+HBPE+klEgb9eDHbRTYG/I6uDtWh5LtclrUeav/I5klHmntz6nH1siICEub23KWXliZr8FQvt478/hu6Rj2gcz4p9v85tl3H0ChKtHFUqE60K0V75yp8sT9WiRM2+OAnKjdW/Qjs7T4G8UTEwnPBdlgD61bf1okdsiJNPpHitu3OCykEBsTkr3dobKgr8GMgI8jY5J2riKfTtt9Du/JUvsW778lhry8ggjgjDG/d3jSjLPnrmv1qN40VhCtpvc0qM5qyglzvDYDb7aCx/yBNP/LLAmT6kH03fOB/2kYaK44GPKz7lccfpJkRM/BommSZXz5KOnCJvTOSKVvGsSaMOx2LLV7vJRL74zbbaevGRLs8JfrpPeN9UJ2pPjlwVJGzIXqDWnG4/uWYfrXY2f5gB930erHTFiSc+mIZ7A15xwc8LcFd364UTpSVC/CXbcIr883dId1v7TILq3G3fIUGtIDYEzrTfJDpSmkLjeF0+ySojfaBE4whbcpKwPafZe1/gHPluv98k+vOmJbkG+Hk9RkbAEifGXq2T3rUSGHlT9XZsvQeCEZttvPMe2ZTwYak0BA2MfTFfqg+7Dt4AgcYRNuWiQDOiJLjtNI53h09iZUftrAnK1KYBH6cWn781ZBT5arEq1P1UL2AUe2kTcGStViVuvZYYLTyVLYJe7hOc910JcQMLwrLuoBbDACje2wbhWWS1rDQsnSqoXOZ8rAS53pdAxmyCWGeJKfA7GJUhTu5GKCoXATMh+yzwzz5nQuHGJaysP8PL/c19188qU7BQzdTAL5rnqI2X7+bs/Pug6iOR/HBUOTUUY6eWH5oSnUNQ22OxVNvW2K1h3Vto9+H+X/QkjLC1fK9QPzrKtOYItlnmvxx4q6+VgXgRm23S+7a3wMh3vFcNcpkmwc7tp2Qsl8jsFn2520Gxl6BOUW3FJs94hIKEvTVftehFJjY7lSNYptoo8PPSCjbgRa7JGEbZTWBU9hJlKFc8b5gElVRv167XyPpRnGxciqwOkIlXj4lwywr1DmF1v5iiihX7RqkLdtHXqgF8Xulpp+NF5Qm+e0Je18HsorMV7HwFc/eo1aEXpegrJpLqnbEn4PZj7OrV1g7qIwEg7G6wQtt0vqXJT2GVIv0dQVWzKsvHKwr8tTknyLdnmzJy2/Un3PW1TVqVHW1kFSYz3DE/C2zHd8cETdyUKCPVgrC9IRLuPDrhTrlUb9hkfmUfUI238TET+HYruZjIm5LfRSCxebwFytnKnczS+ch+bJ0uvifUjueNidtVS8pGKkDY3xCJCi92+FN+GnvsGHwa8EEvc23CjZE/bl0vHSRC1ZPjtbME7mx0WpIhHCYAQW3z3pdp7RFAu6TdqgVlbgoQLmiwgEVmK+I5l2mSNdbey9kkAWVkeT3OyJj4Aqp7xspT5GUt75exXl7shdUop0t+aFZ475siDVnl2QxRVEpTegFk4tV8d0zar1pQus+OG4bdZ9vG5IqD9GJESH7mC68J+HXR3NfdrMWN0pbGm7GvhMiLz5XBeoDnkxdUKltau3XByUY2WOCV3vsLIAjtIVazaYzZdMIVXZpnck2+GpUlvdjRZY63eY1B/erXiLziEiLMMvHEQvKvyJtARZpyopXfG3sC7K8uNvuMi0uQ26paHmbsSYALrpiPpCrSxxHuqL9A6ftQbA5ns0LXq7nXIQTUud5uIty6uCw0kecva89JNKeSa40XVBKji9dFnQhD1gKpMz6GTWlIK1vsPjmuChAuqTsjCdtYZA2sMOaoI4G3QLQbKMKOkT9meq+cJUBevmqDMhoL5oZwcVluNghyy8fFPbHPQRJjyNCFzgoSbqnJqkYrkwvYgOsOvD+hMDQJfu65mpc7Koj8+gMFoRn8dAd33SJwxryrha5I407B5blWvenDCeGa9uhck4P8FRZYGwx+XX9GCfBj7Ao/1aejAgS1+pwGPz0Y+9ILqjGJ27gDUZAdf7qxL/AoD9L6WNktBuEcl8S77WeYeILxtPgtwK/LsdpidEy9Gq5F6e97r8olqJozFtWulAcxFyYvL6UlQxu8ItQJcOmKA88b8A5gkdVv9FgTDqoXoUb+rNQl40VQVKEQ4PfpReGEHxGG7r9dHYxD/mkFZWhDgdPPBUsvnvMR4zJgfRmlwJ+vmIuRYi9DO6WbBFyEFK29gI+HuUwKzK6UKwUDb81x4jWtHEdSvYkdJK4AIC9bWozomsUVzj3jvTYtsUKAS5rvhXaH4Qrf9Vut0STcVMTf6lPmMrzVlheCMh2w1hfDrtc4PqO/38M6VDH7aI1tAcbYESZfbQWsgXurn+rNxK3RiazONkkIRxkf8PFk4tTMdlo8N/DrUr6Kf78YIVNPAEaBv7QlDFlrzOI+thfMB0s/mnNBx15gZMMBSHLenoF+YtQs7tutjKuQjR+RkT8yW/vDlwDb4uyLJZ30vFMVoK/dIPfiGIQznPNWzLMmREE2EiwaYzXI9cnEFcinxa3KJeEsXSg1CK/GtpzPsEbjOnr2ytQrAexNl8gKT1K9W8fNCHJlqSYxRhNHgDHxpF58KY71Gwnytrwmvm1nIjK2JN89d6eYu4wAIGsd/Nh8Btdka38C7N50n0mOZcauDHR/R19guyFWV76k580Ha2bKd9yFUWRualEfqx96OZojt6nCEWrBXUgnSsTmfDcGMwnoC/7hwZQ/X45ni7A/9oIa+txQGSaf745w3q/cDbWpir5Cm3enb5ZG/oR29tFN7tsxSjjMUAkyVqsJDJZdWBzYtgvkmJqw9S0iyBVAhkzrD5oP1hOzD94AgdFf4KgJYVJ9vhvSBU3K6+YGLnNJc8oC3V8OYiyerxYB9pLdRB1XSr0x/zWgqwH1aFmuPDRwVJoM9U20FhTjNTRyjZ5uckLhp3qvR1QvLkMGShTvdLgnY7XUmgxu4wQ5rs3rRwmy3pSkGwOhPcyHSye97D5ZGMsJN6Ms7C+hPEiEa7/oGu8jMeE0V1ZAur/yhbHYcVrANvjJsRX0cl+icQhyOyy2VB9MXAl4eyWizntIhO7XCq1m8NNt9P5uh8EbIiG3IR0EMd6MxpZgqJyihARYsg348kx02qOrMhtR8vw1cExdoXG8LzGbGP9yR20Jtb3sZ4z2fpy/8r2loITjfDXtYy2yeqZ+3N0NnGVmfKn20swQzgIjG8RJinkpsob5gL9E+ln3VwjjaKpINf3obnS3k+SHdpUg78Ex17mxMtb8vl8Zag/ECZIC+/23lS8ALVNPgmZiScW+qzFaBLjco6fc9UfuB5e/8rXSYoxD14eSzYfgx0bDMDjmaIJBAnEd0kpQqT4bO5KZvzuiiCwB9pm3E0GCKEjiy9SVMq3f8LVGV282ot8y5a4FpNQbyx9HBwkJeg1WNUZcyA/dfqNsielHQ84I5+nKSILzXqr3+zGxYoMSgXv6caqgoABf+x21Ur1H39wrNwmSjUuJMewHmJ/qrfRkYcxhe1n+1ZRpg7HdjIrKaqz/6dtywn3sOdp+dPWjEyP5afsDq7S4hDLGGWtNqJxXG00C3C6dZ7ZrfgaQ0mjNPmacF57qSej63Wrei0dBqneJrrs/5j6kFlMC3Z+ZqGB2fQIs0D6SCoiZuQI2U0eqtm3mNgDXeWXR7qlq20wDLND9cc/BJhjVXrUY10yxb0fBMJhzDd5AjjlQE0ZNP4cPM/HjWxx2y8G95JHUikI1ziSOD3pOHDkiyKWp4qPMHAHooZrFK9b7St5lscwNYaLLO/37BTvfyhL9Rg7UmrI18vSPpzEuaYknnScEWPsHvqZ8ZaxFFtVNg33V2URXfTJ/wNQU0wD7sZxVSDDqy0iqOv74X+7bsXrxtYFghAN1Y3SDKvJknhHpfcEl5jWXIM7ME8BFJTLSGnJNLjoXiSJHpXLXgP79/b6/9mCUYNRsVaKmxS/sm7EpQ32TezPGhQYylGt0jfwj86S9mX5MCO4VceAzGG+Z+MmGFcYrlO3QhLrJ6TDI+O64SRkRnMotptgcf+awO/b9q6ZZK8q40COKYEM7ux7GuK5plXrgE5llMl+CmpknoYus6EhZUXEx0Q1gmAL/2m8SYCamVOz7hkjHMUyCbHWoWVz3ZfZ6920HSrkQqcSVYOcHxonKZDjhfym4gJs6h8iyQj4R4KIyLdXH3NDBuM+c7JSIzQGSmSs/nui1cRYI687scp9cqneT9mnyhlXUnRJOVJMxnnfebxLD0nh0sCLA/vavnyJSxh1fpvUJmzXGW4ppjRUK/GMSZCZGY+mIYpNFcOrImGHwoLLafQicKXMXTOFEtagiMWZTVzJNOOHvAnA/KHtFHPnYZ2I1Vv82ZVYDYza3FT7rP54EmWLfrf3ad1wZwakBVheS/97nyDLy59yT9xecqCZTxeaJaeyS5gE3JlVV/E0S2tM2s2fPEUHObjZuD3+C+kvVtssxeZfhGK5Aqdm6Ff/rPvLM3iCO1bLA4yAeLr13x5ZPA8pdu1KRNVg1dM4K2vw9qvRmEmRzImdl1cUgODkJmKsO/b9eJr0iz+SpZYGzM4Gbl6UYHczSTa7FqYbxYbHeCfh4ngSayBrT9stelBKcBgmU+rzVSS+GwUk907LKA65Gaks6mCTV+2TPDcYGvQ5RwOrfUaW3oF5sGFx2hhbearT6CRQ3T/yVr2qZaqyx6Q/xsT3a7KVSNKZo4S9F1qk6VdG5SlCkd7Tyu0mgKQ9tZI/XQjqBqisnq6d5zskbKLAaZhIvDJxZ2fH0MOkV2UdvAEMEub4Khf8hga+ZeN5xw37ZjVECVTPGCo/ud9SvYkETCbDJFZryacJYb8L80zShDN1QCYtO9pthr5qO0Ivv9oAW5EkKnQV0UVDtsjyN5whOL0NWupiknd0VQtbVBLkeAq+YFB+fBJrKaG3+7j5bDDQJXGqXnZEhxDK2LS2fEmZeQ0s+axwzjC1V0S22WAbh1dRrvUATx3/s2hOqDkSlGh/Zr6NXtrrgzuXNpA8zt9HObhVX/ScJcp0EXeucyg+9F2x68fXIQRKpAyJsEtpKINb1nHk19wZkgUXC3JX0JNP6xLddH4ExvlwMmYbB9QrYSTCzJd+9FFssVwU4X3iQ48Ot8lJHcNUr7KUy0N/UVwQfTcwc+fQ6RDse46dNt95rI9N64Gkw3jXL/i3rIM1NLThfoC8uKSikuYCAH5jspMqB0amiUy9Y/7m2lwjjEetSqyE2ZzNbzoVNqvdrXQ+dCXUviIbV+BIQOxzUaCP2pRUzS/K8SzOiYKyg/x1p25XImuYCJ3COqar1YAHdCfZAlt8PfNrMvln1Kg6nl7lCe9rouXaWAGPGy7LItPq3MzUbYFfwvNOW9cp9YFWNaj7ghKoNfGnGzJZa+eNDcLZLJOPs890ZfCIEzmn7d+gu0H1JT5jra+FGw4pu5oqscYPzdjgABL1KixHB4cZaOxc4U6P5QNXBcgcYsj2YgAt9ariQ+tLOdxcW/+hMGYYREmSdXYEzmztyLnDGm8b0s2sBdbWPVTt6CIQFjtGIpp+5Mq23NUqCUVOorfE8KHcd+FR8PEzIu2Cm7tUKCiUQJikoROH0mLsNjVHgH1jv3Xmn2TX76Eytdj50Mm1c97HvQ4l6FxXpaHMoSiA0CCf8+tKS/NCvva9w9KdkvWat2A/mTgPNzG2l+pSmid/I2cKDgienPgH3obd5OhiNhXJUgaH1lzarQjDaP1QgTA7dfOgO+suMfWgvEVcLD0ocnLg/l59IHQKhl7acpsm0IW6eYv1g5bZoljJtNLcb8MkwtVuZdsw2Bo9S2wYr54P6tM6NU1CYrsyMRqqPdRcdRxfCIti1atvNB8/UbE/Yfnbfra6tb9IQRi29tnQ1X7nr4973TgIRjMpOlv/Xx3z4oqgQY0pvif3Wato0f6gv4sjgznLaMtVb60iWmU0cv5XkshdZ03z4IssYY4rL362WBVYZAiPbZif6mv+r8d8brO3ZvE6qX02Mlo6h1osfpYYdU3EBgZDl3M5yGrubtSV3nx2CU8XF8Pv+nE/HF0949nPUr9WTCIxsdnEpZuFImvvVWOWuFVawFm3Z4LEROMepNHQ3+WHK2IcDOFa3dmFF6sEwpmlx5bRmbknjTZ93cZ9GMOrGiM3fg8m+mUpDZlbzzrR19HqO9WCpfjK35VRaiyyDw2oCoVJzs4VC6joIC6ehO+NNt/ypqLPqONwUsFs1f+W3Y6fRkLndyLRp3cfhrziWTDvSi71U9N5HD0bq2wX7yCsQUh3tLOxGYhwzDUF/RrBeYXvbztfKb9PoyNxp5YcxbCBaQJ1bybT5XdPobNbWvASCZ6HwIJNKKA0H08yM1ngzVSI6wakHJ2tYpUwbptGScjf8QNXBVpvkd0fH8wiMNFuNJfRPfhjinA//QHBqwZjlj8Fk09EzMSZfnX50v/17qSbZJMoNNUXT1u8tcwyimSCd9GF3aF2NY5gA5aGh3E1mWjuNlsz09gkZq+gn1KFS0pA/f+sw5hVTkjCCy0L81dcnKsFpAMc5O/+D5lYzjZb+je+eU7/XnQmdrvac67qyJ4ExJ50TM5gmso4bVOuejOD9zK6SvbazaLpt8mKRNa91Tesg/T3sQ88/Y9B76SO11IH7Amj0EPAkDOHFuslDaWQsIDg1JMpq90S5G6bRlEwbw3xvii32o1hnIMc0mDNQoF2RLT8cr6JLRJGrpyEwwmaaN2AK04x3XYQ/m+ZYwdocneESlkVGpGN52jSaMtm2QvuSc/TaE3o84biOb0tY1t6XGCczu6XtIQvrQr1hmH2z6t24pz0lzBHfPaWvVngvz+Ao0HaDZ7VrjqbtivHpCe77GqvuLCG3cZLwfgkeeyP/+m+07UPcaqkIjN/9Ws+8TK0kDMLcafSjW6nFGg4A3r98y8Z1bLwZ/m0aXUn18ZF7QLs7pVymC6W7QfuR0+nbB+fWSgRG6Psy9zr6lQATMQhgksm2C/N72wKrBKtOlMa6H5S78apZdGV6aI38u43bVS1kjFSAq1xWC+rpmojnXV9I3+ONFmu7ESgd9+9hFBEkjGLWkckeu+MIVs2JEiES3rNoy9zpfjSqU+8MnV6UcZPuhO0C7UOE9vziWbQVeUU3NoQP5OPNow+LnJYMk4XdGgZ3O7YBwavWoousi5nR0XmhxHev6bqo2mxw0Ccvq7IYqZtY4FyfMYu+bE/pRuC84R7rBDKNWX8ktO8aLDoeNwX27NyF5D9n0Zi53Ur1Y9SkyjH5HbDCNdqvyhMiJ/zP/3IWjfir9OCEFLS1ZJ5U2z70j9aZI8wh0zXWOD7OojOTr97ka1jneSg2OY/jEk4c7Tk5az8T481osuln0Zl8OOSgXTORJRMlcM7r37e4D0kl9VOed55FZ+ZWa7wZrKw26XPbCOncoQHUEz93Vlbr/YBZdMpbVwY5XcLylhiJiTVGWRiNYj8WrnyCl5OCMf/TSYxpLK2ZH1rjTT9vs+e6J6XcoAelGz/W81TbwUzvZtHanjAL3ULgvOcaa0WHwEzGmn52YdK61aIRvIYoGPW/GsV+sLQaWifrBeZa+65A98/c5eo+7DeIoxzPZZDrl3edSvPBF0HiBW4EznfTwYGO7BMTa6ZqfPxy68gQwasPx6vFxfjvjqU3C7Mx8s8876l4bw8WcDqbTXeUsHDvCZwHnnc6Zyy9BbJB9gTOzBYWXMZyzrxt2iXutru1p2ytS6rcjXQPY82Ndr7N38eyg+Ug4Ti2GnfiG++rld/MjWYs3buIoqkSF3biKvt1x0tMDHhluuvDuaLEaOOeq9sQZns/XGNptePpzvTQB728hPp2rDKZAyR0kZCNvj6rymSE+jYFvTybHrqxdBcTaddUbrD3TCVvSEVUEbkMZrxiP65THpqsGub7tRmpFk2Isu7roNhP9A/jTfdd8NNztB+y1GT1kHiIgGwzWKJuApec7Ci/tcFPL6b7fjztGQhGBplBruX8YgoBy2y9PG0Xd2GU4DVCgoZYjV3umTCMf5R+dIu6F3uMbhtOBwg8hz3mDOC4DaO7TW7UbX33R41nwm5u3yEEzjs8m7AMx8JqZdop6xgMEAh3aEBUZgzjTb+6u4b9o80xhHWI2pVSlryq6Y0/+CPZ+zD0Hx3Pu5p+9eOZsUsIO9wv6xCco810xt/b6t8h/+S+Anv0vddY2N14JmS264T2yexjSvPclFiNvbHiwBH+jnrDVTfMEtpns303ngnx/EdCj78i/+RY/hhOZZmvR0UJeGVouEqAO3zv4crdxIyBjQ7Q9bQ728dXpsFvtFqVy5jMTYJWq/obcc45zXUVi8cgvd9+HQQ7hM29uX7OyHJhx675TN8wnWDu2RVrXbJjz2TIJPIyLrP8MSZ87HbCVqXF7IhVpnru/fMhK+Fz94PLMvIwmUUGgnZuZrC/e5eGApYZk+rzeq9dZ0YJbndbLS4ZdAiam51qO9wS4SCT1ZttkVN+sjtjZQ7jdCRKudn+9Hcvv8XzzRgtbapxCWzi7gtZhnTmP6Z6bfH/CZH+5LoJ4xmUmdYpd6P8cIwU1AmbzVZTUHhwm0NtmIDM8Qcvu2CryY/fbCMG4hrlbvyl8QxKfYE9/LXUai00YErjH/fSjZ9b/DmmhygY8z/djzLrlHyg51XLms3KzyxZH2drwvKD3ZtQJuhKlLKDk7VdJu3Xj/mxqzzNDh2zjuVcoW4E1ohujbRZ5szCbF++zSPC3zx3JwV/WSt/YNqFlbneHa3ajmYffehQxHxmscr9Vq+oVOv1WCmdZjd68Wn6suiPfNlQHjX56J9n2ll4U90t8FewVSk8KIazeIqJEdMsjG7GruUSYBGFrS7rRek/zPX+WKZlYfXmh970czDejMabyeRrNPvoQzttoizb4RnVGa1BjMBr3HtDuwOJTl/K2dv0szfXOuadf4tepP4pJyPQ3hol17SuYwBgGdWxb6TAv0o3PsCTQMVaT2JcvCyt7ljm9a6Hmu/7Typ34xcC394p8G9fzR8x/9NumB52K8N6k9mLUJDnuPRO+XzsVO23VNs6YFlE0cyuFwMQljNCFB5UJggmX61XTwGuxcKAbxT4Z8PZADhGay1GxFAefeZUxnam6bb/4BeCXl4p8F8K/E+1va74u0yZZNnv8W7vsFznNFiMtivrxekNLmrhosAdcwGgdpv/VGmL4eAUo3YMeZyxu31XR5Cu4qwIuB6/VFCyKGuOgVCAbU38vIYjGL6UjJoKBMzLQuv47n0TqBH8mhM19jUx/RwtDt1UZmdltTeabnvlbpQY8xdmBLm+Ld39pMD/KPBvCvxHN3mTafdS/fYHYvMh0n93N2gZu7FjU2lPs44z7yTzZeFBTkZeGAuBEO+8o805/XoEs9+0iLeQibs0si9aEWUOwa4TpZtUsc22vXQqazrz5ftkpvV9m/w7AxrN+1U7uiFYa9Lc00HIzE1e9Zy3IQrBb8z2vR/5yOdZWe1UtRXxSxZPCcGsnx+gwdizVbWdEr12ENvN4ShwOWiucUtfYGm26spCceHVRQi85O5i5l6wxl+V/L1pRynAF0dIsBdWkj+3yt3xUPUkw/adY4cg+FHbhVJWyNydqdjPqepNW8rmEPw6UpqrDUy+JrOvXh0x0jMuRxAM5t5dDYRCRr+lqWOQYQAn5aFh8/ek2I/qB7s55Cwkw/kHHZh99I8IQG9pwdiaNj/N0m7VC7ajQ+7TCQK2dBiPhRH7LK3u7OTv7UMIRD042b4JA98+zXb9NHbGUNFELKR5HkFR8oURpMxAyPimvUu5mxO99tfOAXkvqbWR/qci62xlddPURNLmZ5eoSFD86PwF2wdLOEGWdq/aHle9FK2xArNMQjdGNrrtgly/mGu9euA0ssNqPYLCBVYGDTjFcvSCKL44n4DkJGCl2TTeXKT6rAY+KV3Ys/lggiTTULFUwjH6JN+9NZwNAlMXQpOdk2Dnd9Ov4SqOH+vYq4omQdPIGrMlnCQLrX/3wQSmERKWG+3IhnyB+W7g8BHpInG5LhMJGmrW6yQcpnfv9govITB1xcqWTRTGb7wsjJ6rFRSdNkKVoGmQnbWE42Rp9frRQ5ZHDLYWy+qjmbja3tuLkz8pFSXyykoQNeLlh6nDeM5jmqXRSfXzxs/t9QSoAQTvMnprPTKJcTbf9dzLo6daByOCyOJuR5aTcKIsze7s1M9tZ0anE6CaLVq22YtsSrF5ttB7bmV8/rnNTkW2b7p4fteYECU0EhsBnbIy2xf92d5YdZWQADVCgsqztdUYhPrWXXOADwuj7Rzjv1+fXhQnk4Ygu0zLr5f9h0WrveU8JkIJh+JjbbYvWvueVoYW3PLCAxkuvxjr17Fqe1Jtp6t8ODFppLWJssyeep1WPpKgquknMqdL/dgQNtGq2Ahp1reiBiL/5A4QCG5h366UloFGksdObF69rKx+LPsCPyakovz+H8ydY3wIKkmVb6EJv01cjtbzrf8ZsvVBF0bnwK1noyNjxaEVK89E1t18a7Mby2mJ5f+Lf+qRqugWlX5KGetwOV2WWq/cndK18RenE7CGStiZk+KzvWpQCZw7s6+By9iMjldzoyPCo/4sd86Zhsv5sjI7+eG07ispMTrjCFxDBewhcLHBjvJXw/PuzXcDV1lko69ueF/I1f4IPdViQeRyxL4V3m2y1quPE8Bm95OoaOeG/mPSzp44aWQRcbIr64hy/s08Q7aVyymz2PRmH1OC16HVohHIXCW4onjvh/1tCvj4NP0cuMbs1Ddo2bxuYQRl4qqWw7icswnGm2O4WBSpAgLajzsrWHsxVv0lfde/vnMVd5BuH3iYSqY8BGn5akZeZepcjpr5r+HMDa+7oQwS2NzUos2qpk4T3/UfAuf6fCut44Bb8eJ8dU5bqGMtImjzsDDYyOW0WendG8P/076XQDeAkZ3eyxhePX/+Nz/L8kNro1yeWBBKUDdyeU8ZlwM3X6Zd8zWBswAEOlcBaw7WBq/NcpfSZtMfYP45sPYSVr2ISqcyLT73cjsQ1Ln4LJPT+a1rbfV3jLV3wYX2XfL7oeWq0vCezjpjdbc2SNnFK5wKi5/jQb/zXfYJHLa9n2Y5/ekU/KeVTPCY/apgGi6tsTprs5dp5/C/96UXe6DEF9GwMqwGk5F3CFOPccykNv2cD7L4GqzMYTxb+rdYkGIsaXvURXYb6/yE90Tg40+QZ6a84EZtVFAKMZdjGz/e/GsUOA+bvjfNiLqA0JA9I1UnK9/sbthHy8f8ePnhZPYxWhk9Owy3VNOc3yPhp2JvEKGgMCevBHFYzt53JcY58l9dGWjS9D8TTh9KakKzILS37Jdr5oXJ10liXEy+Jkt9YLpVetYL8opz59EnlNSj880G2DOQ5fiZfw1G/tPGr3UDrDkLSOipHyWNkFYe63lnP+E1Dfl94nkPB5tvRitrYCreSLX1hxnGmTdrA6Gm338bulstVrD0z8bsRt14dnaQVD+H/mPcY7FbY5XQlQPHrYlal2olVmPLOlpel/fkeTflbn7v45hGeyTPJ0GVMGn2SXUIVSVbb9Y9FmKWCXBClvveMHiIf0wrY70/JYS2hkvQi9EWVGnAlMKLvclzs4IpRdZNP3o8+HVWes+QQ5G98GQ133iLBgQXGLmwGaGsdGMfFOyuo9/GkJllGQFHNN3817xVv6yL9OECEBpzEqgXIx0YbcboTZnLOE5YmP86aRzf/1Cxn19npfX0qnxyVxurLtvzhIyc7DGeUNjU0fFiTDMVC8VFT1fu5pWzcrvJa72qhN5cJRzIUU9OukjSjLLio5PxsVnXrqz/Od0e/k03eRKbF9X2+M2nW5s9NIPKGyOts2R+q92bDs2atrX6oDSE2r5X9K0b8ypbMIV9IIHE0um3MbpvviPOM8k/On0poX8F/kMldBDo+r4CdRGkOjR2qYKNT/s199zyxynI9au/8ode/Ci0r/LDbLyZfs7y0FsbHS6PDkW2Bqfgb1o9KGX2VKO8Wi1e6+hDqM5Z8IDjpl/0mdkHoAVzYJCs9X7Wslq33mtfdrKdOWTG6+e4SHCco4QOCvYXsA1m1SYzf+VnuW/SpMkqv2Sobyee90qB/y8+/81f+Zt29qoXPwmcu595wMEHq7bHA6bvKxUDNbUjC44W8bhx0u7CHrfPHVXknZeo//fL7rhk1id4qxIcUg8afoACJ8dW0cJCMYIQq8Ng9nFc1m0TXLO6i8mc/0NP5rgpMEItxg1TwFWBKSc9rTul7bFiN5lVR7twFeR/h3nucdbrJvt1vUl2SBnlKcP8lfs0tdmyVhnGDg67YISvSaU2tf/0r8tUs+n5EFxS7td0i6v3PpAUL9kYvdVuMP81GW+OCeO8LVK5fBNZ8x6nwp68D6B9IClqOsD60Jt8HRdb/m77VbdHClczXGIyYMW/xhRBvfM2+F/xd1UXwoYDwL1CG1o5D9gHkqIp483RX/lz42LfkVBnCUeqBZcy0x2xmFXZB5JiKmtzUOxPPO9p09vuMnuJRijAlTRrOB2deejgfSApsvrR35Zpdxve93Wx3pejYRJwoXyeFyTcMTTXPpAUYf2ocjdLjPtk50MlZHSi9GquM69b6QI7ef8aU6RlbfTvvOe6SVFksfcmygCGuczSbNnVEgxYyPRv3X0g0/tp2iyBcx/5jy5nH9YgWgescJWE/P+v9bJUYbz3GsaLWG5HqX4x3lxT3vcliLEX0uw55h7smRlrnJXHgwnvFZgwa30w+ZpF1m31pMo6heWg2W5Vp3MJPd7qdSrx3MtJFY3ZGIP5r6Nif1n2zzHx+5B39ivPVl9KuILzpDiSRDKBupQZ2xcQsqS0z0ob/+y66JFI2W7yjGH10XIUmP2KnOC6ymyBu7GUMZvMoanHWnLURRZrbG/tiIfel1nrqMZgD5OQzSoF2hTTnpOtq/qhL3WchlvbR+VYC442z6z+HSNEzWplnv66rdVbQzliJ0OLcRVqOrku6a6huO0c681g8XMilj/GkLs+eZaVqv3+hLBNp/yGeY751xTX7a6hGC6E3tvse6uP0fRz4nkPS3d/XvbPOctl02gxfo0tdD006jZfr1yx1YB9ASmme6fVZvjtYOcvZ8Y1+S7Vqj1mh7kCMG4kAMw1SNU0k2PH0gbThmYfoKEoz0brZ0mMq9/3T4nxmMCt8r1XTZHmqOBgCX9tuATM00x3yUlnHduoluW0aHM7UUNR35NmSfVLsPMXnvcSS+dZ7uuKk9WBkb4S3c9RIMZsLc26VEmPHm6TOq14Wh7LchqMXwhjoCUNxslG781/TYr92TB4Cn76DPVtThgU2V5RmcluwVhnQbpz0ocTe4FdBKRTydmzpvTJPfH4anNbcyNIJdtIgyP0ArVRCH2w3o0f/CzPewx2/jT9vK6yk2mOSd56WXq296KslaDtGO3E2Gv6ceLIEei88WnaF25ZpuosWa5XX1PNKZNXJIogVa6xReMhpjDOoWay0QbLz8n0c5YfLnz3UTt7l2m3SP89xAqqdNdDliraZfRLI6s2Uxsx1oQqzajSmijtCetEWE9Ke1M6iGEHhpwFcpXwlaO9Wk8T2K9Mo5ALaw4rNsBdi9t3dt411QuXNSunuUIm5jCFMAf6EjNZ51jtR4uf0/HK3Vli3F2kk779bMjvc9Tv3Zo+T5hnKc5JhnKTsVrnHcIdRr/A4hRFdsnVqEy16kypxtVRlFbGtdfpJfCeMtmhfJnShcebrSirSUp1Fx8kjkOtNcFaH4+2/BjNfx0/aLw5qbbnJ8m0q9i8F9oPFxkGz/rR6yhjzfq0XVZusbarIFWpFupcHOMSd/a5kMbAiDw43MGxnoe3u/wrpDEyM48F93hsc2efC6UPzM/9z70fG3h8C6WPo4mxfw13/c4jEO7u3HMaAA==;" vertex="1" parent="Yv6gaA2NmNVzVcbL0BUT-64">
          <mxGeometry x="44.35" y="30.420000000000023" width="35" height="35" as="geometry" />
        </mxCell>
        <mxCell id="Yv6gaA2NmNVzVcbL0BUT-33" value="" style="group" vertex="1" connectable="0" parent="1">
          <mxGeometry x="-2177.5" y="-1480" width="100" height="116" as="geometry" />
        </mxCell>
        <mxCell id="Yv6gaA2NmNVzVcbL0BUT-30" value="" style="sketch=0;outlineConnect=0;fontColor=#232F3E;gradientColor=none;fillColor=#232F3D;strokeColor=none;dashed=0;verticalLabelPosition=bottom;verticalAlign=top;align=center;html=1;fontSize=12;fontStyle=0;aspect=fixed;pointerEvents=1;shape=mxgraph.aws4.user;" vertex="1" parent="Yv6gaA2NmNVzVcbL0BUT-33">
          <mxGeometry x="11" width="78" height="78" as="geometry" />
        </mxCell>
        <mxCell id="Yv6gaA2NmNVzVcbL0BUT-32" value="&lt;b&gt;&lt;font style=&quot;font-size: 14px;&quot;&gt;Unauthenticated&lt;/font&gt;&lt;/b&gt;&lt;div&gt;&lt;span style=&quot;background-color: transparent; color: light-dark(rgb(0, 0, 0), rgb(255, 255, 255));&quot;&gt;&lt;b&gt;&lt;font style=&quot;font-size: 14px;&quot;&gt;User&lt;/font&gt;&lt;/b&gt;&lt;/span&gt;&lt;/div&gt;" style="text;html=1;align=center;verticalAlign=middle;whiteSpace=wrap;rounded=0;" vertex="1" parent="Yv6gaA2NmNVzVcbL0BUT-33">
          <mxGeometry y="86" width="100" height="30" as="geometry" />
        </mxCell>
        <mxCell id="Yv6gaA2NmNVzVcbL0BUT-44" value="" style="html=1;verticalLabelPosition=bottom;align=center;labelBackgroundColor=#ffffff;verticalAlign=top;strokeWidth=2;shadow=0;dashed=0;shape=mxgraph.ios7.icons.unlocked;fontFamily=Helvetica;fontSize=11;aspect=fixed;fillStyle=solid;fillColor=#000000;" vertex="1" parent="1">
          <mxGeometry x="-1890" y="-1502" width="32" height="40" as="geometry" />
        </mxCell>
        <mxCell id="Yv6gaA2NmNVzVcbL0BUT-86" style="edgeStyle=orthogonalEdgeStyle;shape=connector;rounded=0;orthogonalLoop=1;jettySize=auto;html=1;strokeColor=default;align=center;verticalAlign=middle;fontFamily=Helvetica;fontSize=11;fontColor=default;labelBackgroundColor=default;endArrow=classic;flowAnimation=1;" edge="1" parent="1" source="Yv6gaA2NmNVzVcbL0BUT-46" target="Yv6gaA2NmNVzVcbL0BUT-29">
          <mxGeometry relative="1" as="geometry" />
        </mxCell>
        <UserObject label="&lt;b&gt;Bearer&lt;/b&gt;&lt;div&gt;&lt;b&gt;Token&lt;/b&gt;&lt;/div&gt;" placeholders="1" name="Variable" id="Yv6gaA2NmNVzVcbL0BUT-46">
          <mxCell style="text;html=1;strokeColor=none;fillColor=none;align=center;verticalAlign=middle;whiteSpace=wrap;overflow=hidden;fontSize=17;" vertex="1" parent="1">
            <mxGeometry x="-1914" y="-1454" width="80" height="47" as="geometry" />
          </mxCell>
        </UserObject>
        <mxCell id="Yv6gaA2NmNVzVcbL0BUT-65" value="" style="html=1;verticalLabelPosition=bottom;align=center;labelBackgroundColor=#ffffff;verticalAlign=top;strokeWidth=2;strokeColor=#000000;shadow=0;dashed=0;shape=mxgraph.ios7.icons.cloud;fontFamily=Helvetica;fontSize=11;fontColor=default;aspect=fixed;" vertex="1" parent="1">
          <mxGeometry x="-1693.05" y="-1340" width="470.55" height="282.04" as="geometry" />
        </mxCell>
        <mxCell id="Yv6gaA2NmNVzVcbL0BUT-49" value="&lt;font style=&quot;font-size: 24px;&quot;&gt;&lt;b style=&quot;&quot;&gt;&lt;i style=&quot;&quot;&gt;API Access&lt;/i&gt;&lt;/b&gt;&lt;/font&gt;" style="text;html=1;align=center;verticalAlign=middle;whiteSpace=wrap;rounded=0;" vertex="1" parent="1">
          <mxGeometry x="-1682.25" y="-1027.96" width="169.5" height="30" as="geometry" />
        </mxCell>
        <mxCell id="Yv6gaA2NmNVzVcbL0BUT-16" value="&lt;b&gt;&lt;font style=&quot;font-size: 17px;&quot;&gt;Centrepoint Authorization&amp;nbsp;&lt;span style=&quot;background-color: transparent; color: light-dark(rgb(0, 0, 0), rgb(255, 255, 255));&quot;&gt;API&lt;/span&gt;&lt;/font&gt;&lt;/b&gt;" style="text;html=1;align=center;verticalAlign=middle;whiteSpace=wrap;rounded=0;" vertex="1" parent="1">
          <mxGeometry x="-2140" y="-1620" width="90" height="30" as="geometry" />
        </mxCell>
        <mxCell id="Yv6gaA2NmNVzVcbL0BUT-67" value="&lt;font style=&quot;font-size: 17px;&quot;&gt;&lt;b&gt;Centrepoint Database&amp;nbsp;&lt;span style=&quot;background-color: transparent; color: light-dark(rgb(0, 0, 0), rgb(255, 255, 255));&quot;&gt;API&lt;/span&gt;&lt;/b&gt;&lt;/font&gt;" style="text;html=1;align=center;verticalAlign=middle;whiteSpace=wrap;rounded=0;" vertex="1" parent="1">
          <mxGeometry x="-1597.77" y="-1057.96" width="280" height="30" as="geometry" />
        </mxCell>
        <mxCell id="Yv6gaA2NmNVzVcbL0BUT-100" style="edgeStyle=orthogonalEdgeStyle;shape=connector;rounded=0;orthogonalLoop=1;jettySize=auto;html=1;strokeColor=default;align=center;verticalAlign=middle;fontFamily=Helvetica;fontSize=11;fontColor=default;labelBackgroundColor=default;endArrow=classic;flowAnimation=1;" edge="1" parent="1" source="Yv6gaA2NmNVzVcbL0BUT-69" target="Yv6gaA2NmNVzVcbL0BUT-95">
          <mxGeometry relative="1" as="geometry">
            <Array as="points">
              <mxPoint x="-1530" y="-1290" />
            </Array>
          </mxGeometry>
        </mxCell>
        <mxCell id="Yv6gaA2NmNVzVcbL0BUT-69" value="&lt;font style=&quot;font-size: 19px;&quot;&gt;&lt;b style=&quot;&quot;&gt;Study&lt;/b&gt;&lt;/font&gt;&lt;div style=&quot;padding-top: 0px; margin-top: 0px; margin-bottom: -15px;&quot;&gt;&lt;font style=&quot;font-size: 19px;&quot;&gt;&lt;b style=&quot;&quot;&gt;Scope&lt;/b&gt;&lt;/font&gt;&lt;/div&gt;" style="strokeWidth=2;html=1;shape=mxgraph.flowchart.database;whiteSpace=wrap;fontFamily=Helvetica;fontSize=11;fontColor=default;labelBackgroundColor=default;spacingBottom=-13;" vertex="1" parent="1">
          <mxGeometry x="-1590" y="-1209.5" width="120" height="120.5" as="geometry" />
        </mxCell>
        <mxCell id="Yv6gaA2NmNVzVcbL0BUT-79" value="&lt;font style=&quot;font-size: 17px;&quot;&gt;&lt;b style=&quot;&quot;&gt;Bearer&lt;/b&gt;&lt;/font&gt;&lt;div&gt;&lt;font style=&quot;font-size: 17px;&quot;&gt;&lt;b style=&quot;&quot;&gt;Request&lt;/b&gt;&lt;/font&gt;&lt;/div&gt;" style="sketch=0;outlineConnect=0;fontColor=#232F3E;gradientColor=none;fillColor=#7AA116;strokeColor=none;dashed=0;verticalLabelPosition=bottom;verticalAlign=top;align=center;html=1;fontSize=12;fontStyle=0;pointerEvents=1;shape=mxgraph.aws4.http_protocol;fontFamily=Helvetica;labelBackgroundColor=#B1DDF0;" vertex="1" parent="1">
          <mxGeometry x="-1917.5" y="-1160" width="87" height="71" as="geometry" />
        </mxCell>
        <mxCell id="Yv6gaA2NmNVzVcbL0BUT-99" style="edgeStyle=orthogonalEdgeStyle;shape=connector;rounded=0;orthogonalLoop=1;jettySize=auto;html=1;strokeColor=default;align=center;verticalAlign=middle;fontFamily=Helvetica;fontSize=11;fontColor=default;labelBackgroundColor=default;endArrow=classic;flowAnimation=1;" edge="1" parent="1" source="Yv6gaA2NmNVzVcbL0BUT-82" target="Yv6gaA2NmNVzVcbL0BUT-95">
          <mxGeometry relative="1" as="geometry">
            <Array as="points">
              <mxPoint x="-1390" y="-1290" />
            </Array>
          </mxGeometry>
        </mxCell>
        <mxCell id="Yv6gaA2NmNVzVcbL0BUT-82" value="&lt;font style=&quot;font-size: 17px;&quot;&gt;&lt;b&gt;Data&lt;/b&gt;&lt;/font&gt;&lt;div style=&quot;margin-bottom: 0px;&quot;&gt;&lt;font style=&quot;font-size: 17px;&quot;&gt;&lt;b&gt;Access&lt;/b&gt;&lt;/font&gt;&lt;/div&gt;&lt;div&gt;&lt;font style=&quot;font-size: 17px;&quot;&gt;&lt;b&gt;Scope&lt;/b&gt;&lt;/font&gt;&lt;/div&gt;" style="strokeWidth=2;html=1;shape=mxgraph.flowchart.database;whiteSpace=wrap;fontFamily=Helvetica;fontSize=11;fontColor=default;labelBackgroundColor=default;spacingBottom=-28;" vertex="1" parent="1">
          <mxGeometry x="-1450" y="-1209.5" width="120" height="120.5" as="geometry" />
        </mxCell>
        <mxCell id="Yv6gaA2NmNVzVcbL0BUT-83" value="" style="group" vertex="1" connectable="0" parent="1">
          <mxGeometry x="-1924" y="-1320" width="100" height="118" as="geometry" />
        </mxCell>
        <mxCell id="Yv6gaA2NmNVzVcbL0BUT-29" value="" style="sketch=0;outlineConnect=0;fontColor=#232F3E;gradientColor=none;fillColor=#232F3D;strokeColor=none;dashed=0;verticalLabelPosition=bottom;verticalAlign=top;align=center;html=1;fontSize=12;fontStyle=0;aspect=fixed;pointerEvents=1;shape=mxgraph.aws4.authenticated_user;" vertex="1" parent="Yv6gaA2NmNVzVcbL0BUT-83">
          <mxGeometry x="3.5" width="93" height="80" as="geometry" />
        </mxCell>
        <mxCell id="Yv6gaA2NmNVzVcbL0BUT-47" value="&lt;font style=&quot;font-size: 17px;&quot;&gt;Authenticated&lt;/font&gt;&lt;div&gt;&lt;font style=&quot;font-size: 17px;&quot;&gt;&lt;font style=&quot;&quot;&gt;Use&lt;/font&gt;r&lt;/font&gt;&lt;/div&gt;" style="text;html=1;align=center;verticalAlign=middle;whiteSpace=wrap;rounded=0;fontStyle=1" vertex="1" parent="Yv6gaA2NmNVzVcbL0BUT-83">
          <mxGeometry y="88" width="100" height="30" as="geometry" />
        </mxCell>
        <mxCell id="Yv6gaA2NmNVzVcbL0BUT-85" style="edgeStyle=orthogonalEdgeStyle;shape=connector;rounded=0;orthogonalLoop=1;jettySize=auto;html=1;entryX=0.49;entryY=-0.167;entryDx=0;entryDy=0;entryPerimeter=0;strokeColor=default;align=center;verticalAlign=middle;fontFamily=Helvetica;fontSize=11;fontColor=default;labelBackgroundColor=default;endArrow=classic;flowAnimation=1;" edge="1" parent="1" source="Yv6gaA2NmNVzVcbL0BUT-17" target="Yv6gaA2NmNVzVcbL0BUT-44">
          <mxGeometry relative="1" as="geometry" />
        </mxCell>
        <mxCell id="Yv6gaA2NmNVzVcbL0BUT-87" value="" style="group" vertex="1" connectable="0" parent="1">
          <mxGeometry x="-2095" y="-1567.48" width="105" height="97" as="geometry" />
        </mxCell>
        <mxCell id="Yv6gaA2NmNVzVcbL0BUT-38" value="" style="sketch=0;verticalLabelPosition=bottom;sketch=0;aspect=fixed;html=1;verticalAlign=top;strokeColor=none;fillColor=#000000;align=center;outlineConnect=0;pointerEvents=1;shape=mxgraph.citrix2.authentication_saml;" vertex="1" parent="Yv6gaA2NmNVzVcbL0BUT-87">
          <mxGeometry x="27.5" width="50" height="50" as="geometry" />
        </mxCell>
        <UserObject label="&lt;font style=&quot;font-size: 15px;&quot;&gt;&lt;b&gt;Client_ID&lt;/b&gt;&lt;/font&gt;&lt;div&gt;&lt;font style=&quot;font-size: 15px;&quot;&gt;&lt;b&gt;Client_secret&lt;/b&gt;&lt;/font&gt;&lt;/div&gt;" placeholders="1" name="Variable" id="Yv6gaA2NmNVzVcbL0BUT-40">
          <mxCell style="text;html=1;strokeColor=none;fillColor=none;align=center;verticalAlign=middle;whiteSpace=wrap;overflow=hidden;" vertex="1" parent="Yv6gaA2NmNVzVcbL0BUT-87">
            <mxGeometry y="45" width="105" height="52" as="geometry" />
          </mxCell>
        </UserObject>
        <mxCell id="Yv6gaA2NmNVzVcbL0BUT-89" style="edgeStyle=orthogonalEdgeStyle;shape=connector;rounded=0;orthogonalLoop=1;jettySize=auto;html=1;entryX=0.5;entryY=1;entryDx=0;entryDy=0;strokeColor=default;align=center;verticalAlign=middle;fontFamily=Helvetica;fontSize=11;fontColor=default;labelBackgroundColor=default;endArrow=classic;flowAnimation=1;" edge="1" parent="1" source="Yv6gaA2NmNVzVcbL0BUT-30" target="Yv6gaA2NmNVzVcbL0BUT-40">
          <mxGeometry relative="1" as="geometry">
            <Array as="points">
              <mxPoint x="-2072" y="-1441" />
              <mxPoint x="-2042" y="-1440" />
            </Array>
          </mxGeometry>
        </mxCell>
        <mxCell id="Yv6gaA2NmNVzVcbL0BUT-90" style="edgeStyle=orthogonalEdgeStyle;shape=connector;rounded=0;orthogonalLoop=1;jettySize=auto;html=1;strokeColor=default;align=center;verticalAlign=middle;fontFamily=Helvetica;fontSize=11;fontColor=default;labelBackgroundColor=default;endArrow=classic;flowAnimation=1;" edge="1" parent="1" source="Yv6gaA2NmNVzVcbL0BUT-47" target="Yv6gaA2NmNVzVcbL0BUT-79">
          <mxGeometry relative="1" as="geometry" />
        </mxCell>
        <mxCell id="Yv6gaA2NmNVzVcbL0BUT-93" style="edgeStyle=orthogonalEdgeStyle;shape=connector;rounded=0;orthogonalLoop=1;jettySize=auto;html=1;entryX=0.5;entryY=1;entryDx=0;entryDy=0;entryPerimeter=0;strokeColor=default;align=center;verticalAlign=middle;fontFamily=Helvetica;fontSize=11;fontColor=default;labelBackgroundColor=default;endArrow=classic;flowAnimation=1;" edge="1" parent="1" source="Yv6gaA2NmNVzVcbL0BUT-79" target="Yv6gaA2NmNVzVcbL0BUT-69">
          <mxGeometry relative="1" as="geometry">
            <Array as="points">
              <mxPoint x="-1630" y="-1124" />
              <mxPoint x="-1630" y="-1069" />
              <mxPoint x="-1530" y="-1069" />
            </Array>
          </mxGeometry>
        </mxCell>
        <mxCell id="Yv6gaA2NmNVzVcbL0BUT-94" style="edgeStyle=orthogonalEdgeStyle;shape=connector;rounded=0;orthogonalLoop=1;jettySize=auto;html=1;entryX=0.5;entryY=1;entryDx=0;entryDy=0;entryPerimeter=0;strokeColor=default;align=center;verticalAlign=middle;fontFamily=Helvetica;fontSize=11;fontColor=default;labelBackgroundColor=default;endArrow=classic;flowAnimation=1;" edge="1" parent="1" source="Yv6gaA2NmNVzVcbL0BUT-79" target="Yv6gaA2NmNVzVcbL0BUT-82">
          <mxGeometry relative="1" as="geometry">
            <Array as="points">
              <mxPoint x="-1630" y="-1124" />
              <mxPoint x="-1630" y="-1069" />
              <mxPoint x="-1390" y="-1069" />
            </Array>
          </mxGeometry>
        </mxCell>
        <mxCell id="Yv6gaA2NmNVzVcbL0BUT-101" value="" style="rounded=1;whiteSpace=wrap;html=1;fillColor=#FAD7AC;strokeColor=#b46504;labelBackgroundColor=light-dark(#FAD7AC,#FAD7AC);" vertex="1" parent="1">
          <mxGeometry x="-1800" y="-1660" width="670" height="310" as="geometry" />
        </mxCell>
        <mxCell id="Yv6gaA2NmNVzVcbL0BUT-110" style="edgeStyle=orthogonalEdgeStyle;shape=connector;rounded=0;orthogonalLoop=1;jettySize=auto;html=1;entryX=0.5;entryY=1;entryDx=0;entryDy=0;strokeColor=default;align=center;verticalAlign=middle;fontFamily=Helvetica;fontSize=11;fontColor=default;labelBackgroundColor=default;endArrow=classic;flowAnimation=1;" edge="1" parent="1" source="Yv6gaA2NmNVzVcbL0BUT-95" target="Yv6gaA2NmNVzVcbL0BUT-105">
          <mxGeometry relative="1" as="geometry">
            <Array as="points">
              <mxPoint x="-1699" y="-1350" />
              <mxPoint x="-1699" y="-1350" />
            </Array>
          </mxGeometry>
        </mxCell>
        <mxCell id="Yv6gaA2NmNVzVcbL0BUT-95" value="&lt;font style=&quot;font-size: 14px;&quot;&gt;&lt;b&gt;Study Metadata&lt;/b&gt;&lt;/font&gt;&lt;div&gt;&lt;font style=&quot;font-size: 14px;&quot;&gt;&lt;b&gt;Data Download URLs&lt;/b&gt;&lt;/font&gt;&lt;/div&gt;" style="dashed=0;outlineConnect=0;html=1;align=center;labelPosition=center;verticalLabelPosition=bottom;verticalAlign=top;shape=mxgraph.weblogos.json;fontFamily=Helvetica;fontSize=11;fontColor=default;labelBackgroundColor=#B1DDF0;" vertex="1" parent="1">
          <mxGeometry x="-1740" y="-1330" width="70" height="75.8" as="geometry" />
        </mxCell>
        <mxCell id="Yv6gaA2NmNVzVcbL0BUT-104" value="" style="shape=image;verticalLabelPosition=bottom;labelBackgroundColor=default;verticalAlign=top;aspect=fixed;imageAspect=0;image=data:image/png,iVBORw0KGgoAAAANSUhEUgAAAbMAAAFOCAYAAAAM4fNAAAAABHNCSVQICAgIfAhkiAAAIABJREFUeF7svVeYXdeV37lRuQo5gwCRM4gMkAADmCWKokhRoaVut7vblkNP2zOeB/thPo8/z8vM48zYn9vzObZbHeRuZYmURFKMIBiQc845Z6ASqgrz+53ClSESQJ1z6t6qewrnSCCJqnv32XvtvVde/9XvJk/In5wCOQVyCuQUyCmQYQpUZHju+dRzCuQUyCmQUyCnQESBXJjlByGnQE6BnAI5BTJPgVyYZX4L8wXkFMgpkFMgp0AuzPIzkFMgp0BOgZwCmadAVeZXkC8gp0AZU+D89faw43xbmDCwMozsXxkaavqV8WzzqeUUyC4FcmGW3b3LZ16mFGjrCKHxRkdYd/xG+IvdLaGx5Wbo6HczLBlVHb46rSZMGFwZ6qoqAv/Pn5wCOQWKRIF+eWp+kSiZD3PfU8Aal0tNHWEvlthbR1rDvgvt4XILku1W8UtNZb8wZkBFmDq0KqwYVxVmDKsKDbUVIbfV7vujkxOgCBTIhVkRiJgPcX9TwErNiwixE1faw68OtYQt59pC842boa0thOrbrK/2W0KtqjKEgXUV4fEHqsMT46rDqAGVYXB9bqbd36coX313KZALs+5SMP/+fUsBhVMTQuvi9Y6w8fSNsAkhtv9CWzjbfDPUI7D4/+ce5Vkb/2i72S+MG9AvTMLluHR0dZg7sioM6V8R6rDe8ienQE6B5BTIY2bJaZZ/4z6ngAKpFYl0vrEjnCbBY8/59rD6RGvYeqk9DKjoFzC07vooqqr5RzUxtJPXb4YD1zrCteaOcL21I8wYURXGDqzCauuXF4DelYL5L3IK3JkCuWV2Z7rkP80pcEcKaIldQvgcudweNp68EfYjwA5cbQ/t7SHUpPAUKhjJFQm6HucMqQwLSBJZgPtR12N/Mh9zQ+2O25D/MKfA5yiQC7PPkST/QU6Bz1NAl6JxsF3nb4QNZCnuJbnj0NWO0MwvFGIYZN16Ohgf4ywMQYDNGVYRFo+rCfNH14QhxNZqEHTdHb9bk8u/nFMgAxTIhVkGNimfYu9RILKcsLoOX24Lqw6S3HG2LRzDvdiB4FHAdFOGfW5hCjVeF4bii5w5rDLMH1MdFo+tCcMQalpvxX7f5yaQ/yCnQEYpkAuzjG5cPu3SU8B6sbMIrp/vagwbTrSHK+0dwZ/1hEBRiCosa/v1CxMGVYR5uB+fm1YbhpDKn9enlX7v8zdkjwK5MMvenuUzLjEFFCTXcSm+d6Al/GhXc2jCldjbjZKMnT0IisgXp9SGFZNq8qzHEp+BfPjsUSAXZtnbs3zGJaIARldobL0Z1hxvCX+9vTmcwirrX0YZGMjXyDKcObQi/NOl/cNkiq/zJ6dAToFOCuS3IT8J9z0FbmB5XUWIbT9zI/zqQHPYdL4jNGAJNZSJINMqpCyN+QRS9yvCEuJoA9OkTt73O50ToC9TILfM+vLu5mu7JwVaqBUTfmoPhc7rTreFD0/cCBWgdog/VQ7Zg7o7LbC2AHsMBdViO84fWx2mYJHVV1GL1hPBu3tSMP9lToHyoUBumZXPXuQz6SEKtJAueP56W9h5pi385FBrOEXhcjvWmbXO5Fv0SIJHV0ttMU6HtJqAJfb42Kowa0Q1RdXVoRZr8V4JIJEAZH0KusoUdW9dzSv/fU6BcqVALszKdWfyeZWEAqcpcBYI+GMQO/Zf7gjnscxIUoyYf2/zfg0tvJ1kTd4Mcymgng/E1TTAiKcPrw5DQQWpFzrkHk9UzH2xLVxuuhmGNlSEsWRBDtM3mT85Be4DCuRuxvtgk+/3JWqtnG9sD7vET+TPtosd4VKL9WMdoYJfao319uMcL+FTHAvg8DJciUtAAZk8uCoMilE0raW572xr2Hy6Paw/e4O13Qyj6vuFaYMrwqIxNWES9WrD9FXmT06BPkyB3DLrw5ubLw0gYGJgh7BWdp+7ETbjVjwOasd52rKYuejhLwdBZpai85mD0HkY4bNkTCdG44DaruGszgByvAdLcxPQWntZ50msslYsu6YbIVxFqF1saQ1zruumvBnGD6n6LRT//HzkFOhLFMiFWV/azXwtv6GAKewXcLsdB0NxLS7FHQiyw6Ta21tMb1252CnCZNUTBBs+sF/44via8AhW2RBcg7e3jrnTtorneB5BtulUa1h7rDXsvXozAivWVWoz61aE+HEsz/Mg+J+51h7RYgnfGUUiyfC83cydSJr/LOMUyN2MGd/AfPq/TYFWXG7XCDwduNQWVsPkd5Buf4m/2yOzt2Niv5kpAky3YiWBuqHUACwZXRVenFoXRgMufK/kDr+v8LuE9aUVtupQc9gGYn8j7knT9+/kLfU9PnVI7+GghzxEu5lnJ9eGEcTUBmH53ek7t76S/yunQKYokAuzTG1XPtm7UUAmL6L9ERpkbkWAfUCTzAtYJWIdltujAKnF9BpHpuIr02vDow/WRMKtK8HSjKA+TeblJ0ebw1sHWsM1/ZMJHxNdxiDIXphRhxAF8xFhSpZ//uQUyDwFcmGW+S28vxcgOxcI+CSutF/tbUKQtYfTZCiWjRV2a3uUF/0I0Gl5jUKYPDGhOrw0vS5Kte/q0WXaiODaTPLKj3c3hn0XOqI6s+48Cv/ZoPN/fU5DmEbdmvG5cqNZd9aXf/f+o0AuzO6/Pe8TK/6NELvaFt4GQ/EDCp6v4H5TNsSQDz1Gg07bqV8YVIMQI1b1DLiKS2nvMixG3Mq4mNbmOmJ+7x9tDatPtUXIJF3F0+IuzvHbGe/hUVXhham1YQoJIoNzdP645Ms/V2YUyIVZmW1IPp2uKaDr0FT7raduhL/Z0xKOUjtWh9VTLCbf9QzifUIvoHOajjvxyUm1YR4wVGMBC47zXCfIt/9ie3iTou6VxP4qCIrVlgDyQ2F7HTOtPxN9mNjdCgTtrFGVCLXKHGEkzkblnykbCuTCrGy2Ip9IVxSQ8Z5CcB0BfuovQLMXQxFQDJh8V9/s2d/rwjPhZM6QirAc4fD4xJownAzFrpI7nKXuxOP0Tnttb0v4EGHdyt/FiOyeU7Hr9TPdcIV0/jZetByh9o2pNWECBdsj+8cTvl2/If9EToHSUiAXZqWlbz56ESgQpdk3tYc9JHa8c6QlfHQWNHvYe1W/myVn8kmmr0C4iiR7ABficw9WhaUP1kXI9rUUwMQRRofNwGR9755oC6ev4y69SewvzheTTPIen1VZMCuy1dkiw54aXRFWkJwyfVQNCCRlpjHcYx35r+5PCuTC7P7c90ysWmSLS9SG7QTdYisdnj862QaGIgXGcFyZfA/y+XvSSyHQjBBrryA7cVJ1ePiBqjB5eE0YTMFXHHzEC8T61h9rCauJjW0huUOcyN5cnwJNwVzBJGpJNHkabMhFWGuTMYOHIqjLhe733JT8l/cdBXJhdt9tefkvWDfduevtYRNJHTtAt9h6rj1KQ1eIyUjLhZl2WjEkaTDfR0dXhudJ7pg5zHT3eN2gMTbDuqMtdLFuCWvPdYQWCp1vKqjLZIsiS40/TDNUE1P7zpy68DzNQeO4S8tkCfk07iMK5Agg99FmZ2GpZxFi647fIP28DSDgduCYRLaQpXaCAZfDGpyNyR1aXRMpdH50XHVYiOUyfhCtWYAX6Sqb0nqxwxQ9f3KkNWxHWJ8CyUPLTsnRk27Frmip0mALmmoW9I1pNWEuwMdxLM2uxs1/n1OgFBTILbNSUDUfMzEFLpMx8THp5xvBGDx2pSNcJW9cNA/dXeViibkorRTxHMcixB5DiM0egfsNQOD+MVyKzUgGhbTQWlsBBD4Can8zqZkF1P7ERCvhFyKBzR/T9r8EOsl0kkGiWrRy2owSrj8fOnsUyC2z7O1Zn5qxBoktWdbgUtx1vlOQyfQ7bbHyEmQSfggMfSYCbNbwqrCQZpkjcSnWEVfqCrD4NEXd+0i1X8c6j2BxniYWaM8yn7ISEE4JgdWAcF76QE1YTvxvLgKtxozKXJD1qbvX1xaTC7O+tqMZWY983C7Px0i1/4Q6qncPYwcYhLr1lBvfFJxYgN5pCLGnJtBWhSzFwQi2rh6TWHSdbrT9DKn2u8BSFNXeb3b97a5GL/7vqxBaI6jMNgvzFVyLEymkjvOAcRzsp2ZdXZ75GIdi+WeKTYF4J7XYb83Hu28pYMHzZeJgR8FQXEUa+odHb0Txoi76TvY4vSK5irSROQ/BSpmEK/GJidVhHniGA4Wl7+KxnOAiwnob1ua74Cjuxiq7wTpFoer6210MXsRfu07no3Up8LB4kaKUPDy2tsv4mCRqY0PPYWUeuNQR1uMiHgLSyRMTATJG8Eun3Jor4mblQ92TAnnM7J7kyX9ZDArI9BRiYiieh/FtON0a3tjfHA5fuRlEdSo3hhfJMTi8VsokWqYsALnjSwDzDpI5d0EQ12ms7zgW50cI6/++ryVUI9g04spynayogcLz6UNZJ27T+aDqT4hhjbnO68Q1z5K88g4oJR9RVnAGEORqyhOmDO4XXp1ZF+aQyj+EDTb7sSu6dUHW/Nc5BbqkQC7MuiRR/oHuUECmZwzsLDGjA2TwfUAG37tgDA5HUJQb/JTJJpEgIzn+wYZAbVVleHpKfRg/OB60k67TMzT/3Ic19pc7m8N+rM+hWDxlFRO7tUb3VGfnxAGBZqA1kTU1Gqit2hiAH2Y4XsbqVFi/d+xG2H2hPUJhKVjXop+Q2xK+PK4qajczeWg18FidIMvdOUv5d3MK3IsCuTC7F3Xy36WmgELMeNGRizeiTsjvwvT2XGoPN+H4A7qJ+J56Unf5ogJMd1s7zN042JMP0PEZGKq5JEDEsSg643+0n2GtPwe5/4PT7WEQEqymXArGblt3JLBvUgyNNbaC5I4VQG1NHV4dC4XfPb1KmcQ+itjfxhpbS1amrtMa1vpZOknTa0i9Cvb6BYTaI9Bz9qhaMCA7Sxo++/m7bE3+45wCsSmQC7PYpMo/mIQCe8+R7HAaRHtqxg7hcutAsNkgstyYmEwXzGKy9UJ4HHfiU7RmmYm7bVBMwEetzkOk2394uDX8EoHdTgGa6yzHJ7Icmd9jZCd+BYtpDsJ6WP3nBdHd5n4EZWQlDUHfYZ0XsMyq8Jt2VVOnknAZGpkU8jK0nQVtJ5JcMhL3bf7kFCgmBXJhVkxq5mMF8QW3kJ34HskAuy52RO4ns4zKLV7kVjXC3SupAn6Egudnx4PeMbIS9I54kqgJBr33HPViZCh+erI1HLyKEGOt5eZSdJ0K7CbWehNT8U9m1IbF4C0+MKgytmJhq5iVB5vDewepA2RPa8DETLqnWnVXmMNYhNg8hNnjDyLUqF17IGYXgfxq5RToigK5MOuKQvnvu6SAzPJs482w6kBT2AQY8J6rZLnB7PtFUZnyepyPaeTn4a5Pj60Or06pI+GhMgxEEmmddTVf17qNBJYtxP3WI8hOs24RPSrKDPQ4ojqTFTylhf9cRvzvWyRlTBqGS5HgVlfr9OtmZNqG5l1cp+vOtodLrayTMvY4343e/5lH2kUURuiPwJ07cUC/MB9L7bHJdVH9Xv7kFOgOBXJh1h3q5d8lzT4Ay9QSPj3eTF8xoKfAF+xQDS/Dx1mdh7vPG1EZvk524lQshFG0OKmOIcRcju1nVoFSsgbX6RkAGRst7r6FF1luy9WlyFZERd0vg6f4MIJ7FKglcXEVbQr62p5moMVaw3EE9g32tJDGX4y1KroqMWMHIlin0CrHmNpjE2pjJaAU4/35GH2PArkw63t72iMrug6z20wh8C/Q2k+SYq910nZb0XOPTCLBS3SVNaD9v0oh8CPUUNkkUyEW5/G7P9vVGD5BiJ1vwtLhB1EiRZwv98JnxI0cRfbgQ2ApvjgdyxOXYo0oJTHmYtLOjjOt4c19zZGbuAWBrWAs1eOcqhBq9cxv0pB+4eUZ9WEe1lo5umtLRYN83OJQIBdmxaHjfTPKFfKu1xIP24iL7SAuqIvNN6PC2XJ9ZJYy8nkgdzwztTZMpYbKjMW4gLkK7F8fbAFTsT1cZq3tZSyw3YM6MjLmEwNcRHLHHCzQEfXxhLZZicJsud5VQG6do8RAuK2e3NkaNmUoCSkzhleGV8CDfBD3b1cJJuV67vJ59TwFcgSQnqd55t4YpdkTQBFbcA9M3VjRCWqoRPIot1oxiSsDjoQYzPGB/iHCUrSWavbIapAuuia/sSKF9nbAgFeRubeTRI8m3JPlmMTiarQSqzFlRtTR3XpkTViGS3EigmA4LsauHmXzNYKIW0mz38Y6d1FGcRShRgiw6wBiV4Mn/H0riMvHrthtuwO3ZghLx1SFeezZALKI8sLrhMS8Dz+eW2b34abHXbJCzNRzU7I3kmpv5t4xNHZrjcoNlsk1/Q8hFsJoLJIpZMstHVMZpvLvEcTGunqiOioEtMj2H59qDTuxUk5eL8+1Ruu9teDBxJ1mKLCxyOYAtzWKjME4Fo17e5o44MdY2sYBT4MhaY+1KFOxK2KV8Pcuy8LrCQMBdabL9WKQRCYRVzOdX5dk7oIsIfEzPHQuzDK8eaWcupBMl+FsBy+TtXcSMGAE2SX+LspDZZmZKDJ1GaCMbgCQU6NwVS2klmoOf+bC3Lt6FGLw9XARqK29FD5/dASLDAZfwcC1Zco5jWNprdj5eQ5W2DJS3RcRCzQjs6tHWjUTWDtAGcV6sjLfBZXlInurECunvW1lY9oQq4vZR7MeF2OpjUGgNZRjNXpXRM9/X3IKxHC6lHwO+QvKiAK6dxpxO2mdiPS+6mhbOEtWQA0CrK7MGLtCzIw9mXp/pOw04mGzhlaGmcRcpqPNm4J+r6fA1K8QCzuBhbL6JFmZJ9vCGYRa/6jlyb2/f6+xS/G7gtBuZ1oD8e9OGlwRnkaIzbf4GZdinO1RSTkPnuLWc8CKHWoJa+hwTYZ82e2t9BNZpJJNWk/x/RE8Aj4rxlcjzEpB3XzMrFMgF2ZZ38EizV/rpIkuLCfAUNxFHdVK3E6biY/RDST0j8MlizSPuMMoiCL2xvzU1pehuS+iWeY4MveGWL3cxWNcTDfbbtyn+4gTbT2Hu40aucFad3F8dF2MX4pfu+abCFgF9xcexK1I8bOIGl2vttNybWZ/j2Bpr6G84CcglrShtIwo07VKP+RuqGA/ZgFcPB836gKK2rW88yenwJ0okLsZ70SV++hnMsgWzJuzWCNbQD5fc6IlrDrbqa3HKSLuDVI557YOgGvB+XsOpv4YNUr2F7PwuStW53ft7HwIF9t2kDveoAXNcdDe25HmWmPl+ESCm3+I4j95UL/wEnVjWmODYwht16PQP0+t2PqjLeGj4y1hNQXQgxirDHWU35BfNyo12hS2V4WnAUE2/ikCf3nuUDmemvtvTrkwu//2PFqxzEIGeQEhtupwc9iOS3G79WIkd8RBTu8NshWYejMvX0Ta+VdJ354WtRmJV0Plmk9fuxnWHWtGaLeGPUC761ZNCs3UU2t3vf4RxUNG/uoUCosR3CNiFj/73etIhEN0K3hnX1NYgxBrJFZWjhmoBZo65zaAkGtwJf7BrNqwbFwt+JEktMQxP/muZ7qchXRPnZ378T25MLsfd50176FNidmJ20jJ3kNjRXEKyzFD8fbtcY61cOI/nl8fngBLsQ53W1zGpXWie+3tA800ymS9uBjlj2UWFvut0yieYpUuRSyTL4BuP4FWNLUxOw7I1LXG3gVT8WMsMlE8lIxx6dUb10JBdgHJPWNYZfjnSweE8SS2JFGsVEyOUDJikXg5C+zeoO398M5cmN0Pu3zbGk+S6PA+7Ts+hrFfIP9ZnEKfcnXfmPRAtnyEL/j7M2vDyyBaDMK9FtcjqDV2HAb3g+1NUX2c6BjlutbCNimIMJjD0xNqwnP8sQha6Ke4guhSM73GqI9bSYLHYdYuDcp9zc4Rozn8k3n14RkQ/e16neRxzf9u7bVw+OLNMHt4RXgOV+xs0vqTCMMk78s/W34UyIVZ+e1JSWYk1t6PdjWFD4kRXUP7NUZUyI4ryQuLMKgMrgaptYT+Yl8F5mjC4KpYYMC+mq9GNWOu+T2Et0K7XDEjbyeV1sUQsm6+A1OfCzOWqccV3I6zFXfxd7c3R52uOxjrppKxzB8TPUaQjfmPFtQjuGtilRcUluQZ2QBiyZ9uuE5CDz9lvSaNCFU2F1f0k+A9LqK1T1yLtsxJlU/vHhTIhdk9iJP1X8nHFFrvk7n2E7D2LjXyd7Ifypm9OTd1ctPq51NftOQBshRB7zCLLQ5TV0Bb1G1M7Bf7m8NJUrpl6ll4ZMDP4D59FiR/szLjJuC4zxfpL/aX2xrDNuJiV7FSynmPC3vhHGvZ1GU0CX1pJh29E7gH/e4VlJXXdjeFXxxo5Vx/fsUKNYXYOEoYvjatNiwcXZ3Iws3Cmcnn+D8okAuzPngavNdNXPSdpJz/V9xrF0B2uAlDT+a46VnCyIpkysOxRKZTK7bwATRqBJmWSZxC4DYWratp29m28CmCbP0ZIJlQ+UUXLOd1u1fiKc4C4eL5aXUUeVeH/gjumPkOES7mKoqef7y3JUpu6UByl/N63Wf/NJB1M55ElscoL3iMmKB4mXHdqCaxmI36g51NnPHOTNR7rdn3VaMcPQi49N+bWwdKPxY+Qi7u+3r2JuRvS0uBXJilpVwZfk9hcJU42EGy11biTtxIksdVAv9aK3Gsmt5aktl6A2AuM9Ggl9okc3h11LokYur34lJMWEbVyJrFFPz1YbpaU0d1hfYsNs+MElq6+H5vrVljUUE2gRq5JSBbLIehj4PZWkOW5DlAcfsv9zSFVafaI1QPv17Oa3ZtI4l5Pozrby6xQHEzjYHGWbUlFZfY6zU0f337MEkttBxSienyjEBnKjkidJPhQGQt4Z0rEKJ2vK6LmVCTZE/yz/YOBfKi6d6he1Hfqnautioc026Y2wbiJrvOt9OupCNCdujqshd1MgkGMxlDpj5xQAVo9pVRz62pNI8UIDdO3y1R3S+AZqE1tp41+29b02jVlGs2mwoHmee41yrCdGrG5mGJGdOZgLWQZs6C8M4EjBfjG3iqjnAGNBO1l3LLTDVm2YCknTSwIsyig8FS9lpXatxaOVvRmMij0vIeitohyirUZOIoaQp3kUQ6oMsJaNROucJlNKjHx94ERaUyDEWh0N2ZP9mmQG6ZZXj/tEouIbBEsN8LWsduLDLdL6ewTLzoCZX8HqOEDL0ZxjK6rjJMG1oRllNLZIPGcSR4xBFiCsCzIJVolazBnSgg8GlcjK653Jh4gajulckdWgIilsjQnxhXFa1ZfMXuPCoyJ6+0hc3QQqT/nXQ3EHle9lzd22YaC7/Khk9AYVlIQotI+Hb27lRYuhYgWq+6ye14/TEWmcraSQS2iFZpqaYSJXFUoiaiRCwnZjdpKEoU+5LDPnbnJPbud3PLrHfpn/rtZm4pyPYhwLaRcr5TQUayg/226jHFepuH3WlhujsF9K3i1I0gZ3oB2WbP6O7BrRg3FdsmoBZ6bwa9YxMguRuxQG1PI9MuZwtUxluH23QylsB8BNkjMlDWXQyDQItnKmMNgBM/CEO+WdFCvVW/qI3NDc5Jb7lbVVrEkVRYLyNL8bEJ1RFSS1zXnpBjZ8WRRFnZAtTYBmoiryCJovN9pwMW82cqecqz3bS6OQT6SxPYo/NQAGdBwzFYi/WczzhKVczX5R/rIQrkllkPEbpYr5GZX0GI7ccCW4emugeN9ag+Jq53FC8p1ouKOI6MQ8amKt0Al7D54pcpArbnlmgWcR6tGjP2dtNza92xlrAZIXYWZi1jS6uhx3lvdz4TCW8GsIfaMGNj4Cg+CYLHSJB9B2OVxnnEj5SpVyP14tRMtXEUzlxri5qJbiazcQ1do5tJBorG6EFCaf1o5QzF+vlDMhVn0vVaMOS459PykaPEP98nNrbpNC5zLG+ttGJ7GzyWFuMbx5syqCIsHlsTJiNwRzPvQSwgTvJRnH3MP1N6CuTCrPQ0LsobvHTWiulOXH+Ulvb8e+8VHW7lC8fk3Jy3IrYfzHhU/37hWcCAHwXpfeSAeC5Fvy8k0yncih8DuxV1uKbHmKKgGFZNNL0SPM5bYdbORJ8lPvQE9U6TEN7GiOJYkDLuQpsWY5+j+ldFrti4Vk0UT8SCXUdm56+pszuKBRLBdpVgrZ8d0rX3Y5HzsbxfnVEXxfSSCFLdphvoJ7eKDt8bbmUrVjBoKb0N0lsBPBZotPHE9aYi0Bbj/h6PgBNppifo9lk65n9PRoFcmCWjV698WqvkDFmJHx1qotdWaxQzsHYqDlPslQnfeqlMzcjNcBjEc1hiy7FKxsEoBMzt6vG7MpiLrvsIkExo6EdxBdnCJMbXuxq+5L933f0J7HxjRm1YgSCLK8ScmFaURc/v7G2OulybrGBR8TOTcNVNqgv0HY2999LL+OLPyXh861hbqPTc3FIxSkEE1asKrO+vTq4KL0ytj+JQXe9250zc81ZM2dd2NYZ3Dt0I57C84363WGtxDiohWsFTcTkuVfmaWBeGUjqQux6LReXSjJMLs9LQtSijRq41BNfHMPM39rWESzC1yF2XgcdeYPadepaU88dgCHZ7dupxmJPM/DKM7FMgt0zD3ktsw59l4YmsB7SMRUAq/d0FA8JYhHdcpSNi5ggfgZ9/vqcl6mRgjLHwGMuRwb40qy5Cykhi7XiWdpDt+b2t18NBUtpLcZAq+hGzI/X9d2fXhqUP1ibaLtd5GJf59zZfD7vJOLQxZzk80ng0AvkF4LEenVAXBtCpIe5+lsP876c55MKsDHfbe3z9ForFz9DOD11qjwprs/Ko2epK/NZDDVHmXhKNtpF1r8U1thJswS0E/G8yWA+GerpFYgXZcNyI33yoHhilmijxIslzClfg32xtDJ/QINQ08s99XRnEgLpsf2daTfgSEF9xE2cK8zBF/nWstB/vakFwFkdgOE8RW2YBEPyHC/uHscSbkjwK8A20Hvovm5rCReJ75XbUpZLKwFSK+f8BkFubsFVgAAAgAElEQVTTKB/JY2lJdrhnPpsLs56hc6y33IC5WCe15jhdgKml+RjMuVExCodjDV7CD3nZ/UPJU9Tp+eXZDeEhAv5JLAcF4BGSWv7jZiCZSO7Qx5gFAa7iITMfyuLnjqoMfwQzF80iyWOyg9mZ/25rc2jCGusKxkpaX4c+uh7/10UNUYNOMxqTvPUCcbjvbWkMm0jnv4KEk/5JY1IK1lq+NIfY2HKUl2eA4UoixiyC1vr85Z7m8OMDLaGO8crZ6nGvjyJsvz65OvzunIbwIJmp5SZ4k5y7vvbZXJiVwY6qIV+yrxhC7KOTN8IekjsM1vdUwL47JDBobsGp3YCXja8NjxNfSOOKacXP9P9+ejWsP3sTLbgjKnItZ8YW5Y8iPUQumYor8SUSHR4CQ7IrQXQ7rckID2epEfxb8AXfwhIdcIuZxxFKCjSFiR7Dr0ysjnq7jR5UBRZhPFeu39ci2ohFtPJga9hGacd14lWOiSftno8GnWufRFbmEpqEPgnK/ej+lbEtcN99mezEvaKXgBm6FoFax3hJBOE9J1jCX7p2m4YuxI38zx8dRFfzOLtVwgnlQ/+GArkw68XDoKZnQajIFa+hmQqKaxaa16Pwpxend9dXq8XL9PwzlWwvC2GNJ4wmzd409LTPaWqK3gYcePWJtnC6sT1Cui92KnbauRW+FwkB5tWAAJ9LicF8EDxM5x5pwW28bPso/mem4SasMS2S0+y7jDyNli9zFappCFbaN+1ADZrIA8BixXXtKlAvNJHCT2LRdpJNDhCfPEucVrrfSZkglBkG8cuFWKEvTq+PUDzigkBLQ0sNzpCQ8iaZih+zz9ZKuu5yF2Tuu67GWtb+6OjK8LXZ/bHM4rci6u65y7/fNQVyYdY1jYr+CS+GF/ogmqmXejvNItu55AqwOzGQok+gGwPKyNXKx6CJL0eILYkgqLQIul+0LF10ue0+R7yM1OyPjiPUyGA0e68c9F+ZmXVjCxBiC0D0X0p25hgEh+nycean8iLzPnjhRngP4bGSou9qfiYjj/P9u22bdHPsDui0iILs57DUhAUb1tCJvH+37xV+7ndVos4Ss9sPXNSHeAg2oGCprRQQMfwMUw/zh/ULT2J9KzRVXpLEBUUp2UocdCVCbCuCs/pWXLA7a+9qbcX4PcuOatFEDHkRK9TsxuG06Sl3AVyMtWdpjFyY9eBuyXTssbWdWqnNIBpshnFcbIKRoKpHKA3OpQxvtlNCxkSwRF7oJ0CznwZawlSggIZxqePWPsUltXVG57DS1mG5bDzdFrbA+GQcvWml2fVZCKZlCPBlWGJjEWL+3WLmOM9lTKBT1AWuPn4jsoCOIThcZ7HQObSWzQh0L0Yzr1kI3LnUd80ZWRkJtTiPMdvGG2QVErvcwRw/RqjtIPloIGvUrfo4qCXPTaqNBOUg3Gsxlx5ZNEcuCA7suW8L55CKNxhQ6zEe9eLMvjSfUZBBkjCH+NgXiAkuHtsJjJwLstLQuzujdsMp1J3X3l/fVYjpXjlC6vER3DirTwI3BFDqWVso8/8kiRI9TTnnDm8Lo6kVmzu4OspYW4pWPgqhNpDMvTiauUDIMjQZVxzBZzLDA8ShlhK9GUJiBZi8EXCy1kNPCzTdeEJdThMImZiYCPfjEeINLNx5dfVIv9PExXYz/91YZFuxeM7CzFugaTH3XWtZ2hh/PY7V30R2xXlcmVdbOpHpBTKu6sLsVzDjNYyElXS3TcqguhvhGG7Q+SDNP0GSx8wRwGaR4BJXCNm9YB+CcTVW9iYE2Rnc6lp51V3MpSu69sTv3XtdJXMoVn+OEpP57P0Qznzcx6+7B9YYFnOv477/fvtcbpmVeMdtIHgKeKEDJHVsxK10HFfLKX5mJldPM+akS70B1+ngMk8jQ3EpsaGHadkxHPfiwKiAtGt2plZ7DOHtH3uN2epjjrBGMYF1ZXoqAYdJTvgE19TG0y3EdDpC/7gmQdIF3/Z5GZHW2ECY+iIskkfH1Eadiwcz9xhLj0Zy7vtwJa8mM9XecmcQYtf5WXfdil0ty7lLuwpeNFqYJsCcHyZRYzZZj2ZAxnkc4xqxM5FXdrIGFZgRKDA1MRdfYOQitqymXnA3rvRGDn2p1x5nbV19xrlr6TaQSTwHIf7FyTVhFkJcJSvuY1zUVkxa4uOg2xRc8QIsxx8h7pvyzxUokFtmJToLMjI7HsvMxBPcAUbeMTo9F/psJbgXJZrh3YeNXFb8egDq5DC00q/hWhJbbyjuqjiWmCNbJ3cSV+FGasb2sH4hmUZSUNveQcdfLBzdVF1dbPmmDGQajGQIlqHJJVfaWsJlTCUz7pKmkt99xb/9m2j9vFuhO4t1f3tafRglrBGL72rOhZFUYg5evBEhtqyn19gVTFOFe08wc+eovLch60nofgl35qWmlmBjAZUJXaRdrcPfD2SPGmqqwgOsvYGzEFOOReu8AOTYRuKe79Hl/CAKiNZ5PGdn3F0qzecUZP34hzFgOxt8kfjjPJSAuO5kZ6W7VwSXj4600PG8jbIN4qxNNfy8JnIB909g2ZZmlX1z1NwyK/K+mu58nky8fbgUt+NSEvFbOCJdZD5dMZEiTyfxcM7SVPuBXLrncSs9bRdgmHrc7DjXf471Gxt590AzMFwdQXDkyFJQQGDpPC0sE2j5ZsLFZZAuxPR9Mz//M92zrxBzssdVku93RQyFmE89WQ82cfwd0t3tNSbafdx9c5tlZOuIN72xvzVcQ4gVXKxdvb9Uv48YNH8USOI7fn02WYgkbwxGWBWTfs7ftR4lzvYuKCarsEi1RBUOWXicpu5PY6GzschengY2I7GyuI9nvBBz/NXeprARoOdCYXo9d2oM2KSPAW02H+E4Cg9HPRpZDzgZ4k4/85/LhVmRttCLIBDwEeIjb1E7Y2zkCkKswCCL9JqSDSOz0y0lw5uMJv47oFhMxzWShNlpdR5AiL+5rynqreXfP/sUfvIovby+ReHpGDPi4nm+oqEirR8B+e83XA/7LwB7dMvi+ex70vxdxlLLZJaPBdV/eh0gs1WJrD+F9jH2/69A8dh+rh0m/vn1p5lXsb+jtfsVMCOfoC7Qjt7FYKiuVEXmAK61H+1sDGtBMclaw0sxQwUWfgZPxOMocgMTNDdTkF3ALbuX7u6/prxkM/t/JzHoHZtD3PlpMDan8u9R0N/3xlWWin0W+tJ4uTArwm56iY0JrTzUHH5yoDU0cqiLlaVWhOl1OYTuOjsfj+8fwvNTa8PTk+sSXS4v8iXW/CHa+I/AFNS92pUb1WJrE0j+t2UNUWPEhoQO72ZMoF8D9fUGBb8ykXYnkeZh7bKSGhjKRKyxpwFEXgGjidNupfA633ylJUSAyN/d1hzamFsxBESa5cT9jhbUHAp/f++h/mEySkv/riql7zGwOss13Ko7zrWGf7OuKdxgc7OS8ODeef6NAVs7920g2MYlqNOTLJEgw5375n4K0I9SL4rX4F7oNdJef/Nc3Jhfwfqbxr8VnHHrFO+xFff1r3Jh1o3t9xKf4+CuJi4kE7fQ1zTmJNZMN16f+qu/YfvcYgP6k2Hi80nueHlWPY0J4+uIXuLLkTbaFv5653USBUjy4PtxDS1dcoRTwt+bVRshrJvmn1QI7KKz8s930xKHBIOrFsHxxFmBNLCyTyY+noLnh3ArPUnRsYws7uP6m0xlJ8HlBzuuh7WUEehOivP+uO8o5edaWEAdUuf3oP/zpJ1b/JzkkYa2qdGdvgpA6F/SagbDpuzPf2GNzl9c/hEAYr8wrQ5rqSZ2clJhDIvOD2CNvUFs8IMjN0I/aBpXkBvDBJs5TMLdbv3aw9RsDsGln/QOJNmzvvzZXJil2F29R2piB2Di3wOKaB0utREwgq6skRSvKvpXvMDWjIlgMYn0d7XDJ2DiExPGBmRiZmYaF/orUCweQIgl8Mr81rpMUFiKMP0jtOLJCJWk41iAvgpG+h4xGjMGW9mgexkaClEZyXQ472MUPi+CiZhtloSJGAs5QmzIbL3XWf+FW8XdRd+wEg2oZSwU1zLQLJ7ArTabmjSTHuI+0lD0mo/J1vsJFrKx0QFJCBj3RSX6nHdYWKoZKHICYi+kdjCuECpMyTrB7cTE/8v25nCCOCkyMdEZcpxoHvwhVyqsIGv269NrwwR6qZnOnz/JKJALswT0MuFATDmZ2Ov4xd+idmY0EizpJUjwyqJ+VMNF6KNF+OqX05Zlzqia8CDpwkl40FXwjEQuMSb4M118CI9hRZDizs2EhN+dWQuqSG3UlThJLE0reffpVhD3b0QW0mGYy52spKt80DjRUwjP5bgTdfEkcSm6IQIib+Mdr4PespcY2QAs3KycAed/GRrMpdziC1gDT0ADrdP4YqzTGtMi/v5uSiWghdZJEY5AUc/6vQZTkPP/KMHpVZJhxiZMRHLsswjylShQP8S12IiLVaO2O9m1zkc60v0mfG2i5QB1YSwK5tCYZSz3Wu/98rtcmMXYaWtGbHAolp4wPOvNUiJ3vZI0LZlAEkYQ43VF/4jusEb+Mc3gNkH/eSB4PCgorTBRMScvmv8BYKbMJlyJNn4MTVxNVP0x5hD3XJeXWYGkdfDYGAqU0ZTnUds2QCj+mE9kLTAvkxDePdQS3icJoYHvaukpLK/z34+PQJCRoblkXF3Uby2JIL+IIrOf9f/yYHNUN3UNmkRMLOb8evtjMvFzEPmPaB8jlua0CIYs2azOoCSsIuX8XRp9nuROKBV0q2eJBoM4Uy9N6kT5t3lo/BPWSSvrHn+6qyl8eKKd5g634uPJyHjHT3sHOKaR69N9eeoBlU7KYlA6G+7larjjaPffD3Nh1sWeH7uMFYK2v5Oi5y38sWmkhz8LF9jLYeFvLWbDCxOqo07PutOsl0pi9ewnJrAZd8oqsRKpH+oEQ75Dv60uaBnn11EeBxL2QRDZnxxfHRaQGi8iRdzH75uQowt0I8rH3+xpDaewHsdjjX0TF84ihKRAvDa6TPJsw+qz+Hktwuw8LsWbvEhFIAtMXJJe4xyMAOTy92bURI0z1fiTWJOOsR0avItLdfUZyyJgufwwrjKUhNal+KznQpfeWBS6b3gOEBKDLLlIsIEqW1vpMvA61tj28zdJ9OnshJ1kjDhrk9bOVy/KBITtwyh180AfmZ6wcDvOu/rSZ3JhdpfdPI77aAOJHTaI3IPt36h55injSXD+7zJ6aX/s/IwJAfsYngVLzi65EwZ3+uGTCLFzWDmfkqFo4eeRa/Rau63dcylp0ElmoJRgNg8S13uGwtVHqc9JkuqthnudoMjOc7jCzneA4FAZ4Umalp4kQecSLqQP9jdFCO9H6LfSRnuaUq69qCcDQoqY1syEX6ZZ6FNYI9OH1URaf5I1qLy8RVxsJQkOhzgHVmMn+X5R15RwMOepEDLRYiHg0N+cWU/2rApd/IE8j56lj8lWfp1sZcGvO3rgHNxiN8y9XxgHaMB85j+bovc51KlpXebPb1MgF2afORH6rd890BS2k9Rh3OUSKdfNMHG1uixo4rqSdKnNJu1ad9pDxITM0BPBIC4T1123BgiiNQhzi79NfY/a2N+iQU9cIi+yjMiU+QfQThcS43qR2q+4UFiFOVr7JxK/EFy6MOMyYZe7k7iQcZHtJPpIA4F4fYqtiZeCns6/ncWKJfg0BeqWHIwBVilJkodjnCEz4TWSnCKAYGhg2UHcc1SKdSUZ073WIq1BgXmJ+OAz0KDgXo87jjt+jvjYuwixjyiEN9FFKLqeOgPyHRUzreiBKHfDsa5nEPOeCZD0w1iXeTr//9jJBPpJ3O3P5ud0Te0HCHYngLDraZB5EoRzu/l6obPgTvHQy6mHwbwmg8W3HHfaQtwTMrO41phr1RrbBKL/WlKtDxAX0hqLLq/bGlcSFOEIRK9iPloFJ4jNiBMpA1kGY56KZh33qYeRJWlPIxntbLADGnyKMN+FW/EiwhBFvMcYWNy13e1zHOUoHjoc+DE7QD9BtqYQVtXxqw6inmu7cC+vtR0MGZsKc89HVgSZ+yhAtCgz88nUfGJ8TeSdSOJaVXe5QLnNB6D9Cw5+Chd7Qam9G+2L/XPPvNvmHbQMpvFGG8oZHRiuVRKzBRQaRBfrNOPe8WLPr5zGu+8tM10Qx6kTWgcI8FZiAiJYNHNro0NbTjvVxVx0yXlx7S+24Bb+XlxkAS/+dS7GBi7sBrL0dsrAiTP583KhgfMQxX0erpancJktAjg3aQp/FySMLNrTWOOm+G8mNmKblkhJyNCjsBFMeAaxUTEFFxNrSZLm7XIvwjS3cBc+oHZqN1Zpb8NxJSW/e1aJBBBP9DGUusUCZCPY4wpiaWCLmv0kenyIh2I1ip2QdJ7B3r4PheNo4pKuxslkPJooZTcHe+v19vyS7lUxPx9fxS3mW3t5LA+EWqbuJ+GH1gOI+oFp5rikCqkG5X4ovLBeTuNIFhtPRuvUp/4wKfcDEnB5NXBdJ/tJsX5jX0vYAfMqIKOXEw3cM0sj1qN0NLJv/VnjZMoKjIF1d56ehWayUw+R7LMJK+RtAvxXPQvdHbiHz7na+XASO5aSrbqYxBmzFbVM4z5av6K3bEahkQZ7UOz8dvwR4r6ptJ/zTJjW/jKx4pmiaySIL3nOdE0Lkq0gex+gaDFByyVCVdgLz6zZtRdISLNov7Xd7F/wTnElu+dZ27NinIj7yjLzoOrzv0oczFjAWoTYqmNo4PRrsog4Cweg4E60hmpYHYW/9Kl6jNjYJBh73JoUxxDVX2T3owjzd0X3Jt1et0oC3leM85dqDOOCYwiIvzSzLjz6ADVpALim2TsZQguDnUKY61J7C4VmFzV0Fv+mGS/VYrr5pcJ56M/GzeAMPIIys5zyiyRoHtLB+kF77W3BvfoedDiPUMvCWSiQL7LGkDh6KJZitT9LsktS95t0sLvDDjwTn+BeXUUWM8es7M+CMTUTviaTLPUUBfAPo8zopUlQA9/NU1geX79vhJk+ZzMSzVL0sK5D+7S4FkUmkR+9N7fNQ+vVssh1BinGDxM/WkKa9XCKjeM+WmLX8adZi7UeK2QDKfdHiQ/WYeb1VFA77lzv9jmVEl1fg+E0/9OChrCUkoMksRDHVXBfgQPsgw4fHCMmAuNqgS73wtS723x66+fSIToP1Ms9Aq7gizPBFYSJJTDMo1jMFQTZGmiwihihlrnxwUwJMqhQAR1Gcg+MjT2DRTaCpKEkNYSeh0sIsvdI+HkfQbaHczEkyQC9dQhuvbdwJ86yd//kobrwEpiPSRqJ9vL0i/L6Pu9mdJNty3CGaKmxoO/ubo2SHBrI6hiaEdXFNdhfzAs3c3A/rJHq8Aip6gb1k8QBFGSiV1hy8HMu7UUi5FVExrTysvBIB//o/JoxBMaFEBOGK+n0zVg9Qx3aKpjWT2zTghBrgJBZEmQmeWihzoMOy6DDs2ALDkgogTxPhzgPNs/8MWgmkfsWYialZ2+eHc+DhQLjgaV6GRo8zL0YkJCraZEdA9XnDVoWvYdbUa9FlgSZ9C/Q4ZlhAGbTXqYmThv03ty4Ery7z1pmEdODeZvcIfP+NYf0EMH9WsyPpFp8Cegea8gC826mevJBXGnP0TZlPum404kDxBVivkg6nMSVuvssQoxYyEHoYKg4ig9mQI4V6NB+kznDsF+eQOdnkkCmUEydhA4yLeG3tnIefkh80L5jlZyHrDFvk5aqCJA9C1LKCzPqorqpJHSQno3UTW051QJAtiDN7ZyF7NyLwuXpFOj9wlO07HkJQTaDrMUkdHAcFRvvxd/uaA774BXt/D3pGIX59Na/ud7UE/YLS4ZVhD9a2BAmJjwPvTXvYr+3TwozL+tp0rk3onF+iittE+n2BnBV2LLiSouSEvhzk5v1yoNVtCWhVYQgvAk5r+44iz0/xY30AbVC1YwZQTBlQIhFh535WvjbyJ/luNJexYU0g07V1twkebzwe6kb+wAL5G2gmAQK1pDJDB2Yv2dCQTYKF5poJstwqSXJVCzQ6zTxYgvBf3boRtS6JVPn4daZ0CqlFj78z3Nqw1Mg/o+GJkkf+899wt342d6WcJjMVVPgsybIIEMAqz88g2LzDQCTxVq9X58+Jczc2PO4EDeiea/3D6e9jQNbdQtDMQub7Brs1WUTvyWkVr8wuQZLrLM1RJKLphCz6HfdYXD0yAA09V6XYjIR0LsUM7uOaZPgURlewRJ7xO7UCd2K0lNE+48ONuFCElMS+QiCRXLW18u0YCGmmy+gWPbVGTROBdooCYqFs9etuBHXqriVa4CkuklwzDOVlTPhPBXoGNehiiL4f7GgDpgnYKmIlSVdg4Dhv8QqfYczcRGBXpGxu1HYT3dv6ZiK8J2FAyIlJ0vKWbFvVJ8RZjaHXE1mov7/A7jULChUrfeQJz3oxSZy3PHUNrUg5lMf8yRatynWAu0mcYtGuIS4zz7A/7+ZzLSjoOv2izzq2aFDp0AHvYIEj4UjK8PXYN6jiQ8mTcNXoG8hweWXuxvDnssggRB4zJpAlxairxjM/12yNx8zUxHmncRAdwwLbt+l08O7uNtPYeZ6JrJyLwr3J8IERQsxW++buFenItCThr0VhiaB/dXW62EL2RKiuigAskYLszf7I9CfAr/067MbqDlLLtClxR6yd2cRtugLT+aF2SlcJqI1fMQltcj1MlpWR8YqXZ3uZS6V0FMrEGL22BrM4azDDxb3knkwLXb9GCxFkSuOgSNoPEBU77hjlMOBLnThnYdL9cu4FAVGtnYqSTxb5n0CheZtmPc60FwiGCYIlCU6uBcqN3ZAXka6/dMART+kNZbgTDiGys1RYkE/39VIx4d2EF06AQHKYa+TzIHclDCKYvDFKHovIsiSdoP2XSZACZj9va2N1JFh9WfwTETngnlbMP3yDJra0ipmQApBZpLLSlzudmp/gDrVp6fWhQUUXyfJhE2yfz3x2cwKM/sJiVBgl1trpRrRutvZZBlZlh6Z90gQ4r8J7uBcih6HooHrPkriLpAWNolcTa3YHpD9HTNrAt090w02eXBF+AIXaw7C7AHqJiph5kmEkJmq24gN/mxPEy5nMCUZVGs3a49WyAwbp6LcqOAMgstUJQyHXEcCfHy0JbxGsstZaOH9yNrjjM3knYZ7+aWptWE+xeDGCZNYpq5Zz80qaPGDnc1R8X0GSRFtnSg1ouA8Rwx9GWg/SYri/b7r1sX61r7m8CsEWRO0qILZWO4jYsyXoPEEaleT9viLJtfLT6aEmQfb4k5diaupEbPI0wtbAIDtZVrGfr3rkEE32LsLN8EyMhRFs7DQNW5czEMpMsFaLI+3EeoncS3aJLAlo9qmXY+F4noOQNixA6ui/k1x8eYihgfzX2ucFKG+C4F+Hos9iwzLtQgK/bTnQjxB+s5ppcc9Fx5CmfWhqI6wLbwDA78OI+9JcNzYF6GLD0oL74iQXEuBpZqP5WBxeBJaqCCdQdl7E4H+MbWEF1F2kiiKXUyxx34tLUz+mkpT1S+TuTkXCzVJYbwT1QN0FqxJ+ecP9rQEu8Xf/igYrc9bxNgrAGUeTaw6CTh3jxHjLi/KhLPUTfCC2pp8LRfUPlVHcSP5syz5uz06ZNCCMFERxpBqL6baUhj4ZDShuOjXjiHjNiNtNc0nxdDbTbamtJD5J7Fi7nImeuzHMhpru0aAZLIUgb4IpiUEU1wh5kQVWGfIXN0ODT4GQ+8w7Xou3eo512MLKcKL3FeZ9HAE1yKyNZ+cVBMmAVGWJMlDWjSiuotwvwl32g4ayWqpWo6SNQauNT0M5c4+Xo9xNqbAxJNmsApLJdSTrsV1KDkmhyW16Iqwtd0ewhKEWg6HnSMWEy8UMT+pICsUx28RqkysSe6IY97+WGd4CL90E0rxFXIOZuMZmIaSPRoPiQpWuZ+hsrfMGjmQlziEazmM6ziU+y90gJ3WeSiTaGjdPlHdGEBhLLOyKeZokhrm4iqZjxvNupgkF1T3oS6CrWQprqa/1hZcrE0wr6ylFMt0DeSPxHUmGKx9phageWuBJBHGYmseAU/xbVDNt0ctSrj2jJ3QG9eNnS3OV2VWFvpOgXE8PBY4IhQcNeQktDA2plDX+vgEZnWK+HEjCk4CWMLiLKabo3hXOptS6rWoI4NVd3N8Zc/Xe9euwazXc0f0XGynQ7pdwbOWwepaNJ5UcJYgxJ7FtTged6uJUEkeFV3jppvhF78mk1VD4F6VDL6zAsk1gliaMHnLUK7mIECHELs2ZluuT1laZh5Gg7Uyq4O4S8y4EfBz7+WOgNclUXZfbxLedci4TbMfgLkxEQiqeRyKJaSYT07QxsQ1tBA4OKUFwsUUAHUzwXzOVrZgh2RUrKUKy3Q41pjB/IdpUfIQscIkWWnS1LOxG1qsgXmvBOXeBA+LwMtde/yt88g67Dk2kHTVqcQKjY8JzZU0oG9c0KL4TxFib1NPeJa0zSpEIaGlTMWQtdS9K8JSPYpQ19U1CqsgiRDyzl3BrbqH+/E+jHs/TPwazLyMefCdWZRng9/052I8hOKrILM4PmksS/R/s5u1TD8ipr4XeoxgTOl0t0damX1gEtlRk+pQoC8210QNbsfDgBWmSbwnd3tPsX9eVpaZBNb6uEohyQku5A4aZK6iFcdWXEdDMXMt7rzXJhSbOGnHU7vk/kSZaP2Z9ChcigtAq1gyrjJMoPeQcYA4j2tV4xY7bzeWxyfQYhXapv3VTNePN0qcN5X2M66jYI0Z85iDy+gxhNh8hNhgJXKC5zpq4xku2JrjLVGrlmMIeHElk42S4IUl+GjBUreD8DAY9wosscepo0uK3KBiYJzUbN6VCLJ3YFa1EDuLGWlaA/Xci/GUYLxEbaWwVPUJVW3P2HniYx9BC7tiH7yKBihqTFYuym1nTcFuQ9knyGT9Alm943E5J/VEGRM7THKc8cINnJHT8NVB8FHvY+yHD9uxXuCCxSCMPAKI8xw8KQ8S166Ht5BhTAQAACAASURBVJWT27ZshJk+XbXt8wQot+FO3IQr7VOEWQ0/jxtPir1BJfygF8rDoqtkDKnEj+MemIMFIqMazt/jPo4huv9JLuQGCl1X8sf6uYGcnqSHOu47S/E512FSvIxbQOTHiIE8SnLDVArBk6xDxt3E+RAkejWF4K+JaM7gWRLq0rcgyCrws44cEMI3yR6bxxkZQbA9ySOzs3ZsM0L9Z0CUHYJpVUPQDPLtyJVm1uqy0ZXhCyQAzYNhJmWS3rsLxJHfPdgcfmqWHmcla+73wv53ei/6hedxsb4CePQIrdOEG6tRsIN4+nskh33EXVEp7o6l7j12jJsoHE+wTw8T758xqiZyhye1FpOc8ySf7XVh5iGMgF+xxETtkFltJJh/Q3+/Qcckq+nlz7rhTaylP0z7CzDshcTEpuMiGMQpirsOmZ3pt2IIfkprlvU0zNx4Acghxk5SPN3LpIheLz1Mqx6Iavwo1scymLaQXNbIJHmi82HLnsNN4X3caDtxNw9hzLg0TfKuUn5WemBkRxlij8AQXgbZfOqIdIj/x+gC/v6hpvAG8UJrhrJ2NqRz5MHw39zzVyeSbj61PooJJX3kIcfp/PDajuvhrZPAUPODLEHX3b5ez0glPrxXJleFF6bVJ1KAC+Oo6Ij+89dbm6I+hR1Yp0mF4d32QEFr2Ugt9+8J4OWWUcQ/e5Qth+JnH99t7O7+vNeEmZumP/foZQLWxMN2IcAOcCCbIJReuCwxqohpc2BaK26G5x7gEIIVN8HGkfh74mqY0RjQ4yxCbA0xMbMU98CwrqC21iW/3909F936vmvxD4ZDeAJ6WAS+kKQXG2omKX6WSVkEvw5kl08Q7BuhhwNnzW1UoAchCArjAQcmNmaSxzC6Hyd5HMcOENs4G6/vaQw7L3YWQMc9Y0neVerPRhYql3wgit7vUfy7HLeiKBZJH3N+tuFC+9GW62HbFe5Khtzvn12rgkKp84/n14Un6VFowljSRw/XOq11Uu/30QlAOpcijlxQRMw4nTO8IjzG/s0ZWROhkngek8886Uo///leE2Zq2m/uBaEBE/gsAUa8AhEBeoMInydL/J/IYAwwT6Qx3nfm94/8yUnTZn2bTPsDXCSmzu4FxVykhiyVHdxOMbElBxAL+w59lRaTCWVcLCnDjdwkxAnXIMg+5Yxc0m2UtcNxiyjSow5r9GnihK9SI6TbKClgtEN5Z94BteE9/pzlvGRN6SucEeRPZClMJJngd2Yh2Em9T2M5eEZ+BrLJr2njcwbNKYvWaYEmCjItsn+6sC48jrWTROm7/e6J6vG3FIbLU5MFx24fJf5/q3DKtAcbC0dRs8TGetE0PDD+W+/8yR4XZmpSb+9rCr/Gr32hWZcagKcSJIOPG1kBh/32rFo0qTo6PZPlk4Lhiin5GprUiWs3sUw7IiSMnjiIxSZ55CLlz5Pjq8LvguA9AsvDeGdSkhwl3d6asQ+w2C8TNxS+J5P0gMC6jL3kX0GIzcLFOgzBnlRTdgz7jv01MExa6xGSR0bvjNO2f96TJLw8TS2dNZZpGLfx9b/aci18ehywAC9MRunhvOnGQ2ujivCvlzeEmUCWpckRkAQb4CP/YVNzuGoQsqeZKpdcJBGTdkTvsX52OY2DezKe1iPCzHOm+fsLLLFfkFkjCHB7hoWYQsB43mLaLvzu3P5hJIkdaVJVrf34wfbGsPEclim1CD19/oopzNxj61L+Pp2f5xEYTpqJ5lysh/mA5I6f7UPTFqnBQTNKFKcu0/4imXkvTK9PreichQ4/Ad19JYK9jQBTFmHKbj9nEyhPeZo0c/+Y1ZvUIrNkZy/dsH+8A6xJumJkmR5aYwougQL+cG49heHJMxalra7n92jp8x93tIRapGN0b3rrQai5p1XUWIyoD+GrwPQ9Q1KPU0qq1CZdQkmFmQuwPmozPv7X9jaFg5c6wT2zqEW5FjfJ+NWDA2jDMbuOSnxR7ZOlhXuAzbpaaUYemUbXzXulJUkWn8IBHYRWuQJrzAB+hBaQLL8jgiMT3eV7uEe24lo0+afUB79U9JYmukPHYqV/ZVYdLpfOWFCS9RRk+CrOiDV020Dy6Ij8Odl8tBq8N6LdK9gnWPgr/mjC5VzCdbaLBLEf72oKB+iCUNGrXDvh5G/7eGEnrdd6Ggv1KeJj0iSpQqyedxV3s674f0OyRx1sJOHVS7+IGN8UGKGORU2nG/rXZ9VH/NI6wqT7HuNV0UdKIsyEW7LQ7ggJHSvBhrM26ibuxSy2nbCTTCWHZihCaw7wLg8JQUVCg8gdSZi2B/gSyR1HcBf9+Q4uI7VzFvmW0+GLe2i8RAbv1azn40J7GutjNtZY0hYt0kSkhndxOf8NDRJv6B6BaXvYk7ri4s69lJ9z+sOJjS3BYv/y9IbwAFZI0povGf8pyjF+urs5bKQ0xRpD6V0qBlBKeri/1luO5u68SDPRFbjih5Dpm9QaU46fJttZr85H8JKrxMeyyEukdYEmMyiSXwZ4wgoEma7npPFgaXIKBVB3/H/b1RwJsqRjlHLvC2O73ptc5mp4xTPjOou/7XhQB/8s9pkuqjDTBXCBOjEBgFeRZr8bwFcZeDPWWdZSZd0EmdMQiP7QsEp82Z2CTJdiktRymVMzkerT1AG9QWffNWewxogVKvCTCMOeOHhdvaNwEQcghbVObdOyjMv4ALUmSSB2HEccOPtK/YI2LZvPtkdYcVX8IotCTLvaszIbBmUN3fIH68JwaJI0fiqSx04y89481Bq1a2k2WJZRmpjkYdr9bAT6lwTGpUB+OG7opAzMwl9RgD6kINw/11CSs5r44rn3mQVowDMogLOwVEZzj5LGDM0CFw3oV/QsfIvSjHZoVM68RGXMs2DoYTiem6eBrluMUTD2FiZt0jNxi4yf+1fCGvvPff83P7iI0DqLprAVf7ZtSHaSan9J3EBWYjFnlh4Zk7duMhdxFv7sRaSVPzioMioQTJKF5kU8DVqFVfhrwIjbeZ4qfFyM/aFHOR++O+1VZKFCFEGBhdeZDl0M9EqXJGvxYHtWduMu+gT382ayNy9zTqqRYlkTZGrHwlHVsJ+zcaU8TsB7Lm00dLUmfewGsQ934lvExmxrpLB3lKzRxHWrwIl+M31IRXiGzLx5ZLQOw+2alAtote+Hl7xHqcp2+ErWBZnK/gwU4xW4Fk1jT9qnT9qq8EQ4i2b6AjTuuRmCdC8IyqTnric+7xlW0Iizew2P1PttrVGPwWXMfQxWmi19krayudO8i2aZbQe140+JeVwWzR7m5EXPmgblnBv5xwSYkZlnS9AebM0yBuiWJP5sN80WJGagCSOzn3qPQxT66gbIXI3ULZoM58BJE4X7AsoPRiLYk1ioXjbpcpxMxQgA9lRrOIgbWoZdju6RO12W23+mwqMLcQQuIunyDBbZJCDLkqYkS5cjlGJYVygklbEg/YpZpIn08Q7JmBaD8G48SDBtIcySPme5P5tQAD8gHrSTDE49GcLZJR8p6ZtL83mVwUVgGz5DM82FtrJhMUl1fIX7QXiJfRy3gUt6kh51KUrzSrPAmKN63s1od/2VKDjfpib3EYyFMZQ2dfcpmmV2k2DsHg5gBQQHpSdTTFtrIWJOcBC1aoWYzGnMLVDNuIfOjbpGQPbIlbaw81Zfre2AJFuHJn5g1i6iGraTtk7MeOFz4gci3IdF2ZvxV2NqvTHUEwgvobk+hTYnvIglDAZ392Lc7fuSxDiQ3oYJWKUPwaCWEwuYOjw5kofwQLYlWU2Rq41Vd0Af0cwTkPZu0+zxn0dxVN4qUMDMoRXRWZnFPUriyShM2rOyBeVYQO2teHhkUllj2oW1KNzlLePx8nwRQTYHmiQFknYsM30PoPSsR8BvREE+D41s7ZO1xxnXkwwkxuoJiHPNrPYiJfIUzTKT2FvRtr+3B40b7VvI5xQKWY/ujRfQeIdZN/VcQhmTWHnD8WMPTQiAa8dWtcktMOq1MOx9MCbrX8R46L7O0aNk+Q3MkBloY+zwC3r5LPAlx9CKI4mFKnO7ohCzDx3MeiduNPElbSqaxDXZs6u/+9tkTD4WhBtHfRaGPYV/D+F2JmErjmNLkj24Ez883BzWkuhxnbiq7sok49x9pj37myhBhUM+EO1ELftLU2rCg9aPJVyMcbbzuOU/ONQc3iUWdApsOGuXEg7Ts4u/x9siAc+eDqWT/J9QdzmfbM4k96cwtC7nrQiwtymI1stz5ZYL+h6vLutfYe+EGrST78y23VFtxGuTxg3vtMCiCTMHV6Btg5n/EjPYPkK6BcqZkSvIDEqMIXD/LZCp56I1DcXqSHJ55G8etr3Ew94+0ELSS0c4x25FQizJQHfanV76WXQJWYBQVF8hlfpBELtrE6ZSa72IarKGbNZNnAmbZ8rAdT1nkS6dcqwfOJshvIzCYxx1HJZZEgvV7RS1whTzbWDnvbmnKewGgsls2SzSxPVEd4jHjLwVIJx8hboi+14lPfqelzOABryxuzGsNGPReHvSQW7NpVz+1U7K72jihv9yaUPk5UkjyEz22HyqJfxkN2DSxMrMCcoyWfT2NLKAfzSnjq7ydRGEWbEMzKK5GT1AAqiKAN6AFLN2aC1BSpSSsiN+Z2Iv7jPiQE+BTP2i1hio5UkZihdQQODXqHv55BiJDHIqnnK3SO912U2jHVAbwh9w2B4hoSFpDMixvYA2zfybbY1okh0RNJfWSNI09XvNsyd/Fwky6DLVepmZ9WE+CQ1J8TIdA49KlK34CXGgdTDsSwh3yzPK7oLEJK5r0oU2D6v9ixTG2tYnqXD3VTJoO4T/ZNu1sIEsThlelgVZtNeo8QMGhvC/P9w/jMW7kUYAeWe2Ekv9y20t4STZi5EFnGagmPtZ6o9JF/FJ/2RObVRIPYgyjWIup6iWWYEYNkrUhbKKzKxf4S6oLpJPtLvE9iDYimQoCM/TSY99CS1yGumxSS+Oh+wqGDQfHW0O39/W3Amn093J9fL3FeR1+P7mj6wIvzO7ITV6ucHdH26/HvWTuorF6gHO8tMvOjQhfHlydfgmrqI0yQyel/MoPXaFeIt2LSdwRxdcllmljWzoBtb7c4Amf5vicNsbpWG0dkTYbHgCqK6jWGZJ72K50U+BU4nPbPGYivDHC/sn7tdXWI8CfTuC7P9Z1xSu4+kpJtPvDZrJB25gqf7dmTXhSyiEJoAUe01FtcwKRFI7m0mK8iDUVw/n69TN9Ka1IiFl1sILPR7VAdVSjZ6sFXthbdbM2fn6B8DpbKM+Kouxn8JaCoJGi2kMmQe6iNSY0jwy50P48//bxuthB9lnlRkXYwXa2IPtHy7uHxaRnZfUci/Q8eCFG+EHFLbuwOoQN68370Kavb39O9JFhj2ShrP/EOiy2VhlSWoMbz97JkttwIX27zc2RwXzWb9L3gG9UktpjfKH0CZp49kCbRTwG8hs/ddrr4dB8C1DFll/VAq/PVVB1hC1iynFUxJh5kQVYqNJt3wGiKPTmMjrucg9rXV58XQFDhWpgv5Rj1HgO5v+Uf3x7SRhTB5S6zv2kMCwmuSOd4AYsl1LGh94KTYx6ZgRXfhTxwGTWS+jm+2XEGRD7Z+R8JGx6Wr9gESGH+xtDa3kIGddkOk6G4qEt7XFHywcEGFOJjkvBRIKhrsJa+z/2471Tl2NNZdJC6kTbkdJP+49UPFZyF16aUZD1KsvjevYEMQhCqE/oRvC34DD2QBdsi7IvFNTRPWgsegzFImLdJLmMZFsHVmc/8e6xkBSaJ8RZI+OrghPkobfv0SCTFqXxM14+yYqTPYT/P8R/vC1AOr2hFZq5Ertxl47M1BtHoeIS8maaYCQSdl1E5ztCBdvNQktCjFTYj2nHtV0xzXNES/edwzrmTk0iWCmBb4LiHE+RAFnNepfkvV4ebVSd4JoIhDuOqxUlPVUTL94q0s/UpT04tdZg1BDLxBHXTahLnFszCEcx3q6X+1rDq8fbgsVSAG1xjRuuPQrKu43FfDepxfJVHx6Sidwchrl9Cr3R6Xw+3SJ2EQhtOVFSe9kcVfWvdHca3maYYsXptZhqZJERv1U0sdxBBN4n4zF/0i9LuG2TNOlsP4KtMBlowhdzB8QxrHZySkTn5IlF2ZOxXqaA2TifJ8GeiaF1HELSrWoKNsHAs4lWL8cf75Ar0OwOOoS2qCOc/wiNR3Uu/wchiQsV5VjE/8r1dzjb1vyT3pZ7II9mou2CNfQk6CWjyNLUYzJpC0ndA+dBj9wOwLsb4DUaWrKbot6KQlZoqw8rdTFWBvPktk6eWh1lMGZ9NEa23+2NXx3VwsFroyq1ZHFA3Nr4Z4bFaAZZOV9Ebo8DKLHoJTxDjEn3yXk8CmK4WFKV6RLlgWZlqrAuU/S7uRRUT3Ihq6F9yS14h1HQfY6XUV+DP6kxy7rrsUoJsz+roA2r8ypp3dd8gS7pHevR4SZkxLK5QAxlR/T8mTlKbIci3iK1ap1m5l4oob0BKb+QvC/TJ2uSZhS7lzNxNuDEHsdS8xCX90iTtdDmkW+JDMSgeAx3EMidE+nZ5K1HbpJk6xHpeTcdXqN4QZZwx5uo4izgXFv5UhIusw91ryoXNma5EXihQ+Rci/MUFIXsgH7E8CWfUzS008BThbKTLdiUsZWTgRUwGNIhadgSCZLTQH9JalS6Hr0zuw71xp+SHq5HeV1pXnuisgCepxs3qkapPGXJ1aH5/D8jKQ2NU3vLlFxTsBvPoTXvMm5kYdl+cy4Ec2swS7ZK/D6vIogE1i4J9aUQvdMd25kDhNJUX2ZzKe2QH8mUpP5a7ddL+0wDC/LYApXH4d4SwjUT+LSmXaf1A9/Ga16x8nWsE7MwLMdUTZeO1wqqy4ilaMm5j+aTLOnSJteDFOaNLizdCLp4ToPgPR2cBQ34yLaQqbqZWJANWqmSaRhuqNTkm9Jm2vQZjo9pBZjqc4Dosu+UgMo/E3qPlNR20ZG3iriqWvBy2vm3GT1zBSIrbXawt5+Fbfik5PqwiSQX9IwawXXZuKGb5PVvIsazGb+XgHxs+py9bi3wqw9Jy+R0PAYyWRjrDdMcQ8acf9EIAucmfWUbIiUk/TsleRypBxUEmBgUnNIx2n48Bc5O2MQ8j3FI3pMmEkfL4MN6J6eUBs1XzxEwWhtSrddJzNCiBGBnoovdgHxn0VjqtCwq0J/C/ESbIiNQ4+hHe1Ga1yLMDuENWYqtaZ+ZO4nGSzBe0v5UWMcrUx8JggVyxFiS6iNEv8saWq5jPooGJO7wILbgDV2GDSPiwgynzTB/1KuOe7YWlF2953BWXxqQjWJHgJJQxsWlGSrpc01GNIBYj9CLwmGa8uWrAFr3043vRw3IEIVXPWLZP4+gateJTSNIBOyaAceDhuL7sWKb+Hv0jergkw6acmbvfksqDiP0grqAZh1GkHWhGknzqJgwdu5WwIMZNkdLW1g6WEAi1CQPQZtJhDGSGpQxL3Dd/pcj7kZb3+5SRUbEBo/IfvNNHeRQtRIOlnknab52z9rgRtp4qtJz/YPafaz6KslwGmSok2Z0UX8KBaybkRD2gdC9yn+rr83qz5r594GRxJiaREIHssRYvNG0j+IU5VUQ/KCCSC9hqyz/STBnEHAS7Osuls9Rc2cHa32eVy4J8eZ3VpJqnByOB0tDLHyPDuboNF+gKRb1Ky7Pr5l+wkVoApu4XigqBbj5XhpUk2UXp7kTrk47/EFONunWKq6pA9AG91nSRSFciRS5OUAXOEZBNmLxA911acRzGJPriNu6LnZipfDOGsk5Mtx0THm5Lyb2N9hDZXhYe7Vl6CN3TQE0ejJp0cts8LCFDrzCZZeIHHgHFkJ19D0ZcJdHYxCbGwIbrOxEOtVMs6mcvGsJE8CaOo4JngY49gFDNXHdPQ9TGm6WIqSP5MMiTWxpCggPRw1eiGC7FukCA9N2LbGPZIZGZDeDuTSB4eA6KJuTKgyf55lN4jMWkE2F5fi16HNOKz4Oso0kl454cuORY0RW8J2EpoKRdCZPDe3LqVnR4tSF9HjlGo8jyBLijlZODtXUII2YcW/R2aehdAdXLikNL41rbL5l2enP67F5Qj5L0CbpLB3hYW0ENzfgSW2kkSYQwCSN/L3LAsy16WCK/99mHv1KLkKvSHInEevWGaFjbUXj9lNv4ZhngEVQSFzr0Nfj6QfTObIqwTq5xOoVzNKaiXow1eIauK/f5BCVixDa8Zk1Pd6d9ncqjtMpCBk6rAwppEA8yyus8VCLqXwW1jSYPHzSgT8J8dohuhJ9QUZfjxXliMMRgn6Klrjo3T4VSFKut+Ocw4hvx5L1f50O4gftmfd4rh18BtwzT+Eh+MRXNL+qU/hH9J9ewog6VXgcf4KnNLrtyyODB+d30y9AUH2FRpqvjCtNgJUTvNozW8ktvpXwFOdIwYdKfBpBiqj77iGKkyix3ErfgXaaGTU9pLG2yuWWWEvPBRPoeXchCKrSQjZT/p+JNFueyJLCYllrGcxMTGzqpT8SV1mEl0f/m60ok9BcF+HiW8SQ4HfZ/VQSQfpMwbm/BDuRLv6jiV7KOkj1a8RSNqHO/G/bb4ejpBWnrT2LOk7e+Lzsp1qso9GUAT3nXl14SE6Hic9O87TuOo5XGdvwaTt8GsWWlZR7m+newXukAF4Nl7AdbaILOAJJHokLdVwPHWes9DnTWjz070tmWzvc6fzqLdoMHzqS5OwVrlbA1P2omnFAtuGS/q7CrLr7VgRXXui7jSfcvuZdWSPwZct2xhPjCxpFnAx19OrlllhIaKIb0Tb/QU1FkfQ7H5jCkCoAaZN0yDt5Vn1uM5qUrm5LO69gCb0c4pYbUlvC5IGxs2qACvQzYM0hEJwtaKluIam0hwyDSMy5d7Y4ftYY/95a3OUZdpLylXRzrbCOaIP2soiShK+Ah6cSlCaR/ocJAnmP21uDIcR9v3AmFMg/rbalWbk3v2O9BnbP+A2qwtPUHdozWHSRxroOjtMAtVPANx+mxTzYSk8Aknf2xOf12U/BEH2Kll5z86oT53wZBr/JnIE/tUn10E70Z3bE7PviXdQyzumMnwDzFItst5eV1kIM8mu1fQRWU8fwFD3EKOpwaU4a3AIj8CoV0yuDw0pbEjjYldxC60iCP2XYOOJ/+Z97So21xPHIO07ZB4dMFPxzexcuwyX2QKEfBp8PCG6LD/YTPLLD2FE9mCzBXvWH2lUi19xEkqQWJOPw6yTotxLA8fRerd55r/f1NwJR8XPsnx+CuvSml8EXNcrgEpbP5YmW1Fvx2VCBW8RG3uPe3uMRI/+nJ+sC3kjfPZRmwLwgskMCvq0t8LeY9u5X/8nOItRTWbWL9dv5t8vLBxREf5w8YAwltCPyl1vPylERGmmrBtxie1juAzDET6Tif08Qgq/EChpHuNxOwnO/xCope1kKQo7mNLVneb1JfmOzOMq/3gEJrT0gdrw7HRatEC3NOfIlPJ9pJJ/ikWstWr2SNYFmYXhxm2GoLE8T2uf5aAyzKBAPM2jf+Akbu//vr0pvINbOqsdoD+7duljtfIrE6rC84C+joERpTk/jnMca/Udehe+zR/drt7drAsyzxA9aMMkYPC+SkhjKcpi2sf+fb/c3RT+AjQYz08aOqd9dym/595Phj4qQuUiyFxv2VhmTsaL0MRpukgfkVGkeVbhFUp6AGxBspcsvE8IQr9Oj7EK/m4LmqTjlPIwJB1butgTTJfHizCh5RNt0ZIcosv3ao1ZN/YBAmwT4M+HcevWZJw+rstM1OFoLLNRgpaQHLQMpBMFfVKNUVoL12URtJiTuy8bV+1EgEm6b+X0eddlWYLoJr8/E2sDb0d9OjkfFT7v5o79QMguSxIYVzGW5Tvm3KWP0HeP4bJ/CkV6OgkxaTogS2vh797ZT4uoPa1RNmc6lbycTlDnXMzqHA+u6z+ivc1sant7M0b2WeqUlTArTM7DkPRimIUnkxZx+l3qW06RsRi5FFOM9Vki9dbfzYWBrwYSPcMXx3ZCUS0Aa1JIoaT0cQ3nGGjNkRbo01kXZbKNXsU0Y/UWTT77Xq3VMzDXJRSHfxlYodmkB4+mkDWN/97YxmlS7t8+0BTeOkLaNIpV1hUh6SWNuA4E6itpRFsXFpDpmoZJO5YlG6vIPn6bfnXHTGSAZkkVhs/uYW//3fN/ES49C0VIa+whwIJHpXSdmQhzhi4hbyLI3gH1xOzprMef3R95cgcHaTwB9T9e1D/MBMO03Pa9LIVZksOtySuTXoXPfisZitvRFAudD7PMpF2X8DYjKdJ8hZTgpcQOxX9Lk+DBfQJSqCV8CgNajTUmjI6ns9wOY5J997N2tG5HsL+EO3E57iATYLQ20jAP3WQbCdLLqDcCu3QDokmfLJ8hlSGRTlpZxO8SO1zBH5lRGkEvvU9Sl/n6nqbw8WlqQ4XC4P9Zjx+6v8eJa61ACbKf3wKseuPPae6GtZhHodGbAAZ/SHZ2G5c4zThJ70GpP+85khdNRYD9g7n1keu+nCyywvozLcz20vRQvMAdpLzuRojpoqRaLdMmvRqQFoKF5U/o7gDIVAR3a+ySXgzHOnWtI/xiZyNQSx3hRKMFrNnvWuvh1Z1sg8ivUtsiPp5IFWmYtLTeS+H8BmvH+HMKGvm/LAsx6aM1BonCKGLOL5PA8DiwVNIo6RkqMIpduBV/tLOJ+PNNlIi+cYZc2xmUmFcpS/iyJT8AMKRJNHOcTlSjzvDGujPtnYDBBeJl+N+eo5u42ScC/fYn80gWSul67QkSlE0CSJLFnsW9sY6C3k0keJzkv8UKLCBUpL2sSd5fqs/KfFR151Av9gga4iMIs2EwIBGokz6mk68D4PVDgvNChhlTslYqy/SRBgpoFOmwEHDgr8yoiyDNhtDWJk1MQhxF6bMZZegwyR6XbiHRZJ1GniMt+MnUG76EsF/EWbKmM8269BCs4Rz9nGzgY6DktOJHSzNO0vPbE5+/xOJea5m0vQAAIABJREFUAID7BerHJiLI7LCR5tFKXUsRvTWIJ4hB9xWLzL2vABV6Jh6Pr5FsNpG7ltY9nYauSb+TcvuSvqY4n7cVyxHiYmtOieDeyuXqhFmy/YvujuQsvzjzKsYoBlZHILimEfsRoWIaxauCmCZ143gA7fy8GZfZWpiQ4MmU2EVP1pmQgkycwPkIsufRph/CNaRLKM2+H8cdZK+6j2lPr/UqWkUHA/UFGpnNORVNWpfZfLDyhPBK8+h63URa+bsIfFFhdFdnnT7SwXNEdUsEv/SFyQgyin3T9K5zLJVoM4IFYjhSaBeV5kCm2aASfge9N/J0iEW5Aqt+Fq7FNCGOEk7xc0NnSpgJXvo2WXifHG/DrNeh2Plk/ezYT2sBDFrkf60yUcorE0oxaaGrYxfp9qu5WFsR9uexND4DqPK5A5CVHxgH00pdjrUaCXu0xDSPbpMduMzeJ364JUKBuXWOMq4MSQsFzQis1BU00BT7dCIKUZr6Q8fyPFlI/y6Qb5tpwuodS3gk02xPyb/jOgTAnQkw+bdpRzWFjglpYqxOVPqsJTYm2MNpPER6PrLOi1yXey+oxFQUa6HNnsB6HZAS+aTkG3rbC9JxhJ6c4W3vso+QqeWemEiQ+Y+Mnh6n7iUajBY9ARfHCwTn5yDQ0jAfEyGukvZ4FODSdylgXQvIq5iB6fTxXtrcO70WIqlBK+xHwqQXAJ4snJlCLc1jSvlxtGcBcD+h9YaWfkaPz28tX4VF9480Wkim4pOUJYyisKm7LiGF43A089GABZ+DcUfMOqsEixgG7lcE2STQKp439T5lDaLjRAlDWK1v0VDzFNmLKklZJc3th8mzVM19m0TpzyPU/S7Furd3WxaezCWAHL54I3x/R3PYSULDNaP3GXy8V7rLRqHtGBd7nnRpU4GTXgYvkLExe7FttlULl2sTLSUGcRgzy3Q+s58ieUwfSu0P1tiTCPw0PdSkt8lBO+l2/IMdTXQBsCShjwgy1qYVP6ahX3iaRI+ncL8KwF2sR1R366Xeg2mfIL+/oyO7d67GswSTfnlGTVhC+5+0j8qj8FT/dmNTaCJeJrX7yn0Tq3P8wH7hVeLR1pGlVRzT0rY738ucMHOxB8hifAPTfg0WSKOO/FtaV3cI0RPfdZoeFjHw5oHiYbv1ORyYNHEI61lOoxHuArn9v1Pce4L/ruRn9Wl9Jj1BgBjvKGylcEvjsC7mAdmlsH9QwMgUj/rOOWJiayhN+OHulnCZsoRaxk6qOKR4dcm/oljpx1pEhHluej092qpTZXTGmehe3Ne/BPJsPWULjRKVjSqeyIwzg/Sf8Uz1J5fcs/Ti9BruXHpUD+HftlBQ/x82NYVmrLO+cI4KlFUgT0XYv0hCzFJauZhRnaUnk8JMApsI8j2ghnaR4CCuYzmT3csk41GQTQEG5gtoz0tIJx+CBp103o5lMe/RS6346slWxBq7ifasxZJ0rHI7qK6tDb/iUHjNTGJiz1NfNxPXq80z0zwW0u9B2K881BR+ShE0UI0lY/Zp5pf2O5104tsoLi+PpxniDGCpSMFPoxQlmYPxxfex0lYSkz12ndR//I6lfmeS+X32swU6NXB+nhpX1Zl+nxJs2rGbuGdv72sKf7mzhbX3jWLoAs308ljq8h3S7+eiFGVNkLmOzAozJ7+Pdi5vUWX/IYgfgginY3mfvQLF+3skxPhHB0LM3mLfnFJNm43qKOic5jFceIyssrVHm8MbMOczpCnaUDHjxlhECoW9aQYPDcVdRjxDF8cYUsvTrM2xLpIstJZMxV+QwLANl/TIDASw45wJ16bAfwC34iuguT+N1dqTjEdHyN4zoOyQ4fgpnhHxBw28l5si5d3D+x7mksTwNAkMy8nIG0V2cJrHsS62hPDB/ias++aoxjHNuUzz7p74jnyljvvxx/PqoROu/HRk6omp3vMdmRZmruyUHX8RZn+2vTnUsinldMjw/GFVkLiAe+MVumJPIeAsoHKaR9COraTa/5I2NqspyjRtNuVQaV5f0u94mS7zj5fpbaevfiwdoO2llubRSjft/m1QGH5N7U8HfzeBRIaU9Uc6sZwwA1fQ33moPuqW0N0kj7Q0uUiH+I/JCH0PhUHviF0JykWZVIFsYmFP0WfrSdBh5prEkNK699yIMCRg8JusV3iqvnLv3HvPVBMb96+XNoTFxBGzKshcS+aFmYfNNh1voYH/VxJDBvCD3hRoiiqTMs6TFrSYavlv4n+eRhqwUFRp5lWwxuyK/TEZeKbbZx3U1YNXeAR3rSdb6h/PrSPmU0v2XHpL8wDF4ZuIZ2zA9bqLJA8Od2QypFMfbp9l7/+3DNpMvMWjKsPXZwE0Tdp9GsSTwko+BqNTi+4h4kdpGJj3zoy+EygOr6FgfcrZbEHj6m3FQTqJaPdVmmm+RA8yuwIIOpDmDHh8xKL82+2N4V1Ayzs4q2nucO+fnjvPQMXoOoT5v5b1DwuIkaWU93cevBd+mnlhJs28WFdg8msJ8v/fZBjZAK83Dp3zELB0Ntl3rxKQnw2W2UiSGKqYTJrLdIl0+/XHWiLQ0qPEKNq4qWnG6YVz1eUrdZddJva3gljG35tvzAfcyZSqvbGx9fQc+zUIDHYBsGN2X4CkKhDRfAs7HNuW/nmKfIeSgt+dc/Bn66+FNSex7vEPPkWW6BNkiY7mnKYZU2XrGkkRB8wy3tkcJWUNT9Hks8sDE+MDzqUfFuLX8IKY2fkAZyptTM+xDtKI9WckvXwKSMNN7l7asWJMvcc/oiDrQJnRItPCL0esxaRE6RPCzEUrSK7BHN872BT+67bmUA0D6MnD5+Gv5CI9i2/+ORjOOALN9TCLNCm7ttQ4BrzS62QpbiTVvlnMyb5S/cw+eZGE6//OnFoAgrHGuoEZeJ7Y2JtYButgohauRsmtjt9HHt3L80GqeB6B8zDxVmOvaYSOJDkH7uRfbbwWNuEW1CKmOoGmnFhneA6EBpsEakiaOkdJrTdC+tut/Pt7WkKN9yHNRFPuW8FyfWVqTQRPJepJ2vtv/eEBYtN/Rmfxo5h5KpF95fFuqEg2cOf+eF5deIT7l1aJLDea9BlhViCsxcOrjjSHP99OxhGcLe2BTrJR3llrM76K+2ceiQuD6tJhBfpO4z0/39sS1lHH0kwA24vVVx4vkkXQU3CR/Z2H6oDIqYna2aR5pMpBAIL/CmtgzzlQ7sms6zuU6hTICq5Hx1dHaO5j6O+Xxh0obS3j2A7qyfdxlx2kP9tnmbNZtiPpUSWw9RNYamOBd0ojh6T/NRIltp1tCX+xpSkCbe6p+JK96745W0Dluuj+pZm/tBKe6gM63r95ACzKKyLo9J1TFS0Fwgg4/fdx6z9CjCxtbDrNnS31d/qcMHO/BIw1hfZnpK53Ng4sPhmjc8HBGIpas4hAszVjY0mPToMVqOLXjC/pfS7ReuI9e+iM3YzrJo1VV/yVdn9EaaVSMRRX2WLSfm1FMpm6sTQAys5G2K5NJHf8OUH5q7pf5dY+aTlY95dYtBFu8ZswjljPl7Aw7K1l3CetG0jMSaHNfoSCdPwuVobvtPC6mpIIW8T8HsLTxpQK06SPY7k/uznDHyIQ1uNZMLaWfKSYb2bgYczzVRJiHsFd1h0X7AWyg3+6tzVsAXj6NLWJfcmtX6DmWGL3zxNPfAbvUf9ecgfH3NnEH0upFyd+T499wUszBM3sUVJMT3AgN5D5J45jsZ7fmOlE302PVpAJITSVxn5prEARti14/gSw0g0waMGTvfwp+Eixlli0cWRs/rF9zUQEvQxyOVhvU3BnpUleUOiLUP4JdU7v0YT12CUSDtjwnnRnFY04dxgITx0NZalFHFKBhVEbFnOuhnHG0qxPWl2HVnYEeBM80yO4zQTvuJOC5J1p52A3kQK45wbF0dWtYRnfXYZbs5aNSnKuHUuFbg7xYr5NXK4fwqEtXMBjoqu8mELNUo4HiR8+Tsai3cXTCjLPqDV0H5PksZEEorNkL0bxtzvsURZ/1KmsoEzien2Y+7cEod/XBJn70ucss9sP22ECuL8EKWQt1s41WzZHK053HP22DMJU6NEcitlozEsQZBb12mo96eNYV2EY22A2H8GcN9KXTdxJOi7ckeEkHb+3P+/6+kEWYZam049tGZdoMgI/ba2P+shhGPJ7uJDXQK/j128GYAPTbmdvk+dz75d56iozPvYkcdf5MJzalOUJWkZ2O95OwfjrJMUcRUFS6Mc5+s7D7gFaho/jcnycprBRck7KuZwg9mt7lA24zfdhGUbYqt05451fjy7JBFyjX6LObjnCTFSdNI9qrggxxvpWHr0RzhD360sP5IoU4weJ4S/kbD2LV8T97ItPn7PMbt8kG8o9Mb4jXMDtuB04Hq2gNI8HXi98AxcmArzFwlhKFt7s0TWpamtkzJdJ+d3JnN450Bo2wnQ8cNERS3cn0yyrZN9xfboQRyHIFhNDFGZJoZ+2xs5da2LvtpxqCa8dvBH64VYciLmSbjdLtuzUA8s+PVszyIJ9BnQY4ZbSCjJjPkeIu9p1fS3W/m6EyfAEpp0fVaE6Zldp8BgrsKaWju3sUJ1GoI3FbfkYZ8Gml6hr4Tg90a5zQLyKCabVSVu+I60q+KJn61EUpGUI/rSCzEEvgzdpmxvjZGe5k56pPnAFf0MvFzMa1+JCWgGJgN9XBZkL7tPCzAXOw1VjettFYge2NLdW5E6uls7d//w/FWReIF2XS2HIHgrxFNOCuZpGbm3OBgqg38D9cwo/fR1+nL5ygaTVTSwyMd5eAI5qDrVjNs9MzLg+sxU3YNLGMSrZywro1ZcEmbiBj1A/9gVSyqdRWJ+WVi0kDFlr9ybW2CYUpNNkeiYRZAWSez90dzbjevve7tZwErp/GQtoAsphmoQdy1OeJEYzGgH04dG2sI05nmJunvkkPo1oz/nS8AbAgkHTWTGJuE83/PEW2K870Rx+tKcVi4yzpSDvKxcRUsm7BlHD+Szd6pfgMhaMoC8/fdrNePvG7QSC5z9tbY6aDFZyK7o6tF6cqOknJ/wRUpcXI8QW43IZSlZZGmYjk7+C5qcQ+5CC1XVALFXxkr6SFqtbMRJkEOdrXJ7HsDCm0KE2Da3udOHcjwto0asOtYQ/J/U7oN13g4/d6RU9/rN2GGcDMamvTasB7b6W+Fi6Wi9pI+jt6qMtwLu1Rhb/TdJGi3G2ZIgqYDOI4704pTbCFB3cjWxd3Z8RaDFW33aSRPpxcPRI3Os+uj7Pl33IJqIkvcI8FlPkW9uNA3CFsMPb1G/+Cs/IBYS27+9Dciwqf5E+v0+G57MK/ZRu2B6/FN144X0jzKTRRmCv/u3mpkgLQ1m86+H18ugqG45F8WUuznJiByNgNF6mpI8JIzIDrYp39jWGVTTzO4VQ658SlSDp+3vi8zK8ZgIto0Hv+AMaHoomoCWbnFpdz1Ztegfxl3+1vinUQ9fqDLZykTG3QR1TpP/Z/NowC+9BWgvDs3olwg1sDD8+0NlsVP07ifeha6pTR8YmD4Y5Pg2w8XNT68No4i7dcYUexf1p26LX6C13lvgnOuJdz4uJHsZfl9PP7jniY3pb0mZ3Sq9rzSH8fNf18ItDwFOZbJXEPIxDrF7+jPfxInfjf5lfFyweTxPT7+UlpHr9fSXMrNnazgX6CdrYhwSl6ZzxWxfIg67wEdftZdJXXyTdfjSmeRrXimOZPXaAJJQt+OTXguSxmyaHxiOKZa2k2vEif4l6biIhCP1xleHlWfUUi1eVHC9QYbAfkOk/3dRIlh5AtxC1FIKzyKSKhjNWVIUiMxlL558tFvmk6p5Wyb3mIB0OkdH5KxjzJ2TtthRS4EtEDOeukJw5pB/AAPXEjWsi7NF7WVV3m7/3Q2vyEN0vfgLKxgegbJDw+jm3oxbGaJTK5ShIL+CGNYGoO3iU57Huf7j9engDgPK+dheltYKMoxD+OYLsWVy7dogu0XG429b22s/vK2EmlRVouhoN+H4PMNoRt0kWLSiRKf7FkobwMAWkaeugfM9lYnSbCMC/hSvjCN2NG3lvXxJiCn3dsNYi/f5MYJaoieoOvdLcALX7721rwtq94baVvduR8GgEG2Ub+t/Bgu1OB18F2W4E+nfpq3WQbMWeKu5VCPnuARD8i6BtPIrbcQpZqmkfx7uEp+ItUFz+mn5z9pMo3BOFpx6Mb1Fgv5TsTuvt0j6+R0H2H9ZeC5upffPpi0z+ONL/Xy6qJ55YG8XL7qfnvhNmbq6dYnU1/mxPU3gNKw0PIm6yEF7AGvsDcAJlMt1wx4dtFKm+sb8l7L3YES7jm4/+523qQ49unvG4mmQ088nq7A1XjTQVoumnO6+Hj3DfihGYxkoo9ba49VaGzKP26hsz68JMsmG7E8OQyX9K3PUv6RRxEQbt/3r60UITOWQs6fFfBQprGa54obHSPrZV+RTvxQ/pUXiG7GOXNByr4k8e7h+m0jLJbMi0o0udA/jd/mzTtbAfS75DadzHHleEbhf+KRBVz0ypB8szPb2ySpr7Upi5WZ7n42i074EUspWD/odz68NMMsnSpB8XNt8eWr/C2nsdF4bZdxA3q+fijvN2NfKrB7AuFpDR+SXAlG3ol5aHuQcyFrtKp43xOCeD+XYVeIvs0PNo+bp3y+XxCJh2/wLtbZYCH6QVkzbeI72sTTQJ5r/swopRqvX2w8ZZJD0Tn/23ZtcDHpA+Y05czSsoJN8FCPkg7tN/uOT/b++8g+S6rvR+JnVPzyAOgEHOOQMkAolIMICZFClSpLSiVrtarWW77D9sV63Lab3lKvsfl10bSyuv1rtaSStTFMUgUhSTmAMIksg5EzkQcWZ6Ivz73mC4JAQNMO+97unud25pJGGm+757v3vfPfek79QSOVwZaN1hm/oUYfDfrmtAoPWO4A879mv9nnaBKo4/QiDRndNrAsGfxJZYYabFhs7PVAZdZ18/Dpywh4xye/Zj+/8ufHQHSQwVw3aE96/g9qFeFhlmBnGqTBsCHQ5h2pM5tFRCJKwmJH/JyxzKMi39EczdM0hCD3uR0PjU35v09z4mx4AOrJfXQGPSz3gqi99DKZJZ5I4pKCas4Nde3Ue1yVcIu/8lJvJK/l0oe0zjkJY2gND7r06vtiVoaaoUEaYJM/GryuQ/ELzCvpN6tuip3oYpRjRxn5DfVnLmkUt7TGV37qFQ651TM5gWw+EeZq0K7TuJFmZRF0MX4+PkjL1COPQThBpXkMwrK3UpbacgARqhNR5z0l1oYqKkUp5P2ENGNIoHEPzPYeJ9kxpYOqQ7kIi/j7lyBRWmFfYdtmW5VCjPSmwTb8HmcAQTZNiIu7Bj0PcCKxbTuJHcsVun1ARmxXQEM5n4FXd92mo/pl7fFgS1zqtC84Z0CW9poStGVNp9CPDBBGuEvexEwV9jOUkKwDOkcKwj4EuEx6WTmfhPyGiefXk3byMV5i5IzvsnWJAJlYQqpFFelc4bt5zWost6HLqs/ZgpL16KJAtrLos2ovi/rRdF2k09/kMxBywkmkyCTIdVmEu3BP85HJM7Ybp/UTlG5BrJdynfZAdC6CnK3WSJ/76ZVIiBmXCHoAJQJpLb1p/v90WKvQFF0TYcCTUMOLyI7Bm2ir5L8bxbRlXaSkLYR0MjFCYaVk+VoD8DZm9RzVl8lHvZZ8pN7A0BcTUUhK9+GmTyPdRm51ubILRlz2C6z2dgkC4Sn3BZeo0L5ntELKtwb+cbe7UZFNffNSsFeKwkUO1moq6TrJF1rZwLsx7sYW0g1W36FP62DZTUWMvLshNNoJmbs5zf+TowezDkUB+V2VWBnWOIHlswLI0wq7SxdZ10VGHmKDPs0fMky4LVu2C2TfW0OPWrLp3KCh75lMuByJYVfDN/KEzo+OUkFHrapAEpYnA+0W+aQ/M+SnmQx6SNnkttRnujlUTlIWiWc0mwVxL0OKicwmqG4jA8ik9X/IrvHGzFxNhO/xdJhC5sHUNL2sClZL1SBTpa7GZyN6ZgQpbG3fPV7OnqGzlr7fYOgv9D6tvpIqB1yeW693yE0b+hi2GGS6W4YRV4M4T3NB/YRh95bntwM+M14qtyEGLT3k+E4roTLbYRJvBD/FvO6VJ6WfSiKEF1BlrYChJU53KzruNlCSFXAmRP4rfYjzP/PbSLrQizgySP68W7PFpUh46c9SMQRCIlnkOAyRSi/8IWi9QNXZGkYlx5jci/TQjQnOQV8RyNXdGK42GnWAlX4I0i50UjC3vANHI5Utj9u2g4wkx0UnpKMe0zaaga9SQwWUbgy3UkPI8aQA5iWFCC3dR9k9/6rQOt9irrrTJQelQharHdz6L7v7I1bAhm/vkExtxN3l2uMe1+NIX1V9fMrmE9xBIgzUHkrap1tOlkexB1JY0ih+/mNYws3o9IkKVxho3mALoNOqq5lNXoF6IigEalA/4Uwn4TQl+4fcj/ih9TrDpXwky/08XgIN/pQPA1tnD7BOAxjEWBJj1tOsQUcHGdSsLz/8+0NgecmBJysR1wlw5s0VLVI/CXI8SWIczCVgbQHJuQ6HvPUkmBoIW1YHaevSch1nMEeopYvJ/XkmkP7OAi09GeRatMB0EiYg4JG+jT3QhPEkn8LsEe76GViZ5KV4nY1rm7B+fxb4EJm808B45YXZpGUkQ1l5eDPE4tlke5ZtYNjHoZJci2cUveRIkWRcqJIFU3zhDnazdP6t0/KXxccxKX24y6cntsFswUaBZh84YU5HEGVeUlgjzWYu45hHam6LRrxUwvrZJyVfvsRhKMZ5HHFuUA1LM3H2m271N9/ChRbeVlndphFNS1N4JAD05M1Rz7BvljcyBz7R9S+GssMmFvUf0xEog/PKH6Y4WZN9dT3LLckurAZRHmV+VAjcL8Wkt2dFzCRvX/ntzSZL/iAnABjaw3ch57iklPP6+Lpth2VCngERLuRyPISqlKdE/xuNLnXZhdCZVLv5Mg+zX5Sy/sps5RU3tgBtMNudhuyd1MMfiTfEvVHDaPTk7bbTAHVEcgJVVE4Rb8PC+Tb7cO054YV3RF72lgjMYkjWoEGs/9CIqFEQsKSu7sZFw/2dLI+FQoUuI7XFNfaorynIQv8eEpKZtEYm8YH1/XCBrAbQ1EwYrAO4RZUc8opX0mwS/z9UQ4q25Eq1jBPlOxyKhNSfPPUnH8l3A8Kr8wLgEZdVxxfl+XTdy+thpryU2Y/mcp964UJxoRNDczXgXAMk7h0xw0qtmnd69UDpjOA5nZ8J/JVAX4Nknj48gdi8J7J83idQIunqVsyEmSe4MDTPiGAE0ESfq+Km//eFPWDmEifHhGTWgNTUOQD+5fLuhjP1rfYO8d56aLChliaEHO3VBIgu/EZ3ED0WSqFxWlnYEo+FVoz36+s9l0GdCYwowryhhy/V2dvUK7mf/NQOffNyKlv/bvWUzR311zDvZ90XmVqCBjnjp77oY6TFyx0mrDpsXkeo17u3/XzK6yAsrxeQXt7G0iynapfMxVPl8sf9aRObYfph9MY3egkUXhcZPydQwS5Weglfo1QQtKGo+z6aASS8hSGNsfm10b+MKitEYExo83NtiHh9sD/8o1j5bHqpbavLoKW8oNeQGRZBmpjyGbYJJm8YMNF6ig3QpzQ34i/kION9LXLnIpvG5ohT0yI2NjCASJAFtwyTkObt9fe87WnwyvYUeaUJ6+LJP7zWOq7CGYPeSXdR/Zbwfehdlvx+azv4glRKTBT5MLtZsQc6mz4Y+wa3hgjj7SdWjLHHYXhTNvGE34OPRKUV4Q+cd2YL777scXEPa5LW3TTui7aJP+w9K+AVt7lKYj8IWdTfbcLrRIUWABTnc9CrsMQC0mKu9hfIr1qiEUoXUyerTbn4q6CXNsFKEYYRg5/2qAK8DK1/Nt6KmiVIXWYHVx2kWO4pNbm4KgomirkPPph36A9pvcGqvQ/B9kv8nc7pbF7uF0YdY9PsFftbGkob1PtNRbhP1u5PDRC9rd4XcN3eb1IzpUZEJUqPRtlIZQodGw5Ts0cPWnkvPvHsra321ttlZMPpV5qC1WhuNldF9qNS2otdHc8KO84Erafgdy2/fQurfApH6O0+NKQSq6HY+mDMlNJHQvg6VElZPDrr1w017aRITn9zc32ukGmcdKi/6sa2OLPUY8gXeQPH03mkVdRI1auO0mVeGnBHtsuMSEkteXKE8P03kja8SNwyDyntPXhveF1ivshsvTmAvhMS7MrnEVtMEucGDvg/Xj+R2N9t6x9isefNfYXV4/pkOlDqqb5WILgJJKScVhk3k1cHHnHQCH1xEEP6MgJKW5AqGSr/dNycmi1/o6FQ5mDIVhIoLtVxrSIbTtDap0gM9qD6kBfS6pqhI8yGtbOhj/2Iw+Ng3fotg8ws5TuYr7YPH4gNy3p3e3BMExxRh2f7XNq3dFWkU92vN909J2E7XPFL0Ytqk/sces4TL5Dmkba0mNKSX/9eW4yCS7DEH24Mw+hN+TYnD5B/zfV0TAhdkVYbnyL/VSZfH+60B6Ev/Q+4Sdi+SzUJsO43McmAsHV1BMsbPUfF9OgbBnv4Ti8fOiCoLQl1SF/ZAqy+SabwiCw5LK1mMQaPfi71uMtiQtM+xKSKDp1r8BbemVPU32Pn6YKq7G5ahp9xB5dzO0VKPQaKOEfF+AFWMP2sTzCDGxx4gVJd+45WOfam1UlVpRiw8QQj5/hNYm2pMPwX7yPheAl6FBO4JJuFjN/FdDoesScDNUaPdPr6XQrfvIrobZ5//uwqwnaF36rA511Ud6emujvUyS5kBsANqIhdQUWVipm/HoKlvEYT+eSEVRPYVtYiDfCDHwe1TN/hiTXFtQ37D38qCEt4S1KuneD4v/EuapZOUoZscm5nQQZnqFeu8hivIOQqGXjauG5zEcH2UX1ke4ALxFDtTHaPO7CSJql6AMuxAF/j1pFRPRJr4Cg/ss0imi5Adqqirf8jx5d+uk8WVjAAAgAElEQVTwj51ATZYZOOylpZChCy4B/Ndt7OMHiNod7j6yHi+XC7MeQ9b5BWlouxFoj29psLc45AddydkSsu8oX5OgJdDLZmD7uxlfxfVwKw4OeA7D97r/dKutIQDmHSIVj5M0Lq2iEHyGEmZi3xhO0vICEqtvR0tTYEYX52NPZ6wDpZl1/QSBdgqz1lRIiwfgK4tyeIqM+qU9WfsIrkJFTrZxySgE7HqKzdU+r7WQ528ySfdfQSObDh9jGOaWzz9n41GoyCAM/ojLk0zbaqV2CdDekibbwv+5BYIAVRsYN8DD76+236709wh39St1l5zfyXcynkjAVWOqOfiytu9ch2Ug/4ty8EVFT4EK5WiJ8zGJLcU8thA6KpGQhjVnSTDuo/SIKII2cKAcpqyGTHJRtJ+oc/z894NxMGfd2D883hJoUHPwoY0hFyfMQarutK5jOEyGtVUEWl+U9VSwwjuUovkIjewkgqxUk3olyFS/bDRmMSXdT4HPMwz+n1/bXWD3BoE5G7kEyESrdRYdVqk10jGtDOxmsedEUTXa88hCL7FrZqGh6/yiqHTW4zv7KdRNu/GJKBc0368c70Ng5tRhLqaMFZgqJvBy1DCYsGNR9eb1+JDexj+2A3LlC0g2PSNsfxFh7vbrGpcwGMT8p8DIMQ8t7QYwiBq+3+1Du/mj0hUUrfgSrBSbCVY4z2EcBHoUInjdzONqf9J0FOghMuhJ5N7dSbTnPC4T4g+M0nYSev8MaTDrofQSA38pYid8dPmsxRUwlT17N9jNhNkjHRG7KLgX+3ddM4u4gnqRVfLjVEOKarbZoDZXWE0ozFB0kKdRUQbApD0Jv9id46su8baFP1AuKBgCTedlqhrvRJC1cvVWb+F7DDOza/+OxiUr6mkEsIigJYgH1BjRh/kXaPJV7sK0+ApMKOtUBoUAnHzuh2tHLfonJcgkuKZQYUFMKNeTgK/k9rBNe1llb94mSnYDgizLBapUsdNc1Saiia0gTWY67DQuyMLunM7vuWYWDb/Pvq0aZ99d12gbT3RYu2xxeWi66evwmE3IuMqOiOi2DpqlsE0vmMqmfEzk2N9vbgoKLYY/msKOIvr3NOYxECXfPz1NPbZU3opDBoKMMiTf+7ABkyxoKlmoRJtm1sFWW4ApWz6y8RFz/gTTaczFP1jXYB8Q7NEiSVnCTW/W4FqicSelbSkXARWU9RYNARdm0fD7wrePka/0w01NgbNfvH+5bBVIMiWhLgzoqKqDRN4ot1gN9wD8h88ROfYU1bMLJaAlCoYyM35pSrXdiglHPpxcCWYdu+fhV/z4aLN97+Om4CAuNZPi5esgLeIOcL2BS9QEfMdR5itWj08RZP+48QJ+stJl9ejCUBGf4/EvroQSbSURsypI6y06Ai7MomP4hR4OnWuD96+Jmmcd1KaKV6B13VXlbB+LGe0+clHmUm22NkIkpZQHJYPvPdNqf/5Rgx0hkKW2AFMNwiyT8JJP4m6ou+4gWVw+xbibniFt9kWIgv9xSzZgaoj/KXGPOlx/gTbG7PqTN/YQofcriZYVvlGaBNl+0hWe3d5orxEtW6o5ZF0YSSObNIBLFvhNw7QYpWRQFNxL8bsuzHKwqgrtfo4SKBvQ0BRpF0cWmg6SNpgvhnAgLyOp8rZJMHlEyEVRfwqxV/XsXxGoIG2sil9GSQzOAZSRu1SkXQsrcO+4yiB/R2bYCG6dz8Yj/JooMPUJCb0vk2j9MkTBMhTF0XfkSeeggy5BNhEqsQem1dhszItRA2xklj0Ifj/d3GAvIshKwRrQHfQ6CaYMLLNHZ9ZQqaIyb+bv7sZUSn9zYZaj1RRrgah3XoS1QOVQIrD5BOSqWQTZdQMJfabsyNKx6UilWjTlE/j4VAX6nUMt9u5hmEywdJTqQayosUMI7n8/O2O3k8cThVqpa7uIMWQt2L1JMvSbsKFAeFGy+EmQKTp+KrmL35xbG5TSiVqGRHljSoh+dXezPc17MqTEo/i0B6eQMvM1SINnEvEZFb8cHVtF3a1HM+Zo+YYTgHATFFLK1XqboouHqa7XU61HWoUslVWYch4eU2nLx3UmVEapOabx7D7VGkQqboIw+Riao3zP0YxFOQIxhm6D3Duk9KPgNw/mduWRRW3SxhQk8zwXlQNotix1yeInrLQHF9RX2ENottIooh7EZ8i5e4OUjzfhWtxMtOygUhdk4Deun7hEa21qDBeBqPu3VL/vmlkOV1b+KEVobSRc/P9ta6TAZAcEv9cmNqSNKbNrEqG79xHxNBeOO/l8ru3bV56UbsNvUJvtdZJR98CrKFqlUvXxCHsxbsmn8zDMIEug9BpM+kKUQAWhug4h9gL+sW0cwmfQziK6jK68UAXyW2lkyB1bTtmbx9DIopi1u6Z0gIvAB2i0L+zp5FlU8G2UPV0gUF1xGMJPl8cxaGTfmdcHjdaZPa4IVEy/dGEWE5C/rRttaJmktlLz63tUOD4mppBuAiz0+RZUMuWvrRLJLYwKI/vLvh7tpVcNKFWBfpOClI28YdL6SjWGSoIMq6zVo3J+Y07aZgxJBXW0oggyziR7Ac7G17gIfHLuIoz3hEKUcLCH9keW+ekicCt7cHjfaLyXej8+Ptxsr+Fb3A65gHzJ5QEBVum2ZnyC46H3+ufzam0CidE9tcyULjK5mZkLs9zg+oVeJaAaiRj8gJdZ+VunMU2pQOblTZ/Tz0RCnZWAuoxKxkNqKqwqQgqKNLx3MXO+AcfdbopnnsN/p2cEguw3h3D5kIru3wGJL2bF6ZjDvjQlTTHPKphQImq0XEaeQ7OWb/E4h7BKuQjEKMKxkIGVafYiG+TBSdXQU6WsHkF2he3aoylsosTO09vZg2hmDZcuUyW4/QJM9H7JNDuc8Ps/nJOB2SMV6R3uEdAJ/rALszwufgPRb+sgT/3bjY0whhAUwqHb9ULrAJH2MI9Q+9UwtY/GEdOPPLKwL7zO208pl/FL8sbWQhKsm7DqZ5XqAaxlbGTSw2orbP6QSruH/LIRHMJRb8N7OXx/QVVjsXlc4IQK8qD1E3Zh8rjfevooTUv7sB/kyg+Ru7iUy1SdTLM97eiyz68hwENmxR3wLbbodlWi+Gnal+45NpYL6ddnVNtsqNWi7sGI8Cfm6zG4wxODVeSJ1hDSOAs28ZtJlHyRulYXODmkdOkAmQiX4ny0Mf19Ijx3MkWGbTovVET0fQiCP0CQHUdwykxWqoJMZ6PmJ21sLoJsPmHjugxEic7UoaRou1f2UX+MqM8LREN+RugRfmnCLmnOvycMReQ7hAvUYoSYkvEH4tCKMlX1uYPaba9TnX0PuWS6TAUtSqc5RyL8A7Q/ytFoBxEavIp3XHRqLsjC49nTb7ow6yliET6vd7g/h8WdE6qD2iW/2tdsZZya8+oRcLABzOJ/o+bunMckth3/3Mvkjm2F6b6p6wCJMO5C/qqOxxoE/yQovW4H18nciAdwmEQR3PJ1bOMQfpbcuy2q3SbJVsJNs9OhKyaP67gIiKi6DvN2lMuAzGy6DPx0WzaImu1IwD4sA8MhaLK3kDojf7fM297yh4ALs/xh/dmTBnLYLufAEH2Ubqm3E8Kv0iVRQp5FBylNbxuC7DWE5FqKaOpVKtXXqSvIo88lQXYrB8gsWMel0Yadsw51CbJ9BCioBtkH5I+pSHLY/npha/X4kcJREbajySFbROrCDfwMxlQbpYlW8TDRsr9mH4r5/qL8mFE6LPDvat9ofkrIl3XghhGVTlHVC2vmPrNeAL3rkQpTVs2sAXCzhb0F60Vq5QA+QdHMrWgTqsq7maKh/SIc6r0IyTU/WoewIj7nD62we0mEHk3EZ5QCpMJRQTp7IQp+eluTvXKk1QZHMPVe80R68YOas4iqJxE6fh8+RiVDS6uN0qSAHUGQPQU91VP7Wg3reei9HWUc+fyucOzPO7ySC+pSCmxOwLzoLf8IuDDLP+axPVEHxwUSgbacpO4YTva1FIFU/adM1NCz2EYYf0c6OBTQLd/ObfgllhE2rgKkUbQnabXiV3yP0iMvoU1swCw2GEGpZ5Vqk49RGtlCkqFXQRisytBXirDtyfyVU3UQ39hzO5vscRLKh0XgDO3Jc3v7s0Mh+ZaPcTU4DiPoyFvvIOBmxt7BPfJTJcgOcHB8RBLvExwcZ4lcFI9uqQsylWoc3cfsq5QdmU8idFS3hHw7h9DG3gfHn+1qgf2+IxGCrB3xvxRz2L3TMja8T/Rk3izWgf1YBF7Y2Wg/QyMbFnVhIr8hue9AF4L+vHR34Ca4HvOsC7LcY97dE1wz6w6dAv2bbsDryFl7Hl67DVQyVnxCqTJ5aAmkIengENHyshHQKnEAjycJNUpTn0pm/4AcvNfRatejjekhpa5MCEd5U78+mYrkBMzUR9RqZe49ne301T6DaXEN+3FIiWu12ndBCgOC7JGp1VQPSEeuHhBlL/t3OxGIdiI4inlH4CwH8KswUfzqk1Y7Ssi9hFgpH8A6LJmytePKeXhSyu6C2msImkTUdvRCh72DSfFZQu/FFSgMo0RARh1PPr6vA/gw//U/FtbYIgJmRLgcxTyrMZ9sbIdZptneJQ1kO5aCJAgyWUU6MNH+s7kZmzecqMVSfgHzsTFjeoZrZjEBmetupH1txzf2wvasrTnVERT/1EEU9TDK9bij9K85k2eO+abcHiWJVwfHABJ6o855Bzj+YgclesBRPsao/UWZY76+K0FWhunv33AAXz+SYqUxXGO3E3C0RpUDuFidJnim05uZrxn1znPkX81yl/ovi2ohOEhZOgYce2cmpfdUF2ZFsKaNMOb+GnLbF8kdO9qo5F1OphJvOnxF4zVxYKV9c1a1jRtQFcvB8S4JvL8gf2zP2YvW3iGjW2m3Ls22mrDx/7SAgpCiVooWsBgAtpMLwc/IIdslijSpzgnYk9LIJMj+qwQZF6s4cCzt3Zff2fm9Ir949+hpCk44gRnnRQp9/prbb/bzLBQ96qm4Ppzl1FCE2Gp8Osp9GkmEWJQcPM1e+WOvcSF4Gj/jGXw87SWeCK05S76IkWIalRe+CUfgZELGo+KofkUY/IvdrbYTzbZZqkoCmrZLBzb9/3x9hsKkLsgKccldmBXiqlwak3jsPsEP8c6RNshZS5thvGsZpHPOg5JqwYiU3SBuQDSKKAew+hNHpfw6vyTq8xyCLAmarfCswq8zBWq0u/EzTqyLLsiE5Wa4RX8KYfAnJPw3lzirx+ePhlryyB6eSikmBFl1dJft57v2/x8TAm5mjAnIXHSj2+BpkqFf3Z8ld6fFGtDMStW/o4OyFkf6jWhiywlOELeiapGFTSbXeuisPXy2zZ7AP/YBF4IWLgRR+svFGsfdp3CUrlRP8vNM2Chuo4TLODSzdMQEcFkJdp9osb/cmLUj5yFcZnOW62GluiGZmqan+Q1GkN1D9OdNEIBrT3orTARisJ4X5sRKYVQ6eAfA9baYwpxiuqjkF8ELVmINC6DVcUgsUNkbOO3EEahCpFEEj/KeDp5rs2cgdF4HLdUF8sei9FcMkHfJlhHsmXnQoy2GkWIsFBxRBZkIguUj+0fy8D6RIOPfpS7Iuta7hk1zHcVJr8dH5oKssN8CNzMW9voEdaRGc7O+a3IGs07WPjzWWjK+dmmeqgY9kbpPS4iwWzCy0kZBSxWFwETa2AUVQ4Ug+BWCPdYe5Qk8qDpKpwW+RzQ8+cc62CvjifxUQVcxeigKNOq8s8C3C77Pv6cMzscnOqCnKn3ttmu5+3HBksn7dmf2KII3gFzbohhlwgep/KcxAyptObxvRxra7eB5mRuLW0eTICtDwAxBA1uCf2zJmCobSv5YFO1JpjAl8B6Arf11FSSlKrTYhaL0WQxbr0uQ1ddIu03ZopEpG4h2FlV+NyHIDsEf+vqBFvuAMjjiqkyCKUdmWlF9qUjuMrRbVXr3VvgI+CoV/hoFI0xzKC+EvqmFA+aHW7Pk9Vwy9RTJ+D8/TB2+Esf1HLgPT0zZ9aPTAZtClKaguqMI+g1UC3ifGm4fYVpE4Stll04Al6400m5lln2AytDXYZIeVBs9F68FM61Il1+EZ/HZA61WH9HnFmVt8/ldCTIFzoziFnQnNFWzuWhFvRTkc/xJfpYHgBTZ6qu8xlq0jr/e1GznCNvXTblYmCsCDYLxdjDg+UMUHVZtU6nEG/W2Hxy8aGMvU7ZlE3RKRwmaKWV6r64tGwgybIv9EV7fmpHGR1YdqXKA+lWfDSRA70aQPbGp0dZiru2bIEEmNf4GfGSrx6VsJnvTBVnxHJAuzIpnrT4bqcxp4mb87x9lrQMGi4CKqQjmoUToDg6LL4+vCpjaVbYlalP+2PojsN3vabFNnxKxyL+TEDktoaO5j6R8y7+aV2OT8ZFFTeLVZUM18dZinn11bxN4srei3jSiLnCevq9LFtZ7e4zw++VYCkYRTVuRkLnnCeKcP8aFWc4hzs0DJNA2coj/2cZmO32hvaAFWqBB8DOE6sX3IchWjq8OzGJR23k0iDf3ZgNGj5NEK14Ek2LRUqPMXXi2QLo8eWCZ/evra4NLQdR5y4d5jH20gQCjZ6FMO9J0MTFaiQQZhP/2B2i3d0zMBNXgS93PGmX/Fep3XZgV6spcw7gk0LYcb7H/+VGTnYB0mOC1gms6eCW2FmK6uZn8sesJToijNaJB/GhDo70GM4qSy6OLxjhGlfs+dPDCi2w3E/n5tTm1NgzW+zjaQQI93tjfDM9ii50giCaeXuMYWe77OI7t/t/Oy9hSzLQDCaJJyl7KPbL5fYILs/ziHfvTZFb7GLLXF/arOGercaksqJdxEANaSCL06onVQd2sqKYbCcdTCO7/vfaC7foUNo8E8Ct2bRqZAStw4iwZXmEPz0SQcXuJ4+DdfarVvr8pa/tOd1hbwOqhn9JvmiXuVfvm9Gq7jeAZ1SaLquGWPmqFO8PoTovCnVsiRpbCQTQfbacvjA8juVX+ipImXdpQbwGg58txPoFwwgc4dKdSe6wvClnUg0Ka6CZCxP9iXQOmVeU7JUcj01rWcTFYQkHNL83sQ/Rn9EuLTIu7SYb+680IMvyNZQkx0wrLLpH9relpW8VFS6bFOC4GvfXO+XM9z6wk9oAE2qTBldaHm6XYGl6ntlQbGltv2P1VOLQvESkLhlXal2fW4CcrD9jvoxwU0kjOk4qwlmrQf7OhifI3yfHn6NDVOg7G37h6LAwpUCrFIcha2R87T7XYn6/P2glquyVJkMlUq8CWB+GsXAUZwQBpZCVxEiR7Eq6Zlcj6p3g5VbZ9FcEVOvzfPNxG2Hb+NBcdusRg2HBuuMs5dJePlVmxPLJAlfZw5HybvUOu0/P4dJrwlQWbNgGnD/IGsyzJuzDA6HKwAmaPODQIXTg2HWux76KRHYeeqoINkwA4gzdd+1SsKLeQDH0TVRkC02LwF2/FjoALs2Jfwc+NXwJtAuSymaqMNbY12tuQ6+ajCK5uuq0cCXPqyikhT+IuHIt1KqIZ8ZRoQBs7AFHwi/ArfnS81c41X0xEqLhga0aKZygXMHNwhd1BGsNk1rU/puSoTYEzG4+02t9sabLjaGQKxwmWKeJaRR1Xvr4vflOZau+ZnkHbjcfnmK+x+3O6R8CFWff4FN1fuzS0BfjRVMhzJyVkIP3OWVO8QBlSazqCbBUMJbOHVlpdxIgw3Z4bUPPEr7jhWLttpKJxUgSZFkrRigNYtFkIsuugp4pDkAWYIsi2wJDyAuVwjiHIlB2REBkmes7AaTsL/+1i3g0XZDk7EnqtYxdmvQZ97h4sH5pYvisJsH5qV5NtxblfGzOVgUyZyh3rg+o3FwF2y5iUTSVxtyaiKthpVmxHkLXaW4Td7yVk/AI+siQk70qwaK7yM96CmXbRiAob2Q9faMSyIzrHzzfDHIMv9UVYUrbpgpMQQSZMgwsXF7oZgyoo5ZK2GfXk5eXu9fOeewkBF2a9BHwuH6sXVcEgc8ntOteSskPEH2cx2cVF8SRBptOghjj76RwQt0P9M2VwVeRSIzp0ZPr6EDPYOtIMtpPJmkW6VeUSrALqmyWyai4D8+sJ9BhVGRDc6mISpelyINPi9lPyO2ZtO4KsWBhjosy767uif9NeFaPHSsoLzYAFvzoh9Fxx4FdMfbgwK6bV6sFYJdDEsrEKstRG3uh/2N5sHUiLqAqazgYdDrWoSjMHl9ujM6ptRMSyLepSh66i6l5Ek3wXX98pqkPrdxEVvR4g1rsfld9RAR93Uj3g9olQfVElIY5oVNFTbeNi8MyOJgRZMjgru1ZSe1XWA1UQuB9Mb6RyuS4L3koTAU+aLs11/cKsshxov9qdtR9tQ6Ah2AIXWoh3WodDOX6HUSTrLiAR+l4STaUBRm2KrttPIc2fwOix+RSJu5Ji/CdqAEnUceXz+63AeD9RoPdOr8HnGD0wQRAqgOYDTIvP7my0fRAPxqWZ5xOXsM/SXpXvcQ6a2K1jU7B7pCzlGllYOIvie66ZFcUyRRukbqNi4NAL/sOtzUEuWhjTnbSH6QQlPAJjwkz8Y3E0JUJvJXH3L9Y02hnF9tMC8RhdRsYxvLz0UU3UzlfGVdk9M2oIG4/+SAmyU5iWN+N3/DkamerfJcHn2IWc9jmKvd2MlqugJJkWXZBF31eF3oMLs0JfoZjGl7kk0MT+9AIsIac57K5V81G0Ypqd8uCUtC0kEmykKl7G0BpbzV7Zl7UfboT9P0G5Tl3QKSihH1Jm9dhKe2h2TQyIdpprP6F8y7N7mqm0DcDyOeYwmjWWQcfcifxkt1LI9oFpmSDXMRXVth7z+Ly73CDgwiw3uBZkr4o0XI1pkPQle4bcrdNcX+WX+W1KkG64aqP7lNn9UzK2kAMiE4OpRv2egcz28c2N9ktKt+iw/W1jKEggIw6qK4BmMOH3D1By5Da05jiaAmhOwHz/p+uabM+n7USzJoswWPtKgkwJ0XexX4MyLknaWHFsoiLuw4VZES9emKErzHsFic2iM1oDPdSec5ROoaPL33ncbKactRthnrhnao2NgoWiOobdIhPYfgppPrm10d46SkBCwgSZBI6E9zj8jrcSlHATaxFHU7+bjrTYj3Y02wEJMiRmHAEkcYwtH31oD+tnJQnR906rsRHg64IsH8gXzjM8AKRw1iKvI5FmtIEE2rcPNNuHJCd3WaJ0ICggYxBC784JKbtpUsYGwuYR1bCofhWQsA0mjye3N9lGCj+K0OJyIZpXEPL8MIXe98XVOBMezfvQHKbA6iFhHrVJkK071Gz/C57FRqIeKvn3tZqQoz67UL6vy9etpDPcM536bhBcJ0mQF8oa9PY4Yrhr9/YU/PlhEOgHh+I8aKf0v9n2rG0gD0kWRJlpxvUts4cJ8pgzLB1EK0YVODKrqV7WuqMt9tKBFiiqYJ9ImCA7i8QZi/9mNTXd5oD7eELv4xBkImAONLItzdYM3Zde6KQJMgnzWzCB3yONzAVZmOOgJL7jwqwklrHnk5BCIJPjpEEQro6/aCez7baPsiqLYUe4E/PXDBJ3ayMyT2hUilY8gFnxxb3Ntv5km52EYkvmnxgUkp5Puhe+IY30HKftDITXjaQzLCFEfFAtlQRiAEDJ0G9BTfUSP8fBtTwwtCWnabZtVNwey+VLPjIJMk8jS876Xz5TNzNejkjC/h0cttzod5xssd0UZ5wPa8j4AVWRmScE4zlC7T842GJrMGduPgWbh+xstKSYgDRbZIwtxe+4ilyniXVVNogcsjh8OTITv0Uk6HME8pxk/XiRE7VzA0HGRWncgHL73Vk1NntYVSy4JgrEEpusa2YltqA9nY5MiH3RwKYNTtmwPh02BK0hKoWSxnCS0P8PCTB575MW20uZkSYEWXeRkz0dd6F/vlNrMJsyoJNGaSp0X/2xrUYVZOr3PILsfaqLv0tC9EllBuuXUW3BhQ7o58bXxQsqsuDVMNxMxQcZFdcimr4P9bcg4JrZbwEmib9WpGEcWtMuiI3fO9gaCLITaGftnLdx9FtMayL5It7KO0mFmDe0KqBRiipvdIifRQt7fT++xz2UcEHtS5gcC2r1oYZafW2F3U1xzZvxQTpFVTG9Gbkbq2tmucO26HqOQ+CotMg7CLF3YLw/3ULYf0wCstjAHEGwx00ctCrhko4aCsrkdYbLHCxWjzf2Z+1QQ7LoqbT+Xfl5AzMUKyWIZiWVGlyQFdubkbvxujDLHbaJ6llanSLrntneaK990hZQZiWxVRBKOIAI0S9NqQ4qQ8dh/hKSAc8i0aA/39ZkhxNGT9W1jxSlWUPy45KRVfbgtGoClGKIokniJi3RObswK9GFzee0lJe2j9IiT2xstDUnO5knoprU8jn+uJ5VSUmcUbVl9ti8DLlkVbGYVnVJOCH/47EW+1vyyNoTUtvtN9YESSZqquupnXc/tGr9cllx9jce7r8oBgRcmBXDKhXwGInoDwpp/nhjg62H8b5/DL6hAp7uFYcmzakcosXpA8y+OqfGJlHNOI6maL0zUI49tSNrL8OnqSqTcYT0xzG2fPZBrKYNo3r5HdTNW4RW1h8zozdH4HIE4nnrLu/V/50IBJooFvUuBR//GqLgBqLqBiLIkmZclDW1HGfj9fXl9o15tUSExmP6Eo67T7Xa8+TnvYH/Ucd3HD7NYtuYYvaY1L/MlpOftwQfWX/RxnhzBK6AgEczXgEU/1X3CMiseKKhPUjY/StKygzEppg0jUHCRlHxKoB6lwpqTs4EaQ1xNPW9nrSGH27J2oFz7UHgQxLNthJk0weW25emZkgd6WSriQNf76M0EXDNrDTXNWezUiL0JioXv0ue0/MEegzi/I4jyCFnA85Bx8iwoM1k8jcQrahAj4GZeASZqoJvRJA9vrUzYvEiD0saPZWw1YVp4oAye3RmrU2GwzITT/m8HOwG77JQEHBhVigrUSTj2HW63Z7c1WLbySUbiO0rniO8SCbPMCXIxKIq7hcAABU6SURBVF85mwP2wanVQcJuTQy0X0Igi83yDSqCC99TXBrKpZElUCWTIJuAuv97c/oE+MbBYVk8O8xHGhYBF2ZhkUvo9ybCaDGprsJ2QBx8Uad6gqSZIgsJWLTbxqds8YgUpq9KipbGI22aCaR5dXezPYMgO439MqkhDkqwF8Hi76CRTYqpqkBCX9XETduFWeKWPNqE+xISfRvJwDXsnCd3tlgZ2kQSAhPkx1JbQSDC6gnVBHpUBNW34xBlF8gh+8XOrL1LsvmnJEYnjtbjErYKpmnjcvCd2dJ4q2JJNo+22/3bxYSAC7NiWq0CGKsE11i0s76pjPXDvPYPm5utA5Wl1BW0FI5BVYVePDIda+HHJqIcHt/SZG9QGkf+sqT6yKSQpUiC/hdzqgOMa91HVgBve3ENodTPoOJajSIZrSxrgyjYuYjgh+WUqK9EwnUFRRTJFK55mNLIqhBkYr2/YVQqSNyNI+BF/Yr5/pd7W+xD6pGJPUUaWRJ9ZNo71TjGVo+vsgWw3/dxQXbN+9M/+E8IeGi+74bQCMiHdOR8uz29K2vvHGi1ZjSLUjqMZfYajNBeRbTibZgW6/j/cZgVhdtZ/GJP4R97bW/WZGaMQ0CGXsje+qIkOoCKzWMp6Q1fmlwdW1Rob03Jn9t7CLhm1nvYF/2TZXKU72g1h/2E/uVWyYlcCmW1NAdqPgbFS+ejKdzNIStNNA5BJgF5Fo1s/fFWexVBdi7hgqyaBMXpBBTdiuYbV3pD0b9YPoFQCLgwCwWbf6kLAUX3TRhYaQ9Pz9g4Kv2WlRf/lpIg68chu4RCpV+fXRPUe4ujKVLvZEOHrT3SbD/c3GSNCLKkVkYWxjItTg2SotM2ur+77+PYY0nuw82MSV79GOcu09n2Ey32E1grtn1KIIMiGYqsBSPmkB2I2eueCVV255QMhUrjEWSthN4fPt9mT23P2nuH2yybVMJgIBbXYh2VBVTv7Z5JKZtEYVhvjkBUBFyYRUXQv/8FBLZiPvv++kY7QJmSYrI5BpRR2E1HQGh77+S03TiG9IOY1CbKutnOky32Fn7FtyhaekGEwQndN7owyHy7Cp5FpTmMj4mUOaFw+rQ/h4ALM98OsSOwAxb9P/u4yY4SHEJR4IIPCkFpCjSyCf0qCUIgIRpBFlMutEmQfXSw2Z7b3WJ7z7RZEw+LSdmLfd1y3aH8hWkuCKsI9niAem+DqRbtzRGICwEXZnEh6f18AYH9p9vsv73faKchJC5kWiZpCmk0solwc31zTsZGD6iMjTRZh/fb+5vtR+TiHUeKyZuYWEEG0BcRZN8B44VUifZgDz8w4kbAhVnciHp/AQLyoe0902p/SUHJvfA4VkpDKzBsJMhSCLLlYr0fn7ZxBLLExWai+T+/vcme39Nix6hJJg01rr4LDMarDkdYtKPq/tHCjM2uTwXm20LbC1edhH+g4BFwYVbwS1S8A9QhdvBcmz2xo9l+TXFJlaIqlENMZLb9CUL4w+syNmtICsaJsli1pv+7rsFe3d9G7l0QVpLodgSWkz9ZXGNLRlcTwZhoKHzyOUTAt1YOwU1619JEhveptLsnmJ0nt2rt0daCEGgSZCP6ltlXIbO9jjyy6hhdNy34xH6wocFeP+CCjLuMNYLHv5uXsetGpAMuS2+OQK4Q8O2VK2S93wCBKgTF2P4VdtdEqgSnzd6iarJab2hoOlz1M5WQ8K9Mr7EpsN7HJcjU7zlIgr+//oJtONZuTYTeF3/GXbBUoVoX1g9PScHuUR3wePbGmocavH+pKBFwYVaUy1Zcg67GXyJfSR2Sow8REC8Tot6WZ3JiGfsUobhgaKXdAaOH6mTFVR1bB/exC+0BYfDaw+3WKkGW4JNbWNcA7u3jqmz1xIwNIt0hwXAU18taxKNN8uWxiJet+IYuX8mIfhV24+i0zR1cAfNF/siJFXpfyfPmDKmyleOqbWJdVWyCTKwex4nYfIvyLR8fbwsEWSnxU/Z0p0mwV0MLs6C+Ah9Z2upckPUUQv98SARcMwsJnH+t5whk2G2T0YjuvViNcMnaWg7/DoRBLg9/BaEEHIv1RCxOTAcFH+PSyFS+5fC5dnsb0+mrnzQHzPdJDb2X/VaCLEMgzcKhFXYfVbhHk+7gt+Wevyf+jXAI+F4Lh5t/KyQClKyyiRReXEFi8ui+FQGhb06aDld+Ovn/KuzmsVWxCrIWksgOIcjWHWu1N0mKVjmXGONIcgJJLjvVOlYgySeSp7cCdo9RSnPI5QO9b0fgMgR8v/mWyDsCGU79+VAZ3Yem1Afp1pED1ayDw7Ucc9fUQeV276S0zab2WlwaWTN2y0Owm7y+r9le3ttsRxsvkq+WdxgL5oHSyMpZwyE15axplc0akUq0YC+YhUnYQDzPLGELXkjTFdXThsPN9hfrsnaeSED0tFiGF/htYGSfPqTcfm9Wxob2jS8ZWqH3Hx1tsXfxka05Cj0VPrKYSPVjmXu+O1GwRznRLmPxhz42I2Uzh6WTa2rNN/j+vC8g4MLMN0SvIiDKpw2HWuyP1zZaRUQCXgkxZEtQsuUmTF33oPnVY8qMqyk/bT2C7PEtzbb/bFvwrMT6yABVeGf5WTaSwpoT8EcSYJNkPOLaZ95POARcmIXDzb8VIwISaOsPI9A+aLQUEiLMgSjXWwMdDYG8dsmIKvvG7AxJuvE65J6lfMsre1vsMNGLAct+vN3HiGh+ujoJ3qtGpQLtdziXhjDrlp+R+lOSgIALsySschHMUQJt45EW+5M1jYF61dPqK+fpYOWotN06LmVzyCWLqw5ZF3R/v74B/1hrZzJ0woWYMDkD3t9CiC0dmQpSLpKcV1cEr1cihujCLBHLXByTlA/tQ0Lcf7C12Y6QhCyBdi1yo4mD9SYCSh6i2vXwvuWxCrJm+v7ZlkZ7bo9yyOQh8naGy8aXMeHeNy1j9bXlrpH5ligIBFyYFcQy+CC6EGjkoHyHKMHXDrTY1k8pm9KNQJM2R5yHPTK92paNTQfRdNci/K4VbQV3/OX7F8iH6yAfzgVZl09yNWkOYvYYRx6ZmxavdTf553KNgCdN5xph779HCGTwcy3ED6Mijm0Xm23XacIHryDQJMgGEuhxx4SU3QSrxwAY8OMSZDq0TzV22M+3NtkHx/GPKfM64U0QyEe4mnI5d01xH1nCt0NBTt+FWUEuS3IHJYHUN11us4ZWWSMMG5nKVtt0si2InOsSVvzaBiO87puctkX4yQZKkMUkyXRof0JF6JfQDt883GrtSM2k+4O6RPkNwyvttkkZG9EHOrIE59Ul9+0s7Jm7MCvs9Unk6CQ8+iPQFo1M22BMh5Ji6060WRVotPOPsX3K7F7IghcQfNAvRo2sFSVQ9dee3Za1NylXc5F/J12QaQO28XPTqCq7G41s3ICKwLTrzREoNAR8Wxbaivh4AgQkRCSoJkAKvHg4VFSUkbkArcfI2jJbRcTiPOqQxS3I9lEZe83BVluHJtiCvyzpgkwaWTs8VTOhplpGgM1I1sAFmb+ghYqAa2aFujI+riC4QL6wxfjQZHoceLDFFhF23/XvuCASQfCBs+320u5m24wgOwXPYjrpkgxwlRQ+e0iFPYAWPDNId4gLce/HEYgfARdm8WPqPcaIgFxh/avLbS6aWH2mzOrx10iwxdXEfL/vTDt1yFqohN1mFzjBY+w+rmHmtR8lhMu0qAT0m2FSmZGDvL28TsgflggEPDQ/EctcGpNUcEacCpNC77ecgPV+f6t9eKTVLhDs0dNk7dJA9p9m0SXIUkSKfntmxpaPJbI0ZiaVUsPM51MYCLgwK4x18FHkGQFFSr6yN2sv7Wm1E43tgUktpoDIPM8kvsfJRyYcBvcpt0cwLa7ANxk3k0p8o/WeHIEvIuBmRt8RiUNAUYsv7IRncX8LgqwzGdoFmZlSHgYRPfo7FNZcgnnRBVniXo2inrALs6JePh98TxEQZdYz25vsFzubTWwj3jrZ74XLDKpwr0KIuSDzXVGMCLgwK8ZV8zGHQiCL8Hp8IzyL+0iGxgEXXxhJqOEUxJckzqWRKSF6JZRgSnlwjawglsYH0UMEXJj1EDD/eHEicDbbYc+jkT2zHzYRBJlHmXdqZFJOp/Uvt9Xj0zZ5cJXVJD0Cpji3t48aBFyY+TYoaQQUAXnkXIc9s63RnjnQaiIUcUHWueQSZHPryu3uqRnyyFJU5y7preCTK3EEfPuW+AIneXoSZAfPtduzWzEtHmwzqpW4afHShlDV7OkIsgdm1NgkfGUuyJL8ppTG3F2YlcY6+iwuQ6CZiMV9p9vs1d3wLB5pszSCLc4ctWIGXMEeEzAt3gvX4uRBVZYR6aU3R6DIEXBhVuQL6MP/TQRaEGQbj7XY0xAG74amSoLNWd67ohYv2oQBlfbY7IxNw0eW8RPgNzeQ/6YoEfCArqJcNh90dwh0loMps1PNHSbeRY9p6ERLPrI6nIZ3TEjblLpKF2TdbSL/W9Eh4MKs6JbMB3w1BMTsXo+DTCa0WiSZ19a0AINaaKkWj0jZSnLJaqGr8uYIlBICTmdVSqvpc/kMAXEMnmrqsB9tbrL3YNsX60cSfWbCQa02XWYr4Fn82owMwR4uyPxVKT0EXDMrvTX1GYGATI2iZnoEaqa59ZVWkURJdgmHDA7DG0ZWBVi4IPPXo1QRcM2sVFfW5xUgIM1E/Is/2tBo71HipQN7W1L0EillAyifs3hYpX1lVsb6Jb22jb8TJY2AxzKV9PL65KShDcF/9ticDIKs0T440WFt7R0lnW92ybIYCK+Vo6rsrslpF2T+KpQ8Am5mLPkl9glKExtMocmvzq6xWXVlCLIy6zrwSxGdIGoRH9kCimreMSlNBKNznpTiOvucvoiACzPfEYlBYES/CnuEAIhpMF/IqdYVHFFKALQymWFU5F5BxOLdaGQS4t4cgSQg4D6zJKyyz/EzBBSivudUm31vfaMdgOqqnSjHzry04geJQtk2AI3sUQT2XNjvBxMAk9C4l+JfTJ9BjxFwYdZjyPwLxY6ABNreM232dxubbPtJsegXv0CTIKshd+wxAj2Wjk5ZDeH3pSKki32/+fjzg4CbGfODsz+lgBCQtjKuf6X9PpRO4wcSA8VbUMyJ1cSzWCXC6zvzM3bjSBKiSRR3QVZAG86HkhcEXJjlBWZ/SKEhUMHOH9Wv0n5nVtoWj0pRF6Y4g0IkhMsQXr87O21zhqatD2ZGb45AEhHw0PwkrrrPOUCgitiIGXUp609S8ei+Zfbk9hZ8aMVTgRqFzCoRZN+eWw1NVbX1QSZ7cwSSioBrZkldeZ93gEAlAm143wpbNBwNbXilpdDQJCQKvWmMacZ6+/iUzR+Whmux0Efs43MEcouAC7Pc4uu9FwECEmCjEGi3wF04cUA55WIKO2xfKQUZ2JSnDqqwe2DAH1iNj6wIcPYhOgK5RMCjGXOJrvddVAioDtp+Cnr+ZEujbfkUphCyjwsqkOJSpncqVW7X1ZfbV6kSPZzcOW+OgCPgVeR9DzgCnyGQQi6Mp87X/VOqbVI/dJ1CS9JiSJVoZNMHlNmXIQ12Qeab1xH4JwRcM/Pd4AhchkAbDqmdJ1vtJ5SP2fJpe0GY8KSU1RDsMQvT4kPTqxG6Vb5ujoAj8DkE3Gfm28ERuAwBFfecOqTKHp2ZsUGwzvc2z758ZJXYO8f3x0c22QWZb1hH4EoIuDC7Eir+u8QjIAvj9Poq+xZs+xUksFxyV+UdFz23g7HU96E2GxrZVMbkzRFwBH4TATcz/iYm/htH4DMEFAK/8XCL/fF7jVaJipTv218z0mwZZVzun5i2yWiLHrXom9MRuDIC+X43rzwK/60jUKAI6AWZOSxl/3FRjbUTwt+aRxXtDAnci0ZQIXpaxiYOckFWoFvEh1UgCLhmViAL4cMobATEf7jhWIv91fqsnbzQbsRi5LSdIU3g92ZV21K4FkcRfl9ogZU5nbx37giEQMCFWQjQ/CvJRKClzWzT8Rb7PxuzdvR8O0EZ8CLGDIUUP5kWvzW72paMqrY6apOJR9KbI+AIdI+Avybd4+N/dQQ+QyBFIMg0/FYPT0nb/PrKIKE6Tquj/HMSXF+mqOaNo1Qh2gWZbz9H4FoRcKLha0XKP+cIgIByvRZh+htIyH6FZW3zqXZrgro+aoyhKkT3wZZ414SUrZpYbUNqy2PX+nwBHYFSRsA1s1JeXZ9bThCopQjmhIGQE4+sCpKYqxFCuLhCN303Qx/XD6uwxaPTNtgFWWgs/YvJRcA1s+Suvc88JALyk/VDM5sztEpl0OwsTq49+NDCVKwOEqLpZAJBHivGpG0MQlK+OG+OgCPQMwRcmPUML/+0IxAgIHlT36fCaiD9VWXnJ7Y1275zPdfPytHIpiPAHpqWtmlDUy7IfH85AiERcDNjSOD8a46ABFpfTI5zR6TtXpKa69DWelQLjQiSoZgUHyTgYwa5bK6R+Z5yBMIj4MIsPHb+TUcgQKAatv1FmAilXSnCkXiQbptMi/qMBOEj09M2m4ASfxG7hcz/6AhcFQF/h64KkX/AEbg6AtUY7JePrbZHp1XbOdSz7jQ00tWsDDXsa3AtLiYE311kV8fXP+EIXA0BF2ZXQ8j/7ghcIwISaHdPydh3ICc+i/vsSgraBSiqMuky+4PZGbtpfNrE0O/NEXAEoiPgDCDRMfQeHIEvICDqq1/uykJ91WTkPX9GRdXE72cPqbQ7J6Rh90g5s4fvG0cgRgQ8mjFGML0rR0AIiMXjlgnV1tx20X66vdla0cZaEWRzEGQPY4acDouIU1T5XnEE4kXAhVm8eHpvjkCAQIY3647JmSBC8YmdzbZwaKUtIyF6BoIsRcCIN0fAEYgXATczxoun9+YIfAGBTxs7bNupNhvVtyJg9hAdljdHwBGIHwEXZvFj6j06Ap8hoBD8JsyNKVg+FOzhosw3hyOQGwRcmOUGV+/VEXAEHAFHII8IeGBwHsH2RzkCjoAj4AjkBgEXZrnB1Xt1BBwBR8ARyCMCLszyCLY/yhFwBBwBRyA3CLgwyw2u3qsj4Ag4Ao5AHhFwYZZHsP1RjoAj4Ag4ArlBwIVZbnD1Xh0BR8ARcATyiIALszyC7Y9yBBwBR8ARyA0CLsxyg6v36gg4Ao6AI5BHBFyY5RFsf5Qj4Ag4Ao5AbhBwYZYbXL1XR8ARcAQcgTwi4MIsj2D7oxwBR8ARcARyg4ALs9zg6r06Ao6AI+AI5BEBF2Z5BNsf5Qg4Ao6AI5AbBFyY5QZX79URcAQcAUcgjwj8f+6bccMPyLotAAAAAElFTkSuQmCC;" vertex="1" parent="1">
          <mxGeometry x="-1060" y="-1635.9999999999998" width="75" height="57.59" as="geometry" />
        </mxCell>
        <mxCell id="Yv6gaA2NmNVzVcbL0BUT-108" value="" style="group" vertex="1" connectable="0" parent="1">
          <mxGeometry x="-1770" y="-1440" width="330" height="86.09" as="geometry" />
        </mxCell>
        <mxCell id="Yv6gaA2NmNVzVcbL0BUT-105" value="" style="shape=image;verticalLabelPosition=bottom;labelBackgroundColor=#FAD7AC;verticalAlign=top;aspect=fixed;imageAspect=0;image=https://images.icon-icons.com/2107/PNG/512/file_type_avro_icon_130733.png;clipPath=inset(33.33% 5% 32% 4.67%);fontStyle=1;align=left;spacingLeft=0;spacingRight=0;spacingBottom=0;imageBorder=default;" vertex="1" parent="Yv6gaA2NmNVzVcbL0BUT-108">
          <mxGeometry x="-10" y="10" width="162" height="62.169741697416974" as="geometry" />
        </mxCell>
        <mxCell id="Yv6gaA2NmNVzVcbL0BUT-107" value="&lt;font style=&quot;font-size: 14px;&quot;&gt;&lt;span style=&quot;font-weight: 700; text-wrap-mode: nowrap;&quot;&gt;Avro Files chunked by day&lt;/span&gt;&lt;br style=&quot;padding: 0px; margin: 0px; font-weight: 700; text-wrap-mode: nowrap;&quot;&gt;&lt;/font&gt;&lt;div style=&quot;&quot;&gt;&lt;span style=&quot;font-weight: 700; text-wrap-mode: nowrap; background-color: light-dark(rgb(250, 215, 172), rgb(75, 45, 8)); color: light-dark(rgb(0, 0, 0), rgb(255, 255, 255));&quot;&gt;&lt;font style=&quot;font-size: 14px;&quot;&gt;- Raw-accelerometer&lt;/font&gt;&lt;/span&gt;&lt;/div&gt;&lt;font style=&quot;font-size: 14px;&quot;&gt;&lt;span style=&quot;font-weight: 700; text-wrap-mode: nowrap;&quot;&gt;- Temperature&lt;/span&gt;&lt;br style=&quot;padding: 0px; margin: 0px; font-weight: 700; text-wrap-mode: nowrap;&quot;&gt;&lt;span style=&quot;font-weight: 700; text-wrap-mode: nowrap;&quot;&gt;- IMU&lt;/span&gt;&lt;/font&gt;" style="text;html=1;align=left;verticalAlign=middle;whiteSpace=wrap;rounded=0;fontFamily=Helvetica;fontSize=11;fontColor=default;labelBackgroundColor=#FAD7AC;" vertex="1" parent="Yv6gaA2NmNVzVcbL0BUT-108">
          <mxGeometry x="160" y="3.04" width="158" height="76.09" as="geometry" />
        </mxCell>
        <mxCell id="Yv6gaA2NmNVzVcbL0BUT-109" value="&lt;font style=&quot;font-size: 24px;&quot;&gt;&lt;b style=&quot;&quot;&gt;&lt;i style=&quot;&quot;&gt;Data Retrieval&lt;/i&gt;&lt;/b&gt;&lt;/font&gt;" style="text;html=1;align=center;verticalAlign=middle;whiteSpace=wrap;rounded=0;" vertex="1" parent="1">
          <mxGeometry x="-1549.75" y="-1688" width="169.5" height="30" as="geometry" />
        </mxCell>
        <mxCell id="Yv6gaA2NmNVzVcbL0BUT-111" value="&lt;span style=&quot;&quot;&gt;&lt;b&gt;raw-accelerometer.avro&lt;/b&gt;&lt;/span&gt;" style="swimlane;childLayout=stackLayout;horizontal=1;startSize=26;horizontalStack=0;rounded=1;fontSize=14;fontStyle=0;strokeWidth=2;resizeParent=0;resizeLast=1;shadow=0;dashed=0;align=center;arcSize=4;whiteSpace=wrap;html=1;fontFamily=Helvetica;labelBackgroundColor=none;labelBorderColor=none;fillColor=#fad7ac;strokeColor=#000000;" vertex="1" parent="1">
          <mxGeometry x="-1780" y="-1636" width="180" height="176" as="geometry">
            <mxRectangle x="-1780" y="-1636" width="160" height="50" as="alternateBounds" />
          </mxGeometry>
        </mxCell>
        <mxCell id="Yv6gaA2NmNVzVcbL0BUT-112" value="&lt;b&gt;+ Timestamp (Unix-Epoch)&lt;br&gt;+ sampleOrder (Int)&lt;br&gt;+ sensorSerial (Int)&lt;/b&gt;&lt;div&gt;&lt;b&gt;+ sensorType (Str)&lt;/b&gt;&lt;/div&gt;&lt;div&gt;&lt;div&gt;&lt;b&gt;+ studyID (Int)&lt;/b&gt;&lt;/div&gt;&lt;/div&gt;&lt;div&gt;&lt;b&gt;+ subjectID (Int)&lt;br&gt;+ X (Float32)&lt;/b&gt;&lt;/div&gt;&lt;div&gt;&lt;b&gt;+ Y (Float32)&lt;/b&gt;&lt;/div&gt;&lt;div&gt;&lt;b&gt;+ Z (Float32)&lt;/b&gt;&lt;/div&gt;" style="align=left;strokeColor=none;fillColor=none;spacingLeft=4;spacingRight=4;fontSize=12;verticalAlign=top;resizable=0;rotatable=0;part=1;html=1;whiteSpace=wrap;fontFamily=Helvetica;fontColor=default;labelBackgroundColor=#FAD7AC;" vertex="1" parent="Yv6gaA2NmNVzVcbL0BUT-111">
          <mxGeometry y="26" width="180" height="150" as="geometry" />
        </mxCell>
        <mxCell id="Yv6gaA2NmNVzVcbL0BUT-113" value="&lt;span style=&quot;&quot;&gt;&lt;b&gt;imu.avro&lt;/b&gt;&lt;/span&gt;" style="swimlane;childLayout=stackLayout;horizontal=1;startSize=26;horizontalStack=0;rounded=1;fontSize=14;fontStyle=0;strokeWidth=2;resizeParent=0;resizeLast=1;shadow=0;dashed=0;align=center;arcSize=4;whiteSpace=wrap;html=1;fontFamily=Helvetica;labelBackgroundColor=none;labelBorderColor=none;fillColor=#fad7ac;strokeColor=#000000;" vertex="1" parent="1">
          <mxGeometry x="-1380.25" y="-1636" width="180" height="226" as="geometry">
            <mxRectangle x="-1780" y="-1636" width="160" height="50" as="alternateBounds" />
          </mxGeometry>
        </mxCell>
        <mxCell id="Yv6gaA2NmNVzVcbL0BUT-114" value="&lt;b&gt;+ Timestamp (Unix-Epoch)&lt;br&gt;+ sampleOrder (Int)&lt;br&gt;+ sensorSerial (Int)&lt;/b&gt;&lt;div&gt;&lt;b&gt;+ sensorType (Str)&lt;/b&gt;&lt;/div&gt;&lt;div&gt;&lt;b&gt;+ studyID (Int)&lt;/b&gt;&lt;/div&gt;&lt;div&gt;&lt;b&gt;+ subjectID (Int)&lt;/b&gt;&lt;/div&gt;&lt;div&gt;&lt;div&gt;&lt;b&gt;+ X (Float32)&lt;/b&gt;&lt;/div&gt;&lt;div&gt;&lt;b&gt;+ Y (Float32)&lt;/b&gt;&lt;/div&gt;&lt;div&gt;&lt;b&gt;+ Z (Float32)&lt;/b&gt;&lt;/div&gt;&lt;b&gt;+ GyroscopeX (Float32)&lt;/b&gt;&lt;/div&gt;&lt;div&gt;&lt;b&gt;+&amp;nbsp;&lt;/b&gt;&lt;b style=&quot;color: light-dark(rgb(0, 0, 0), rgb(255, 255, 255));&quot;&gt;Gyroscope&lt;/b&gt;&lt;b style=&quot;background-color: light-dark(rgb(250, 215, 172), rgb(75, 45, 8)); color: light-dark(rgb(0, 0, 0), rgb(255, 255, 255));&quot;&gt;Y (Float32)&lt;/b&gt;&lt;/div&gt;&lt;div&gt;&lt;b&gt;+&amp;nbsp;&lt;/b&gt;&lt;b style=&quot;color: light-dark(rgb(0, 0, 0), rgb(255, 255, 255));&quot;&gt;Gyroscope&lt;/b&gt;&lt;b style=&quot;background-color: light-dark(rgb(250, 215, 172), rgb(75, 45, 8)); color: light-dark(rgb(0, 0, 0), rgb(255, 255, 255));&quot;&gt;Z (Float32)&lt;/b&gt;&lt;/div&gt;&lt;div&gt;&lt;b style=&quot;background-color: light-dark(rgb(250, 215, 172), rgb(75, 45, 8)); color: light-dark(rgb(0, 0, 0), rgb(255, 255, 255));&quot;&gt;+ Temperature (Float32)&lt;/b&gt;&lt;/div&gt;" style="align=left;strokeColor=none;fillColor=none;spacingLeft=4;spacingRight=4;fontSize=12;verticalAlign=top;resizable=0;rotatable=0;part=1;html=1;whiteSpace=wrap;fontFamily=Helvetica;fontColor=default;labelBackgroundColor=#FAD7AC;" vertex="1" parent="Yv6gaA2NmNVzVcbL0BUT-113">
          <mxGeometry y="26" width="180" height="200" as="geometry" />
        </mxCell>
        <mxCell id="Yv6gaA2NmNVzVcbL0BUT-115" value="&lt;span style=&quot;font-size: 15px; text-wrap-mode: nowrap;&quot;&gt;&lt;b&gt;128 Hz&lt;/b&gt;&lt;/span&gt;" style="text;html=1;align=left;verticalAlign=middle;whiteSpace=wrap;rounded=0;fontFamily=Helvetica;fontSize=11;fontColor=default;labelBackgroundColor=#FAD7AC;" vertex="1" parent="1">
          <mxGeometry x="-1720" y="-1658" width="60" height="22" as="geometry" />
        </mxCell>
        <mxCell id="Yv6gaA2NmNVzVcbL0BUT-116" value="&lt;span style=&quot;font-size: 15px; text-wrap-mode: nowrap;&quot;&gt;&lt;b&gt;128 Hz&lt;/b&gt;&lt;/span&gt;" style="text;html=1;align=left;verticalAlign=middle;whiteSpace=wrap;rounded=0;fontFamily=Helvetica;fontSize=11;fontColor=default;labelBackgroundColor=#FAD7AC;" vertex="1" parent="1">
          <mxGeometry x="-1317.77" y="-1658" width="60" height="22" as="geometry" />
        </mxCell>
        <mxCell id="Yv6gaA2NmNVzVcbL0BUT-125" style="edgeStyle=orthogonalEdgeStyle;shape=connector;rounded=0;orthogonalLoop=1;jettySize=auto;html=1;entryX=0;entryY=0.5;entryDx=0;entryDy=0;strokeColor=default;align=center;verticalAlign=middle;fontFamily=Helvetica;fontSize=11;fontColor=default;labelBackgroundColor=default;endArrow=classic;flowAnimation=1;" edge="1" parent="1" source="Yv6gaA2NmNVzVcbL0BUT-107" target="Yv6gaA2NmNVzVcbL0BUT-104">
          <mxGeometry relative="1" as="geometry">
            <Array as="points">
              <mxPoint x="-1160" y="-1392" />
              <mxPoint x="-1160" y="-1607" />
            </Array>
          </mxGeometry>
        </mxCell>
        <mxCell id="Yv6gaA2NmNVzVcbL0BUT-129" value="&lt;font style=&quot;font-size: 24px;&quot;&gt;&lt;b style=&quot;&quot;&gt;&lt;i style=&quot;&quot;&gt;Data Transformation&lt;/i&gt;&lt;/b&gt;&lt;/font&gt;" style="text;html=1;align=center;verticalAlign=middle;whiteSpace=wrap;rounded=0;" vertex="1" parent="1">
          <mxGeometry x="-939.88" y="-1688" width="249.75" height="30" as="geometry" />
        </mxCell>
        <mxCell id="Yv6gaA2NmNVzVcbL0BUT-130" value="&lt;div style=&quot;&quot;&gt;&lt;span style=&quot;text-wrap-mode: nowrap; color: light-dark(rgb(0, 0, 0), rgb(255, 255, 255));&quot;&gt;&lt;font style=&quot;font-size: 18px;&quot;&gt;&lt;b style=&quot;&quot;&gt;&lt;u style=&quot;&quot;&gt;Parquet Files&lt;/u&gt;&lt;/b&gt;&lt;/font&gt;&lt;/span&gt;&lt;/div&gt;&lt;div style=&quot;&quot;&gt;&lt;span style=&quot;font-family: &amp;quot;Fira code&amp;quot;, &amp;quot;Fira Mono&amp;quot;, source-code-pro, Menlo, Monaco, Consolas, &amp;quot;Courier New&amp;quot;, monospace; white-space: pre; color: light-dark(rgb(0, 0, 0), rgb(255, 255, 255));&quot;&gt;&lt;font style=&quot;font-size: 15px;&quot;&gt;.&lt;/font&gt;&lt;/span&gt;&lt;/div&gt;&lt;span style=&quot;font-family: &amp;quot;Fira code&amp;quot;, &amp;quot;Fira Mono&amp;quot;, source-code-pro, Menlo, Monaco, Consolas, &amp;quot;Courier New&amp;quot;, monospace; white-space: pre;&quot;&gt;&lt;font style=&quot;font-size: 15px;&quot;&gt;└── data/&lt;br&gt;    ├── sensor/&lt;br&gt;    │   └── {subjectID}_{sensor}_{date}.parquet&lt;br&gt;    └── ...&lt;/font&gt;&lt;/span&gt;" style="text;html=1;align=left;verticalAlign=middle;whiteSpace=wrap;rounded=0;fontFamily=Helvetica;fontSize=11;fontColor=default;labelBackgroundColor=#D0CEE2;" vertex="1" parent="1">
          <mxGeometry x="-985" y="-1603.3600000000001" width="310" height="28.73" as="geometry" />
        </mxCell>
        <mxCell id="Yv6gaA2NmNVzVcbL0BUT-132" style="edgeStyle=orthogonalEdgeStyle;shape=connector;rounded=0;orthogonalLoop=1;jettySize=auto;html=1;entryX=0.5;entryY=-0.278;entryDx=0;entryDy=0;entryPerimeter=0;strokeColor=default;align=center;verticalAlign=middle;fontFamily=Helvetica;fontSize=11;fontColor=default;labelBackgroundColor=default;endArrow=classic;flowAnimation=1;" edge="1" parent="1" source="Yv6gaA2NmNVzVcbL0BUT-104" target="Yv6gaA2NmNVzVcbL0BUT-131">
          <mxGeometry relative="1" as="geometry" />
        </mxCell>
        <mxCell id="Yv6gaA2NmNVzVcbL0BUT-136" value="" style="group" vertex="1" connectable="0" parent="1">
          <mxGeometry x="-1590" y="-1658" width="202.5" height="138" as="geometry" />
        </mxCell>
        <mxCell id="Yv6gaA2NmNVzVcbL0BUT-118" value="&lt;span style=&quot;&quot;&gt;&lt;b&gt;temperature.avro&lt;/b&gt;&lt;/span&gt;" style="swimlane;childLayout=stackLayout;horizontal=1;startSize=26;horizontalStack=0;rounded=1;fontSize=14;fontStyle=0;strokeWidth=2;resizeParent=0;resizeLast=1;shadow=0;dashed=0;align=center;arcSize=4;whiteSpace=wrap;html=1;fontFamily=Helvetica;labelBackgroundColor=none;labelBorderColor=none;fillColor=#fad7ac;strokeColor=#000000;" vertex="1" parent="Yv6gaA2NmNVzVcbL0BUT-136">
          <mxGeometry y="22" width="202.5" height="116" as="geometry">
            <mxRectangle x="-1780" y="-1636" width="160" height="50" as="alternateBounds" />
          </mxGeometry>
        </mxCell>
        <mxCell id="Yv6gaA2NmNVzVcbL0BUT-119" value="&lt;b&gt;+ Timestamp (Unix-Epoch)&lt;br&gt;+ sensorSerial (Int)&lt;/b&gt;&lt;div&gt;&lt;b&gt;+ sensorType (Str)&lt;/b&gt;&lt;/div&gt;&lt;div&gt;&lt;b&gt;+ subjectID (Int)&lt;br&gt;+ TemperatureCelsius (Float32)&lt;/b&gt;&lt;/div&gt;" style="align=left;strokeColor=none;fillColor=none;spacingLeft=4;spacingRight=4;fontSize=12;verticalAlign=top;resizable=0;rotatable=0;part=1;html=1;whiteSpace=wrap;fontFamily=Helvetica;fontColor=default;labelBackgroundColor=#FAD7AC;" vertex="1" parent="Yv6gaA2NmNVzVcbL0BUT-118">
          <mxGeometry y="26" width="202.5" height="90" as="geometry" />
        </mxCell>
        <mxCell id="Yv6gaA2NmNVzVcbL0BUT-120" value="&lt;span style=&quot;font-size: 15px; text-wrap-mode: nowrap;&quot;&gt;&lt;b&gt;1 Hz&lt;/b&gt;&lt;/span&gt;" style="text;html=1;align=left;verticalAlign=middle;whiteSpace=wrap;rounded=0;fontFamily=Helvetica;fontSize=11;fontColor=default;labelBackgroundColor=#FAD7AC;" vertex="1" parent="Yv6gaA2NmNVzVcbL0BUT-136">
          <mxGeometry x="84.73000000000002" width="60" height="22" as="geometry" />
        </mxCell>
        <mxCell id="Yv6gaA2NmNVzVcbL0BUT-138" value="" style="group" vertex="1" connectable="0" parent="1">
          <mxGeometry x="-1025.75" y="-1537" width="235.5" height="110" as="geometry" />
        </mxCell>
        <mxCell id="Yv6gaA2NmNVzVcbL0BUT-140" value="" style="group" vertex="1" connectable="0" parent="Yv6gaA2NmNVzVcbL0BUT-138">
          <mxGeometry x="-21.75" y="17" width="257.25" height="110" as="geometry" />
        </mxCell>
        <mxCell id="Yv6gaA2NmNVzVcbL0BUT-133" value="&lt;div style=&quot;&quot;&gt;&lt;span style=&quot;font-weight: 700; text-wrap-mode: nowrap; color: light-dark(rgb(0, 0, 0), rgb(255, 255, 255));&quot;&gt;&lt;font style=&quot;font-size: 18px;&quot;&gt;&lt;u&gt;Drop Columns&lt;/u&gt;&lt;/font&gt;&lt;/span&gt;&lt;/div&gt;&lt;div style=&quot;&quot;&gt;&lt;span style=&quot;font-weight: 700; text-wrap-mode: nowrap; color: light-dark(rgb(0, 0, 0), rgb(255, 255, 255));&quot;&gt;&lt;font style=&quot;font-size: 15px;&quot;&gt;- sensorSerial&lt;/font&gt;&lt;/span&gt;&lt;/div&gt;&lt;div style=&quot;&quot;&gt;&lt;span style=&quot;font-weight: 700; text-wrap-mode: nowrap; color: light-dark(rgb(0, 0, 0), rgb(255, 255, 255));&quot;&gt;&lt;font style=&quot;font-size: 15px;&quot;&gt;- sensorType&lt;/font&gt;&lt;/span&gt;&lt;/div&gt;&lt;div style=&quot;&quot;&gt;&lt;span style=&quot;font-weight: 700; text-wrap-mode: nowrap; color: light-dark(rgb(0, 0, 0), rgb(255, 255, 255));&quot;&gt;&lt;font style=&quot;font-size: 15px;&quot;&gt;- IMU&lt;/font&gt;&lt;/span&gt;&lt;/div&gt;&lt;div style=&quot;&quot;&gt;&lt;span style=&quot;font-weight: 700; text-wrap-mode: nowrap; color: light-dark(rgb(0, 0, 0), rgb(255, 255, 255));&quot;&gt;&lt;font style=&quot;font-size: 15px;&quot;&gt;&lt;span style=&quot;white-space: pre;&quot;&gt;&#x9;&lt;/span&gt;-XYZ&lt;br&gt;&lt;/font&gt;&lt;/span&gt;&lt;/div&gt;&lt;div style=&quot;&quot;&gt;&lt;span style=&quot;font-weight: 700; text-wrap-mode: nowrap; color: light-dark(rgb(0, 0, 0), rgb(255, 255, 255));&quot;&gt;&lt;font style=&quot;font-size: 15px;&quot;&gt;&lt;span style=&quot;white-space: pre;&quot;&gt;&#x9;&lt;/span&gt;-Temperature&lt;/font&gt;&lt;/span&gt;&lt;/div&gt;" style="text;html=1;align=left;verticalAlign=middle;whiteSpace=wrap;rounded=0;fontFamily=Helvetica;fontSize=11;fontColor=default;labelBackgroundColor=#D0CEE2;" vertex="1" parent="Yv6gaA2NmNVzVcbL0BUT-140">
          <mxGeometry x="77.5" y="10" width="158" height="110" as="geometry" />
        </mxCell>
        <mxCell id="Yv6gaA2NmNVzVcbL0BUT-131" value="" style="sketch=0;aspect=fixed;pointerEvents=1;shadow=0;dashed=0;html=1;strokeColor=none;labelPosition=center;verticalLabelPosition=bottom;verticalAlign=top;align=center;fillColor=#000000;shape=mxgraph.mscae.enterprise.filter;fontFamily=Helvetica;fontSize=11;fontColor=default;labelBackgroundColor=default;" vertex="1" parent="Yv6gaA2NmNVzVcbL0BUT-140">
          <mxGeometry y="33.51999999999998" width="50" height="45" as="geometry" />
        </mxCell>
        <mxCell id="Yv6gaA2NmNVzVcbL0BUT-142" style="edgeStyle=orthogonalEdgeStyle;shape=connector;rounded=0;orthogonalLoop=1;jettySize=auto;html=1;strokeColor=default;align=center;verticalAlign=middle;fontFamily=Helvetica;fontSize=11;fontColor=default;labelBackgroundColor=default;endArrow=classic;flowAnimation=1;" edge="1" parent="1" source="Yv6gaA2NmNVzVcbL0BUT-131" target="Yv6gaA2NmNVzVcbL0BUT-141">
          <mxGeometry relative="1" as="geometry" />
        </mxCell>
        <mxCell id="Yv6gaA2NmNVzVcbL0BUT-148" value="" style="group" vertex="1" connectable="0" parent="1">
          <mxGeometry x="-1043" y="-1360" width="333" height="110" as="geometry" />
        </mxCell>
        <mxCell id="Yv6gaA2NmNVzVcbL0BUT-141" value="" style="sketch=0;pointerEvents=1;shadow=0;dashed=0;html=1;strokeColor=none;fillColor=#000000;labelPosition=center;verticalLabelPosition=bottom;verticalAlign=top;outlineConnect=0;align=center;shape=mxgraph.office.servers.reverse_proxy;fontFamily=Helvetica;fontSize=11;fontColor=default;labelBackgroundColor=default;" vertex="1" parent="Yv6gaA2NmNVzVcbL0BUT-148">
          <mxGeometry y="36" width="41" height="53" as="geometry" />
        </mxCell>
        <mxCell id="Yv6gaA2NmNVzVcbL0BUT-147" value="&lt;div style=&quot;&quot;&gt;&lt;span style=&quot;font-size: 18px; color: light-dark(rgb(0, 0, 0), rgb(255, 255, 255)); font-weight: 700; text-wrap-mode: nowrap; background-color: light-dark(rgb(208, 206, 226), rgb(208, 206, 226));&quot;&gt;&lt;u style=&quot;&quot;&gt;Modify Columns&lt;/u&gt;&lt;/span&gt;&lt;/div&gt;&lt;div style=&quot;&quot;&gt;&lt;span style=&quot;color: light-dark(rgb(0, 0, 0), rgb(255, 255, 255)); font-weight: 700; text-wrap-mode: nowrap; background-color: light-dark(rgb(208, 206, 226), rgb(208, 206, 226));&quot;&gt;&lt;font style=&quot;font-size: 14px;&quot;&gt;&lt;font style=&quot;&quot;&gt;- rename Timestamp -&amp;gt; ts&lt;/font&gt;&lt;br&gt;&lt;/font&gt;&lt;/span&gt;&lt;/div&gt;&lt;div style=&quot;&quot;&gt;&lt;span style=&quot;color: light-dark(rgb(0, 0, 0), rgb(255, 255, 255)); font-weight: 700; text-wrap-mode: nowrap; background-color: light-dark(rgb(208, 206, 226), rgb(208, 206, 226));&quot;&gt;&lt;font style=&quot;font-size: 14px;&quot;&gt;- increase ts resolution from sec -&amp;gt; ms&lt;/font&gt;&lt;/span&gt;&lt;/div&gt;&lt;div style=&quot;&quot;&gt;&lt;span style=&quot;color: light-dark(rgb(0, 0, 0), rgb(255, 255, 255)); font-weight: 700; text-wrap-mode: nowrap; background-color: light-dark(rgb(208, 206, 226), rgb(208, 206, 226));&quot;&gt;&lt;font style=&quot;font-size: 14px;&quot;&gt;- make SQL compliant column names&lt;/font&gt;&lt;/span&gt;&lt;/div&gt;" style="text;html=1;align=left;verticalAlign=middle;whiteSpace=wrap;rounded=0;fontFamily=Helvetica;fontSize=11;fontColor=default;labelBackgroundColor=#D0CEE2;" vertex="1" parent="Yv6gaA2NmNVzVcbL0BUT-148">
          <mxGeometry x="73" width="260" height="110" as="geometry" />
        </mxCell>
        <mxCell id="Yv6gaA2NmNVzVcbL0BUT-149" value="" style="shape=image;verticalLabelPosition=bottom;labelBackgroundColor=default;verticalAlign=top;aspect=fixed;imageAspect=0;image=https://duckdb.org/images/logo-dl/DuckDB_Logo-stacked.png;" vertex="1" parent="1">
          <mxGeometry x="-1071.52" y="-1186.94" width="98.04" height="75.38" as="geometry" />
        </mxCell>
        <mxCell id="Yv6gaA2NmNVzVcbL0BUT-150" style="edgeStyle=orthogonalEdgeStyle;shape=connector;rounded=0;orthogonalLoop=1;jettySize=auto;html=1;entryX=0.5;entryY=0;entryDx=0;entryDy=0;strokeColor=default;align=center;verticalAlign=middle;fontFamily=Helvetica;fontSize=11;fontColor=default;labelBackgroundColor=default;endArrow=classic;flowAnimation=1;" edge="1" parent="1" source="Yv6gaA2NmNVzVcbL0BUT-141" target="Yv6gaA2NmNVzVcbL0BUT-149">
          <mxGeometry relative="1" as="geometry" />
        </mxCell>
        <mxCell id="Yv6gaA2NmNVzVcbL0BUT-151" value="&lt;div style=&quot;&quot;&gt;&lt;span style=&quot;font-size: 18px; text-wrap-mode: nowrap;&quot;&gt;&lt;b&gt;&lt;u&gt;DuckDB SQL DB&lt;/u&gt;&lt;/b&gt;&lt;/span&gt;&lt;/div&gt;&lt;div style=&quot;&quot;&gt;&lt;span style=&quot;font-family: &amp;quot;Fira code&amp;quot;, &amp;quot;Fira Mono&amp;quot;, source-code-pro, Menlo, Monaco, Consolas, &amp;quot;Courier New&amp;quot;, monospace; font-size: 15px; white-space: pre;&quot;&gt;.&lt;br&gt;└── dwh/&lt;br&gt;    ├── {sensor}.duckdb&lt;br&gt;    └── ...&lt;/span&gt;&lt;/div&gt;" style="text;html=1;align=left;verticalAlign=middle;whiteSpace=wrap;rounded=0;fontFamily=Helvetica;fontSize=11;fontColor=default;labelBackgroundColor=#D0CEE2;" vertex="1" parent="1">
          <mxGeometry x="-970" y="-1209.5" width="330" height="110" as="geometry" />
        </mxCell>
      </root>
    </mxGraphModel>
  </diagram>
</mxfile>
